<?xml version="1.0" standalone="no"?>
<!DOCTYPE svg PUBLIC "-//W3C//DTD SVG 20010904//EN"
 "http://www.w3.org/TR/2001/REC-SVG-20010904/DTD/svg10.dtd">
<svg version="1.0" xmlns="http://www.w3.org/2000/svg"
 width="32.000000pt" height="32.000000pt" viewBox="0 0 32.000000 32.000000"
 preserveAspectRatio="xMidYMid meet">

<g transform="translate(0.000000,32.000000) scale(0.100000,-0.100000)"
fill="#000000" stroke="none">
<path d="M91 299 c-24 -12 -52 -36 -62 -53 -20 -33 -25 -66 -10 -66 5 0 13
-18 19 -40 5 -22 6 -37 1 -34 -5 3 -9 12 -9 20 0 8 -5 14 -11 14 -14 0 -4 -43
18 -76 16 -25 33 -32 33 -14 0 6 -4 10 -9 10 -5 0 -11 6 -14 13 -3 8 3 13 14
13 11 0 19 -3 19 -7 0 -3 18 -11 40 -18 35 -10 46 -9 85 8 l44 19 7 -20 c6
-20 7 -19 30 8 14 15 22 34 20 41 -3 7 -1 15 5 18 22 14 -18 135 -45 135 -8 0
-17 7 -20 16 -4 12 -14 14 -36 9 -23 -5 -30 -3 -28 7 5 22 -44 20 -91 -3z m49
-129 c0 -5 -5 -10 -11 -10 -5 0 -7 5 -4 10 3 6 8 10 11 10 2 0 4 -4 4 -10z m3
-49 c3 -11 -1 -22 -8 -25 -13 -5 -28 28 -17 38 10 11 20 6 25 -13z m53 -12 c0
-10 -6 -21 -13 -23 -8 -4 -13 3 -13 18 0 12 6 23 13 23 7 0 13 -8 13 -18z"/>
</g>
</svg>
