<?xml version="1.0" standalone="no"?>
<!DOCTYPE svg PUBLIC "-//W3C//DTD SVG 20010904//EN"
 "http://www.w3.org/TR/2001/REC-SVG-20010904/DTD/svg10.dtd">
<svg version="1.0" xmlns="http://www.w3.org/2000/svg"
 width="280.000000pt" height="280.000000pt" viewBox="0 0 280.000000 280.000000"
 preserveAspectRatio="xMidYMid meet">

<g transform="translate(0.000000,280.000000) scale(0.100000,-0.100000)"
fill="#000000" stroke="none">
<path d="M1519 2786 c-2 -3 -47 -6 -99 -7 -52 -2 -124 -9 -160 -16 -36 -7 -88
-12 -116 -13 -49 0 -138 -21 -177 -41 -10 -5 -22 -7 -27 -4 -6 3 -20 -1 -32
-9 -12 -9 -30 -16 -39 -16 -9 0 -19 -7 -23 -15 -3 -8 -10 -15 -17 -15 -23 0
-182 -84 -209 -110 -8 -9 -11 -10 -6 -3 5 8 4 13 -3 13 -6 0 -13 -11 -17 -25
-3 -14 -10 -25 -15 -25 -4 0 -50 -40 -101 -90 -51 -49 -96 -90 -100 -90 -4 0
-8 -6 -8 -14 0 -8 -9 -17 -19 -21 -11 -3 -22 -14 -25 -23 -3 -9 -16 -22 -28
-27 -12 -6 -24 -17 -28 -25 -4 -8 -13 -26 -20 -40 -8 -14 -25 -47 -40 -75 -15
-27 -33 -61 -40 -75 -8 -14 -15 -34 -17 -44 -2 -11 -9 -27 -17 -35 -7 -9 -19
-37 -27 -63 -7 -26 -16 -45 -20 -42 -4 2 -6 -4 -5 -13 2 -10 -2 -27 -7 -38 -6
-11 -14 -27 -18 -36 -4 -9 -10 -43 -14 -75 -3 -32 -9 -61 -13 -64 -9 -6 -17
-105 -16 -185 0 -33 -4 -63 -9 -66 -6 -4 -3 -16 7 -30 l16 -23 1 29 c0 17 2
62 3 100 2 78 17 115 46 115 11 0 20 6 20 14 0 20 16 29 40 21 13 -4 20 -15
20 -31 0 -33 39 -32 70 1 27 28 40 32 40 10 0 -8 -4 -15 -10 -15 -5 0 -10 -7
-10 -16 0 -9 -5 -12 -12 -8 -7 4 -8 3 -4 -5 4 -6 2 -19 -6 -28 -10 -12 -10
-17 -1 -20 10 -3 10 -9 1 -23 -7 -11 -8 -23 -4 -27 5 -4 11 -2 13 5 7 19 19
14 31 -13 11 -23 10 -25 -14 -25 -22 0 -25 -4 -22 -27 2 -16 8 -27 16 -25 7 1
18 -10 25 -25 6 -16 20 -34 29 -41 10 -7 18 -18 18 -23 0 -6 7 -17 15 -25 21
-22 9 -47 -17 -33 -11 6 -22 8 -26 5 -3 -3 0 -6 6 -6 7 0 12 -7 12 -15 0 -9 9
-15 25 -15 14 0 29 -8 35 -20 6 -11 20 -20 30 -20 11 0 20 -7 20 -15 0 -11 -8
-13 -30 -8 -22 4 -30 2 -30 -8 0 -18 -33 -39 -46 -31 -5 4 -10 22 -9 39 0 18
-6 35 -12 38 -7 2 -13 14 -13 25 0 14 -7 20 -21 20 -17 0 -20 5 -16 21 3 12 3
19 0 16 -10 -11 -40 26 -36 44 3 11 2 19 -2 19 -12 0 -35 -28 -35 -44 0 -21
-18 -30 -34 -17 -10 8 -16 8 -25 -2 -6 -8 -8 -17 -5 -20 4 -3 -3 -5 -15 -4
-13 1 -20 6 -17 14 3 7 1 13 -4 13 -6 0 -10 -8 -11 -17 -1 -29 -17 16 -18 50
-1 15 -5 27 -10 27 -17 0 -20 -28 -7 -82 7 -30 11 -59 8 -66 -2 -7 3 -24 12
-37 9 -13 13 -32 9 -41 -4 -12 -3 -15 5 -10 8 5 12 -5 12 -33 0 -22 4 -42 10
-46 5 -3 6 -13 3 -22 -4 -10 -2 -14 4 -10 12 8 23 -24 23 -65 0 -16 5 -28 10
-28 6 0 10 -6 10 -14 0 -7 7 -19 15 -26 8 -7 15 -21 15 -31 0 -11 5 -19 10
-19 6 0 10 -11 10 -25 0 -14 4 -25 9 -25 5 0 13 -9 16 -20 4 -11 11 -17 17
-14 6 4 9 1 6 -6 -2 -7 5 -23 16 -35 61 -65 77 -86 79 -104 0 -11 5 -17 9 -15
4 3 12 -5 17 -18 5 -13 25 -38 45 -56 20 -18 36 -39 36 -46 0 -11 21 -23 52
-30 3 0 17 -11 30 -23 64 -62 102 -93 115 -93 7 0 13 -4 13 -10 0 -5 7 -10 16
-10 8 0 12 -4 9 -10 -3 -5 3 -10 15 -10 11 0 23 -7 26 -15 3 -8 24 -20 45 -26
21 -7 46 -20 55 -31 10 -10 24 -18 32 -18 20 0 116 -33 123 -43 3 -4 34 -13
68 -19 48 -9 59 -14 45 -20 -15 -6 -13 -7 6 -3 14 2 62 -2 107 -11 116 -21
503 -10 503 15 0 3 17 7 38 8 35 1 187 55 206 73 5 5 15 6 22 3 8 -3 17 2 20
11 3 9 11 16 17 16 7 0 36 10 67 23 52 21 66 30 126 85 14 12 29 22 34 22 5 0
24 15 42 33 18 18 49 44 68 59 48 35 104 91 136 135 15 21 39 50 53 65 14 16
22 28 18 28 -4 0 2 9 13 20 11 11 47 75 79 143 91 190 101 214 101 241 0 14 4
27 9 30 5 4 15 39 21 79 7 39 17 83 23 96 13 26 16 229 5 321 -15 120 -36 227
-54 265 -10 22 -18 45 -19 51 0 6 -5 18 -11 25 -23 28 -54 98 -64 144 -7 29
-28 70 -55 105 -25 32 -45 63 -45 68 0 6 -11 20 -25 33 -13 13 -25 29 -25 34
0 6 -32 42 -71 80 -39 39 -88 86 -108 106 -20 20 -52 45 -71 57 -19 11 -51 37
-69 56 -19 20 -43 36 -52 36 -10 0 -20 4 -23 9 -3 5 -34 23 -68 41 -35 18 -67
39 -71 47 -6 9 -17 13 -32 9 -14 -4 -29 0 -38 9 -9 8 -45 19 -80 24 -36 5 -75
15 -88 22 -13 7 -41 11 -63 11 -22 -1 -49 4 -60 11 -23 15 -71 29 -77 23z m91
-56 c0 -5 -2 -10 -4 -10 -3 0 -8 5 -11 10 -3 6 -1 10 4 10 6 0 11 -4 11 -10z
m50 -16 c0 -8 -4 -12 -10 -9 -5 3 -10 10 -10 16 0 5 5 9 10 9 6 0 10 -7 10
-16z m-335 -14 c3 -5 -1 -10 -10 -10 -9 0 -13 5 -10 10 3 6 8 10 10 10 2 0 7
-4 10 -10z m516 -17 c24 -9 37 -19 30 -21 -11 -4 -11 -6 0 -13 10 -6 5 -9 -14
-9 -30 0 -66 -33 -67 -60 0 -12 -10 -15 -39 -13 -24 1 -44 -4 -51 -12 -9 -11
-16 -12 -33 -2 -12 7 -25 16 -28 20 -3 5 -9 8 -13 8 -24 -3 -36 1 -36 14 0 11
7 14 25 9 16 -4 25 -2 25 5 0 6 11 17 25 23 14 6 25 18 25 25 0 8 5 24 11 35
9 17 17 20 54 15 24 -4 62 -14 86 -24z m-661 7 c0 -5 -7 -10 -15 -10 -8 0 -15
5 -15 10 0 6 7 10 15 10 8 0 15 -4 15 -10z m288 -7 c-5 -25 -28 -28 -28 -4 0
12 6 21 16 21 9 0 14 -7 12 -17z m117 7 c-3 -5 -14 -10 -23 -10 -15 0 -15 2
-2 10 20 13 33 13 25 0z m-547 -23 c2 -11 -3 -17 -16 -17 -24 0 -32 8 -25 26
7 20 37 13 41 -9z m207 3 c3 -5 -1 -10 -10 -10 -9 0 -13 5 -10 10 3 6 8 10 10
10 2 0 7 -4 10 -10z m-300 -20 c3 -5 -1 -10 -9 -10 -8 0 -18 5 -21 10 -3 6 1
10 9 10 8 0 18 -4 21 -10z m295 -20 c0 -5 -8 -10 -17 -10 -15 0 -16 2 -3 10
19 12 20 12 20 0z m275 0 c-3 -5 -12 -7 -20 -3 -21 7 -19 13 6 13 11 0 18 -4
14 -10z m-75 -61 c0 -13 -6 -18 -20 -16 -29 5 -33 13 -19 36 15 23 39 11 39
-20z m450 26 c0 -8 -7 -15 -15 -15 -8 0 -15 7 -15 15 0 8 7 15 15 15 8 0 15
-7 15 -15z m-950 -5 c0 -5 -4 -10 -10 -10 -5 0 -10 5 -10 10 0 6 5 10 10 10 6
0 10 -4 10 -10z m624 -9 c3 -5 -1 -12 -10 -15 -27 -10 -35 -7 -22 9 15 17 25
19 32 6z m-324 -11 c0 -5 -7 -10 -15 -10 -8 0 -15 5 -15 10 0 6 7 10 15 10 8
0 15 -4 15 -10z m389 -16 c6 4 11 0 11 -8 0 -9 -7 -16 -15 -16 -8 0 -15 -7
-15 -15 0 -8 -5 -15 -11 -15 -7 0 -9 9 -5 23 3 12 6 29 6 37 0 12 2 13 9 1 5
-7 14 -10 20 -7z m-499 -4 c0 -5 -2 -10 -4 -10 -3 0 -8 5 -11 10 -3 6 -1 10 4
10 6 0 11 -4 11 -10z m370 -10 c0 -5 -4 -10 -10 -10 -5 0 -10 5 -10 10 0 6 5
10 10 10 6 0 10 -4 10 -10z m-410 -15 c0 -8 -4 -15 -10 -15 -5 0 -10 7 -10 15
0 8 5 15 10 15 6 0 10 -7 10 -15z m230 6 c0 -6 -4 -13 -10 -16 -5 -3 -10 1
-10 9 0 9 5 16 10 16 6 0 10 -4 10 -9z m-570 -15 c0 -8 -4 -17 -9 -21 -12 -7
-24 12 -16 25 9 15 25 12 25 -4z m1090 -32 c0 -9 -12 -14 -36 -14 -33 0 -35 2
-23 18 8 9 18 20 24 24 12 9 35 -10 35 -28z m-540 5 c0 -6 -4 -7 -10 -4 -5 3
-10 11 -10 16 0 6 5 7 10 4 6 -3 10 -11 10 -16z m923 -11 c54 -31 80 -60 83
-93 2 -19 -1 -37 -7 -40 -5 -4 -9 3 -9 15 0 13 -5 20 -12 18 -7 -3 -13 -11
-13 -19 0 -14 -47 -49 -66 -49 -7 0 -9 11 -7 25 3 14 0 29 -7 33 -20 12 -24
39 -9 67 8 15 14 34 14 41 0 17 4 17 33 2z m-1585 -16 c2 -7 -3 -12 -12 -12
-9 0 -16 7 -16 16 0 17 22 14 28 -4z m347 7 c10 -15 -1 -23 -20 -15 -9 3 -13
10 -10 16 8 13 22 13 30 -1z m175 -3 c0 -3 -4 -8 -10 -11 -5 -3 -10 -1 -10 4
0 6 5 11 10 11 6 0 10 -2 10 -4z m240 -28 c0 -19 -2 -20 -10 -8 -13 19 -13 30
0 30 6 0 10 -10 10 -22z m378 -11 c2 -10 -3 -17 -12 -17 -10 0 -16 9 -16 21 0
24 23 21 28 -4z m-58 9 c0 -3 -4 -8 -10 -11 -5 -3 -10 -1 -10 4 0 6 5 11 10
11 6 0 10 -2 10 -4z m-357 -20 c6 -16 -2 -28 -14 -20 -12 7 -11 34 0 34 5 0
11 -6 14 -14z m186 -5 c14 -9 9 -41 -7 -41 -5 0 -14 11 -20 25 -12 27 -1 34
27 16z m-309 -31 c0 -5 -4 -10 -10 -10 -5 0 -10 5 -10 10 0 6 5 10 10 10 6 0
10 -4 10 -10z m389 -35 c-28 -28 -39 -31 -39 -10 0 8 7 15 15 15 8 0 15 5 15
10 0 6 7 10 16 10 13 0 11 -5 -7 -25z m-59 -11 c13 -34 14 -33 -22 -30 -37 3
-45 17 -23 40 23 22 34 20 45 -10z m-520 6 c0 -5 -7 -10 -15 -10 -8 0 -15 5
-15 10 0 6 7 10 15 10 8 0 15 -4 15 -10z m210 -5 c0 -8 -4 -15 -9 -15 -13 0
-22 16 -14 24 11 11 23 6 23 -9z m581 -6 c16 -30 -5 -51 -25 -24 -14 19 -11
45 5 45 4 0 13 -9 20 -21z m-663 -46 c-2 -22 -9 -29 -30 -31 -20 -2 -28 1 -28
12 0 8 -3 21 -6 30 -5 13 1 16 31 16 34 0 36 -2 33 -27z m612 7 c0 -5 -4 -10
-10 -10 -5 0 -10 5 -10 10 0 6 5 10 10 10 6 0 10 -4 10 -10z m362 -13 c-24
-11 -38 -5 -28 11 3 6 16 8 28 4 l22 -5 -22 -10z m-1702 3 c0 -5 -5 -10 -11
-10 -5 0 -7 5 -4 10 3 6 8 10 11 10 2 0 4 -4 4 -10z m1020 -10 c0 -5 -4 -10
-10 -10 -5 0 -10 5 -10 10 0 6 5 10 10 10 6 0 10 -4 10 -10z m-135 -20 c3 -5
1 -10 -4 -10 -6 0 -11 5 -11 10 0 6 2 10 4 10 3 0 8 -4 11 -10z m-855 -16 c0
-8 -5 -12 -10 -9 -6 4 -8 11 -5 16 9 14 15 11 15 -7z m1022 -16 c-11 -11 -32
-3 -32 12 0 12 34 18 39 7 2 -5 -1 -13 -7 -19z m493 2 c3 -5 -1 -10 -9 -10 -9
0 -16 5 -16 10 0 6 4 10 9 10 6 0 13 -4 16 -10z m135 1 c0 -17 -18 -21 -24 -6
-3 9 0 15 9 15 8 0 15 -4 15 -9z m-560 -16 c-14 -17 -40 -20 -40 -6 0 8 18 16
44 20 5 0 3 -6 -4 -14z m-230 -26 c0 -5 -4 -9 -10 -9 -5 0 -10 7 -10 16 0 8 5
12 10 9 6 -3 10 -10 10 -16z m830 11 c0 -5 -5 -10 -11 -10 -5 0 -7 5 -4 10 3
6 8 10 11 10 2 0 4 -4 4 -10z m-1328 -15 c0 -5 -5 -11 -11 -13 -6 -2 -11 4
-11 13 0 9 5 15 11 13 6 -2 11 -8 11 -13z m739 -18 c-8 -8 -11 -7 -11 4 0 9 3
19 7 23 4 4 9 2 11 -4 3 -7 -1 -17 -7 -23z m276 -3 c6 -13 8 -25 5 -29 -12
-11 -45 -4 -58 13 -21 27 -16 39 14 39 19 0 31 -7 39 -23z m-397 12 c0 -3 -4
-8 -10 -11 -5 -3 -10 -1 -10 4 0 6 5 11 10 11 6 0 10 -2 10 -4z m625 -34 c-8
-9 -25 20 -18 31 3 5 10 2 15 -7 6 -10 7 -20 3 -24z m55 28 c0 -5 -2 -10 -4
-10 -3 0 -8 5 -11 10 -3 6 -1 10 4 10 6 0 11 -4 11 -10z m112 -1 c3 -9 10 -9
27 0 12 7 25 10 29 7 3 -3 0 -6 -7 -6 -8 0 -10 -11 -5 -37 l7 -38 -37 37 c-20
20 -36 39 -36 43 0 10 18 5 22 -6z m-1952 -20 c0 -5 -4 -9 -10 -9 -5 0 -10 7
-10 16 0 8 5 12 10 9 6 -3 10 -10 10 -16z m70 17 c0 -11 -19 -15 -25 -6 -3 5
1 10 9 10 9 0 16 -2 16 -4z m1820 -11 c0 -8 -7 -15 -15 -15 -16 0 -20 12 -8
23 11 12 23 8 23 -8z m-1770 -11 c0 -8 -5 -12 -10 -9 -6 4 -8 11 -5 16 9 14
15 11 15 -7z m1660 -29 c0 -8 -7 -15 -15 -15 -8 0 -15 7 -15 15 0 8 7 15 15
15 8 0 15 -7 15 -15z m-1360 -20 c0 -25 -23 -35 -35 -15 -10 16 2 40 20 40 9
0 15 -9 15 -25z m1663 5 c-3 -11 -9 -20 -14 -20 -11 0 -11 3 -3 24 9 23 23 20
17 -4z m97 0 c0 -5 -2 -10 -4 -10 -3 0 -8 5 -11 10 -3 6 -1 10 4 10 6 0 11 -4
11 -10z m-438 -25 c0 -5 -5 -11 -11 -13 -6 -2 -11 4 -11 13 0 9 5 15 11 13 6
-2 11 -8 11 -13z m-1437 -5 c3 -5 1 -10 -4 -10 -6 0 -11 5 -11 10 0 6 2 10 4
10 3 0 8 -4 11 -10z m880 0 c-3 -5 -13 -10 -21 -10 -8 0 -12 5 -9 10 3 6 13
10 21 10 8 0 12 -4 9 -10z m-1185 -15 c0 -8 -7 -15 -15 -15 -16 0 -20 12 -8
23 11 12 23 8 23 -8z m2177 -11 c6 -16 -15 -37 -29 -28 -4 3 -8 14 -8 25 0 23
28 26 37 3z m-2022 -4 c3 -5 1 -10 -4 -10 -6 0 -11 5 -11 10 0 6 2 10 4 10 3
0 8 -4 11 -10z m1055 0 c0 -5 -4 -10 -10 -10 -5 0 -10 5 -10 10 0 6 5 10 10
10 6 0 10 -4 10 -10z m480 3 c0 -5 -5 -15 -10 -23 -8 -12 -10 -11 -10 8 0 12
5 22 10 22 6 0 10 -3 10 -7z m-320 -23 c0 -5 -2 -10 -4 -10 -3 0 -8 5 -11 10
-3 6 -1 10 4 10 6 0 11 -4 11 -10z m490 -5 c0 -8 -4 -15 -10 -15 -5 0 -7 7 -4
15 4 8 8 15 10 15 2 0 4 -7 4 -15z m170 0 c0 -8 -7 -15 -15 -15 -26 0 -18 20
13 29 1 1 2 -6 2 -14z m200 5 c0 -5 -5 -10 -11 -10 -5 0 -7 5 -4 10 3 6 8 10
11 10 2 0 4 -4 4 -10z m-2050 -25 c0 -8 -7 -15 -15 -15 -8 0 -15 7 -15 15 0 8
7 15 15 15 8 0 15 -7 15 -15z m223 -30 c1 -5 -6 -11 -15 -13 -11 -2 -18 3 -18
13 0 17 30 18 33 0z m93 4 c10 -17 -13 -36 -27 -22 -12 12 -4 33 11 33 5 0 12
-5 16 -11z m1304 1 c0 -5 9 -10 20 -10 11 0 20 -6 20 -14 0 -19 -17 -29 -25
-16 -4 6 -18 15 -31 20 -29 11 -32 30 -4 30 11 0 20 -4 20 -10z m80 -10 c0
-11 -4 -20 -10 -20 -5 0 -10 9 -10 20 0 11 5 20 10 20 6 0 10 -9 10 -20z
m-995 0 c-3 -5 -10 -10 -16 -10 -5 0 -9 5 -9 10 0 6 7 10 16 10 8 0 12 -4 9
-10z m-945 -60 c0 -5 -4 -10 -10 -10 -5 0 -10 5 -10 10 0 6 5 10 10 10 6 0 10
-4 10 -10z m1060 -21 c0 -10 -4 -19 -9 -19 -12 0 -23 29 -15 41 8 14 24 0 24
-22z m70 21 c0 -5 -7 -10 -16 -10 -8 0 -12 5 -9 10 3 6 10 10 16 10 5 0 9 -4
9 -10z m-730 -25 c0 -7 -7 -16 -15 -19 -20 -7 -33 23 -14 34 16 10 29 4 29
-15z m-180 0 c0 -8 -7 -15 -15 -15 -8 0 -15 7 -15 15 0 8 7 15 15 15 8 0 15
-7 15 -15z m1760 1 c0 -2 -7 -7 -16 -10 -8 -3 -12 -2 -9 4 6 10 25 14 25 6z
m-200 -26 c0 -5 -4 -10 -10 -10 -5 0 -10 5 -10 10 0 6 5 10 10 10 6 0 10 -4
10 -10z m-1250 -10 c0 -5 -2 -10 -4 -10 -3 0 -8 5 -11 10 -3 6 -1 10 4 10 6 0
11 -4 11 -10z m1498 -3 c8 -10 6 -13 -11 -14 -12 0 -16 1 -9 4 6 3 10 9 6 14
-8 14 2 11 14 -4z m272 -3 c0 -9 -5 -14 -12 -12 -18 6 -21 28 -4 28 9 0 16 -7
16 -16z m-950 -4 c0 -5 -4 -10 -10 -10 -5 0 -10 5 -10 10 0 6 5 10 10 10 6 0
10 -4 10 -10z m542 -12 c-7 -7 -12 -8 -12 -2 0 6 3 14 7 17 3 4 9 5 12 2 2 -3
-1 -11 -7 -17z m55 -4 c-3 -3 -12 -4 -19 -1 -8 3 -5 6 6 6 11 1 17 -2 13 -5z
m407 -9 c3 -8 1 -15 -4 -15 -6 0 -10 7 -10 15 0 8 2 15 4 15 2 0 6 -7 10 -15z
m118 -57 c-13 -13 -26 8 -17 30 6 16 7 16 17 -1 7 -13 7 -22 0 -29z m-2484 21
c-2 -6 -8 -10 -13 -10 -5 0 -11 4 -13 10 -2 6 4 11 13 11 9 0 15 -5 13 -11z
m2262 -4 c0 -8 -4 -15 -10 -15 -5 0 -10 7 -10 15 0 8 5 15 10 15 6 0 10 -7 10
-15z m-2320 -14 c0 -28 -17 -35 -29 -12 -15 27 -14 31 9 31 13 0 20 -7 20 -19z
m1240 9 c0 -5 -4 -10 -10 -10 -5 0 -10 5 -10 10 0 6 5 10 10 10 6 0 10 -4 10
-10z m-1119 -81 c-9 -23 -10 -22 -10 11 -1 23 2 31 9 24 7 -7 7 -19 1 -35z
m1149 16 c0 -8 -7 -15 -15 -15 -8 0 -15 7 -15 15 0 8 7 15 15 15 8 0 15 -7 15
-15z m170 5 c0 -5 -4 -10 -10 -10 -5 0 -10 5 -10 10 0 6 5 10 10 10 6 0 10 -4
10 -10z m426 -4 c8 -8 14 -17 14 -20 0 -10 -44 -6 -60 4 -13 9 -13 11 0 20 20
13 29 12 46 -4z m-1586 -30 c0 -16 -18 -31 -27 -22 -8 8 5 36 17 36 5 0 10 -6
10 -14z m-293 -22 c9 -23 -11 -38 -26 -20 -13 16 -7 36 10 36 5 0 12 -7 16
-16z m1533 -9 c0 -8 -4 -17 -10 -20 -6 -4 -10 5 -10 20 0 15 4 24 10 20 6 -3
10 -12 10 -20z m300 5 c0 -5 -4 -10 -10 -10 -5 0 -10 5 -10 10 0 6 5 10 10 10
6 0 10 -4 10 -10z m-1480 -31 c0 -27 -2 -30 -15 -19 -11 9 -12 17 -4 31 14 27
19 24 19 -12z m1140 16 c0 -8 -4 -15 -10 -15 -5 0 -10 7 -10 15 0 8 5 15 10
15 6 0 10 -7 10 -15z m-1360 -16 c0 -5 -4 -9 -10 -9 -5 0 -10 7 -10 16 0 8 5
12 10 9 6 -3 10 -10 10 -16z m-60 -20 c0 -11 -4 -17 -10 -14 -5 3 -10 13 -10
21 0 8 5 14 10 14 6 0 10 -9 10 -21z m597 -1 c-3 -8 -6 -5 -6 6 -1 11 2 17 5
13 3 -3 4 -12 1 -19z m393 13 c0 -6 -4 -13 -10 -16 -5 -3 -10 1 -10 9 0 9 5
16 10 16 6 0 10 -4 10 -9z m850 -26 c0 -16 -6 -25 -15 -25 -18 0 -20 21 -3 38
17 17 18 16 18 -13z m440 15 c0 -5 -4 -10 -10 -10 -5 0 -10 5 -10 10 0 6 5 10
10 10 6 0 10 -4 10 -10z m-1342 -16 c12 -4 22 -14 22 -23 0 -9 8 -27 17 -41
12 -17 13 -25 5 -28 -7 -2 -12 -8 -12 -13 0 -4 6 -6 13 -3 17 6 41 -21 32 -36
-5 -8 -14 -6 -31 5 l-24 16 6 -41 c4 -24 3 -40 -4 -40 -5 0 -12 -9 -15 -20 -3
-13 -10 -18 -21 -14 -20 8 -21 24 -1 24 14 0 41 48 32 56 -2 2 -20 -1 -41 -7
-30 -8 -45 -7 -72 6 -42 20 -44 44 -4 67 17 10 32 28 35 45 13 58 15 59 63 47z
m492 2 c0 -3 -4 -8 -10 -11 -5 -3 -10 -1 -10 4 0 6 5 11 10 11 6 0 10 -2 10
-4z m-1300 -10 c0 -3 -4 -8 -10 -11 -5 -3 -10 -1 -10 4 0 6 5 11 10 11 6 0 10
-2 10 -4z m2370 -15 c0 -5 3 -18 7 -28 6 -16 5 -16 -10 -4 -19 15 -23 41 -7
41 6 0 10 -4 10 -9z m-2325 -11 c7 -12 -12 -40 -27 -40 -16 0 -21 32 -7 41 18
12 26 11 34 -1z m1225 -10 c0 -5 -4 -10 -10 -10 -5 0 -10 5 -10 10 0 6 5 10
10 10 6 0 10 -4 10 -10z m785 0 c-3 -5 -12 -7 -20 -3 -21 7 -19 13 6 13 11 0
18 -4 14 -10z m-1025 -15 c0 -8 -7 -15 -15 -15 -16 0 -20 12 -8 23 11 12 23 8
23 -8z m-670 -26 c0 -10 -4 -19 -10 -19 -5 0 -10 12 -10 26 0 14 4 23 10 19 6
-3 10 -15 10 -26z m-420 6 c0 -8 -7 -15 -15 -15 -8 0 -15 7 -15 15 0 8 7 15
15 15 8 0 15 -7 15 -15z m1268 3 c-3 -7 -11 -13 -18 -13 -7 0 -15 6 -17 13 -3
7 4 12 17 12 13 0 20 -5 18 -12z m519 -20 c-3 -8 -6 -5 -6 6 -1 11 2 17 5 13
3 -3 4 -12 1 -19z m340 16 c-3 -3 -12 -4 -19 -1 -8 3 -5 6 6 6 11 1 17 -2 13
-5z m-362 -14 c3 -5 1 -10 -4 -10 -6 0 -11 5 -11 10 0 6 2 10 4 10 3 0 8 -4
11 -10z m275 1 c0 -6 -4 -13 -10 -16 -5 -3 -10 1 -10 9 0 9 5 16 10 16 6 0 10
-4 10 -9z m217 -15 c-3 -7 0 -19 6 -25 8 -8 8 -11 0 -11 -11 0 -23 22 -23 41
0 5 5 9 11 9 6 0 9 -6 6 -14z m173 4 c0 -5 -4 -10 -10 -10 -5 0 -10 5 -10 10
0 6 5 10 10 10 6 0 10 -4 10 -10z m-2229 -56 c5 -6 6 -14 2 -17 -13 -13 -32
-7 -43 14 -10 17 -8 24 7 38 17 17 18 17 21 -3 2 -12 8 -26 13 -32z m407 35
c-2 -6 -8 -10 -13 -10 -5 0 -11 4 -13 10 -2 6 4 11 13 11 9 0 15 -5 13 -11z
m742 -10 c0 -5 -4 -9 -10 -9 -5 0 -10 7 -10 16 0 8 5 12 10 9 6 -3 10 -10 10
-16z m-359 -9 c20 -11 26 -30 8 -30 -11 0 -39 24 -39 34 0 9 9 7 31 -4z m782
-5 c0 -6 -7 -11 -16 -13 -12 -3 -15 1 -11 13 7 17 25 17 27 0z m-483 -10 c0
-8 -4 -15 -10 -15 -5 0 -10 7 -10 15 0 8 5 15 10 15 6 0 10 -7 10 -15z m-530
-21 c0 -9 -5 -14 -12 -12 -18 6 -21 28 -4 28 9 0 16 -7 16 -16z m300 -13 c16
-31 12 -59 -12 -72 -18 -10 -24 -8 -35 7 -18 25 -17 58 2 50 10 -4 15 1 15 14
0 25 16 26 30 1z m-365 -1 c3 -5 -1 -10 -9 -10 -9 0 -16 5 -16 10 0 6 4 10 9
10 6 0 13 -4 16 -10z m129 -6 c3 -8 2 -12 -4 -9 -6 3 -10 10 -10 16 0 14 7 11
14 -7z m601 -3 c-3 -6 -11 -8 -17 -5 -6 4 -5 9 3 15 16 10 23 4 14 -10z m-72
-17 c-8 -21 -23 -17 -23 6 0 13 5 18 14 14 8 -3 12 -12 9 -20z m-435 -29 c-2
-11 -7 -12 -18 -4 -11 8 -12 12 -2 16 6 2 13 12 13 21 1 15 2 15 6 0 2 -10 3
-25 1 -33z m329 23 c-3 -8 -6 -5 -6 6 -1 11 2 17 5 13 3 -3 4 -12 1 -19z
m-145 -10 c-7 -7 -12 -8 -12 -2 0 6 3 14 7 17 3 4 9 5 12 2 2 -3 -1 -11 -7
-17z m-122 2 c0 -5 -4 -10 -10 -10 -5 0 -10 5 -10 10 0 6 5 10 10 10 6 0 10
-4 10 -10z m247 -25 c1 -16 0 -24 -3 -17 -7 14 -34 16 -34 2 0 -18 -19 -10
-25 11 -8 25 9 40 40 37 14 -2 21 -11 22 -33z m63 -1 c0 -8 -7 -14 -15 -14 -8
0 -15 9 -15 20 0 13 5 18 15 14 8 -4 15 -12 15 -20z m815 16 c3 -5 -1 -10 -9
-10 -9 0 -16 5 -16 10 0 6 4 10 9 10 6 0 13 -4 16 -10z m-965 -20 c0 -5 -7
-10 -15 -10 -8 0 -15 5 -15 10 0 6 7 10 15 10 8 0 15 -4 15 -10z m410 0 c0 -5
-4 -10 -10 -10 -5 0 -10 5 -10 10 0 6 5 10 10 10 6 0 10 -4 10 -10z m160 -21
c0 -5 -4 -9 -10 -9 -5 0 -10 7 -10 16 0 8 5 12 10 9 6 -3 10 -10 10 -16z m317
-15 c-2 -2 -12 -2 -21 2 -13 5 -14 9 -5 21 11 12 14 12 22 -2 5 -9 7 -19 4
-21z m-1187 12 c0 -11 -19 -15 -25 -6 -3 5 1 10 9 10 9 0 16 -2 16 -4z m580
-6 c0 -5 -4 -10 -10 -10 -5 0 -10 5 -10 10 0 6 5 10 10 10 6 0 10 -4 10 -10z
m1067 -12 c-3 -8 -6 -5 -6 6 -1 11 2 17 5 13 3 -3 4 -12 1 -19z m-2012 3 c3
-5 1 -12 -5 -16 -5 -3 -10 1 -10 9 0 18 6 21 15 7z m775 -1 c0 -5 -4 -10 -10
-10 -5 0 -10 5 -10 10 0 6 5 10 10 10 6 0 10 -4 10 -10z m526 -27 c-10 -10
-19 5 -10 18 6 11 8 11 12 0 2 -7 1 -15 -2 -18z m594 7 c0 -11 -4 -20 -10 -20
-5 0 -10 9 -10 20 0 11 5 20 10 20 6 0 10 -9 10 -20z m-1492 -12 c-6 -18 -28
-21 -28 -4 0 9 7 16 16 16 9 0 14 -5 12 -12z m1232 2 c0 -5 -2 -10 -4 -10 -3
0 -8 5 -11 10 -3 6 -1 10 4 10 6 0 11 -4 11 -10z m-1252 -35 c9 -2 20 -4 25
-4 4 -1 7 -7 7 -15 0 -8 7 -17 16 -20 12 -5 15 -14 10 -36 -4 -23 -2 -30 10
-30 11 0 15 -8 12 -30 -2 -19 3 -35 12 -41 13 -8 13 -11 0 -22 -25 -20 -21
-44 6 -39 18 3 24 0 24 -13 0 -9 9 -19 20 -22 29 -8 24 -63 -6 -63 -8 0 -14
-4 -14 -10 0 -5 -7 -10 -15 -10 -23 0 -19 47 5 53 28 7 15 35 -18 39 -25 3
-60 -8 -72 -23 -3 -3 -15 -11 -27 -18 -18 -9 -25 -8 -41 9 -11 12 -32 24 -48
29 -27 7 -49 34 -22 29 7 -2 11 3 9 12 -2 8 -5 26 -7 39 -1 13 -12 37 -23 52
-12 16 -21 37 -21 47 0 28 30 83 49 89 9 4 19 12 24 19 5 10 14 9 37 -3 17 -8
39 -16 48 -18z m182 25 c0 -5 -4 -10 -10 -10 -5 0 -10 5 -10 10 0 6 5 10 10
10 6 0 10 -4 10 -10z m1386 -5 c4 -8 3 -23 0 -32 -6 -15 -8 -15 -16 -3 -13 20
-12 50 0 50 6 0 13 -7 16 -15z m-2326 -5 c0 -5 -5 -10 -11 -10 -5 0 -7 5 -4
10 3 6 8 10 11 10 2 0 4 -4 4 -10z m1575 -10 c3 -5 2 -10 -4 -10 -5 0 -13 5
-16 10 -3 6 -2 10 4 10 5 0 13 -4 16 -10z m331 -30 c1 -24 -3 -38 -10 -37 -14
2 -26 18 -26 34 0 9 26 43 33 43 1 0 3 -18 3 -40z m-2096 15 c0 -8 -7 -15 -15
-15 -8 0 -15 7 -15 15 0 8 7 15 15 15 8 0 15 -7 15 -15z m280 5 c0 -5 -7 -10
-15 -10 -8 0 -15 5 -15 10 0 6 7 10 15 10 8 0 15 -4 15 -10z m370 -11 c0 -5
-7 -9 -15 -9 -15 0 -20 12 -9 23 8 8 24 -1 24 -14z m1780 1 c0 -21 -15 -27
-25 -10 -7 12 2 30 16 30 5 0 9 -9 9 -20z m-1168 -5 c0 -5 -5 -11 -11 -13 -6
-2 -11 4 -11 13 0 9 5 15 11 13 6 -2 11 -8 11 -13z m168 -6 c0 -5 -7 -9 -15
-9 -15 0 -20 12 -9 23 8 8 24 -1 24 -14z m765 1 c6 -10 -51 -21 -70 -14 -8 4
-15 10 -15 15 0 4 6 6 14 3 8 -3 17 -1 20 4 6 11 43 5 51 -8z m-815 0 c0 -5
-4 -10 -10 -10 -5 0 -10 5 -10 10 0 6 5 10 10 10 6 0 10 -4 10 -10z m1100 0
c0 -5 -2 -10 -4 -10 -3 0 -8 5 -11 10 -3 6 -1 10 4 10 6 0 11 -4 11 -10z
m-2623 -32 c-3 -8 -6 -5 -6 6 -1 11 2 17 5 13 3 -3 4 -12 1 -19z m1693 12 c0
-5 -7 -10 -15 -10 -8 0 -15 5 -15 10 0 6 7 10 15 10 8 0 15 -4 15 -10z m700 0
c0 -5 -5 -10 -11 -10 -5 0 -7 5 -4 10 3 6 8 10 11 10 2 0 4 -4 4 -10z m100 -4
c0 -11 -19 -15 -25 -6 -3 5 1 10 9 10 9 0 16 -2 16 -4z m88 -24 c16 -10 19
-18 12 -27 -5 -6 -7 -15 -3 -18 3 -4 -1 -7 -10 -7 -9 0 -17 -7 -17 -15 0 -8 6
-12 14 -9 19 7 32 -16 15 -27 -38 -24 -77 -1 -48 28 16 16 3 47 -16 39 -8 -3
-15 -1 -15 4 0 6 7 10 15 10 8 0 15 4 15 9 0 5 -7 11 -15 15 -8 3 -15 10 -15
16 0 13 34 4 68 -18z m-2548 8 c0 -5 -2 -10 -4 -10 -3 0 -8 5 -11 10 -3 6 -1
10 4 10 6 0 11 -4 11 -10z m1576 -17 l25 -27 6 23 c5 18 10 21 31 16 32 -8 71
-37 72 -52 0 -21 -21 -25 -35 -7 -10 14 -26 19 -64 19 -38 0 -54 5 -65 20 -13
18 -13 35 0 35 3 0 16 -12 30 -27z m713 18 c11 -7 9 -13 -9 -31 -17 -17 -25
-19 -33 -10 -9 10 -9 14 1 17 6 3 12 11 12 19 0 16 9 18 29 5z m115 -17 c4
-15 4 -29 1 -32 -10 -11 -38 26 -32 42 9 24 24 19 31 -10z m-931 9 c-21 -8
-16 -43 6 -43 10 0 24 -7 31 -15 12 -14 7 -19 -13 -16 -5 1 -6 -3 -2 -9 3 -5
13 -10 21 -10 8 0 14 -9 14 -20 0 -15 7 -20 24 -20 14 0 28 -5 32 -12 5 -8 11
-5 20 7 11 14 18 16 35 9 20 -9 19 -11 -15 -29 -42 -23 -48 -40 -10 -31 25 7
25 6 10 -10 -16 -15 -16 -17 1 -30 27 -20 5 -49 -38 -50 -25 0 -35 -5 -38 -19
-4 -22 -25 -45 -40 -45 -6 0 -11 -4 -11 -9 0 -14 -56 -30 -82 -24 -13 3 -31
12 -40 21 -10 8 -25 12 -33 8 -11 -4 -15 -2 -12 6 2 7 15 12 28 10 23 -3 23
-3 5 11 -20 15 -15 37 10 37 8 0 14 9 14 20 0 20 14 27 23 13 5 -10 2 5 -7 35
-5 13 -3 22 3 22 21 0 11 57 -15 85 -17 18 -23 33 -18 44 4 9 8 21 9 26 1 18
16 35 25 30 5 -3 11 -1 15 5 3 5 18 10 33 9 15 0 21 -3 15 -6z m-598 -28 c0
-10 -6 -20 -12 -22 -8 -3 -13 5 -13 22 0 17 5 25 13 23 6 -3 12 -13 12 -23z
m309 10 c-7 -16 -24 -21 -24 -6 0 8 7 13 27 20 1 1 0 -6 -3 -14z m-1107 -43
c-3 -14 -6 -12 -14 8 -6 14 -8 29 -5 34 7 13 24 -22 19 -42z m2103 18 c0 -5
-7 -10 -15 -10 -8 0 -15 5 -15 10 0 6 7 10 15 10 8 0 15 -4 15 -10z m-1766
-21 c-3 -5 -10 -7 -15 -3 -5 3 -7 10 -3 15 3 5 10 7 15 3 5 -3 7 -10 3 -15z
m1506 17 c0 -3 -4 -8 -10 -11 -5 -3 -10 -1 -10 4 0 6 5 11 10 11 6 0 10 -2 10
-4z m396 -23 c-10 -10 -19 5 -10 18 6 11 8 11 12 0 2 -7 1 -15 -2 -18z m-2131
6 c4 -5 4 -21 1 -35 -9 -33 -43 -33 -52 0 -7 31 1 46 26 46 10 0 22 -5 25 -11z
m1432 -3 c3 -3 1 -6 -5 -6 -6 0 -9 -7 -6 -15 4 -8 1 -15 -5 -15 -6 0 -11 5
-11 10 0 6 -13 10 -30 10 -28 0 -38 9 -24 23 8 7 72 2 81 -7z m141 -6 c-7 -11
-19 -20 -26 -20 -10 0 -10 5 -2 20 6 11 17 20 25 20 13 0 13 -3 3 -20z m-498
0 c0 -5 -2 -10 -4 -10 -3 0 -8 5 -11 10 -3 6 -1 10 4 10 6 0 11 -4 11 -10z
m75 0 c3 -5 2 -10 -4 -10 -5 0 -13 5 -16 10 -3 6 -2 10 4 10 5 0 13 -4 16 -10z
m1155 0 c0 -5 -7 -10 -15 -10 -8 0 -15 5 -15 10 0 6 7 10 15 10 8 0 15 -4 15
-10z m-2020 -10 c0 -5 -4 -10 -10 -10 -5 0 -10 5 -10 10 0 6 5 10 10 10 6 0
10 -4 10 -10z m390 0 c0 -5 -5 -10 -11 -10 -5 0 -7 5 -4 10 3 6 8 10 11 10 2
0 4 -4 4 -10z m800 -5 c0 -12 -19 -12 -23 0 -4 9 -1 12 9 8 7 -3 14 -7 14 -8z
m-1350 -15 c0 -5 -5 -10 -11 -10 -5 0 -7 5 -4 10 3 6 8 10 11 10 2 0 4 -4 4
-10z m1860 0 c0 -5 -4 -10 -10 -10 -5 0 -10 5 -10 10 0 6 5 10 10 10 6 0 10
-4 10 -10z m-485 -10 c3 -5 1 -10 -4 -10 -6 0 -11 5 -11 10 0 6 2 10 4 10 3 0
8 -4 11 -10z m79 1 c7 -11 -37 -41 -59 -41 -13 0 -14 4 -5 21 7 12 18 18 26
15 8 -3 14 -1 14 4 0 12 17 13 24 1z m515 -13 c-9 -18 -8 -24 6 -34 10 -7 14
-18 9 -25 -5 -9 -11 -7 -21 6 -21 30 -16 75 9 75 5 0 3 -10 -3 -22z m-2027
-10 c-2 -10 3 -18 10 -18 19 -1 62 -39 53 -48 -4 -4 -10 -1 -12 6 -3 6 -10 12
-16 12 -8 0 -7 -4 1 -12 20 -20 14 -38 -13 -38 -18 0 -23 4 -19 15 4 10 0 15
-11 15 -11 0 -15 5 -11 15 3 10 -1 15 -13 15 -19 0 -31 18 -31 46 0 11 9 14
33 12 24 -2 31 -7 29 -20z m528 18 c0 -16 -14 -36 -25 -36 -17 0 -27 27 -12
34 16 6 37 7 37 2z m1550 -6 c0 -5 -2 -10 -4 -10 -3 0 -8 5 -11 10 -3 6 -1 10
4 10 6 0 11 -4 11 -10z m-190 -10 c0 -5 -4 -10 -10 -10 -5 0 -10 5 -10 10 0 6
5 10 10 10 6 0 10 -4 10 -10z m-2076 -15 c3 -9 0 -15 -9 -15 -8 0 -15 7 -15
15 0 8 4 15 9 15 5 0 11 -7 15 -15z m826 0 c0 -8 -4 -15 -9 -15 -13 0 -22 16
-14 24 11 11 23 6 23 -9z m395 -11 c19 -29 10 -49 -9 -21 -7 9 -18 17 -25 17
-6 0 -11 7 -11 15 0 24 26 17 45 -11z m1165 5 c0 -11 -4 -17 -10 -14 -5 3 -10
13 -10 21 0 8 5 14 10 14 6 0 10 -9 10 -21z m-42 0 c-2 -6 -8 -10 -13 -10 -5
0 -11 4 -13 10 -2 6 4 11 13 11 9 0 15 -5 13 -11z m170 -24 c-12 -10 -48 -15
-48 -6 0 6 7 11 15 11 8 0 15 8 15 18 1 16 1 16 11 -1 6 -10 9 -20 7 -22z
m-2488 -5 c0 -5 -4 -10 -9 -10 -6 0 -13 5 -16 10 -3 6 1 10 9 10 9 0 16 -4 16
-10z m1580 -20 c0 -5 -4 -10 -10 -10 -5 0 -10 5 -10 10 0 6 5 10 10 10 6 0 10
-4 10 -10z m45 0 c3 -5 1 -10 -4 -10 -6 0 -11 5 -11 10 0 6 2 10 4 10 3 0 8
-4 11 -10z m59 -2 c-3 -4 -9 -8 -15 -8 -5 0 -9 4 -9 8 0 5 7 9 15 9 8 0 12 -4
9 -9z m316 -14 c0 -8 9 -14 20 -14 11 0 20 -4 20 -10 0 -5 -9 -10 -20 -10 -11
0 -20 -7 -20 -16 0 -8 -5 -12 -10 -9 -6 4 -8 16 -4 27 3 12 1 24 -6 28 -7 4
-9 13 -6 19 9 14 26 5 26 -15z m240 5 c0 -11 -4 -17 -10 -14 -5 3 -10 13 -10
21 0 8 5 14 10 14 6 0 10 -9 10 -21z m-2290 -10 c0 -5 -4 -9 -10 -9 -5 0 -10
7 -10 16 0 8 5 12 10 9 6 -3 10 -10 10 -16z m78 1 c-7 -11 -16 -20 -21 -20 -4
0 -3 9 3 20 6 11 15 20 20 20 6 0 5 -9 -2 -20z m345 -9 c-4 -14 24 -14 33 0 9
15 28 -6 21 -24 -3 -8 -17 -16 -30 -19 -19 -4 -28 1 -36 19 -14 32 -14 46 2
40 6 -2 11 -10 10 -16z m2017 -2 c0 -6 -4 -7 -10 -4 -5 3 -10 11 -10 16 0 6 5
7 10 4 6 -3 10 -11 10 -16z m-1110 4 c0 -5 -4 -14 -9 -22 -7 -11 -11 -9 -20 8
-10 18 -9 21 9 21 11 0 20 -3 20 -7z m328 -18 c2 -10 0 -15 -6 -11 -6 3 -13 2
-16 -3 -3 -4 4 -8 16 -7 12 0 23 -5 26 -12 2 -7 0 -12 -5 -11 -20 3 -34 -2
-28 -11 3 -6 -4 -10 -17 -10 -30 0 -85 -36 -66 -43 7 -3 -4 -5 -24 -4 -21 0
-38 2 -38 3 0 14 15 34 26 34 8 0 11 6 8 15 -7 17 11 21 21 5 9 -15 25 -12 25
4 0 9 8 12 25 8 24 -4 25 -2 21 23 -3 16 -3 32 0 37 9 14 29 4 32 -17z m344
-7 c-7 -7 -12 -8 -12 -2 0 14 12 26 19 19 2 -3 -1 -11 -7 -17z m480 7 c0 -5
-5 -11 -11 -13 -6 -2 -11 4 -11 13 0 9 5 15 11 13 6 -2 11 -8 11 -13z m-287
-5 c3 -5 1 -10 -4 -10 -6 0 -11 5 -11 10 0 6 2 10 4 10 3 0 8 -4 11 -10z m125
-40 c-13 -25 -18 -25 -50 0 -19 14 -22 22 -13 31 14 14 33 4 33 -17 0 -8 5
-12 10 -9 6 3 10 16 10 28 1 20 2 20 11 5 7 -12 6 -24 -1 -38z m-1390 18 c0
-16 -3 -19 -11 -11 -6 6 -8 16 -5 22 11 17 16 13 16 -11z m1590 12 c0 -5 -2
-10 -4 -10 -3 0 -8 5 -11 10 -3 6 -1 10 4 10 6 0 11 -4 11 -10z m-1322 -20
c-11 -18 -28 -27 -28 -16 0 16 14 36 26 36 12 0 12 -4 2 -20z m1042 -10 c0 -5
-4 -10 -10 -10 -5 0 -10 5 -10 10 0 6 5 10 10 10 6 0 10 -4 10 -10z m250 0 c0
-5 -4 -10 -10 -10 -5 0 -10 5 -10 10 0 6 5 10 10 10 6 0 10 -4 10 -10z m-2430
-16 c0 -9 -7 -14 -17 -12 -25 5 -28 28 -4 28 12 0 21 -6 21 -16z m1005 -3 c-4
-15 0 -20 17 -23 39 -5 28 -33 -14 -33 -20 0 -34 3 -31 8 2 4 0 7 -5 7 -5 0
-9 7 -9 15 0 8 4 15 9 15 4 0 8 7 8 15 0 8 7 15 16 15 11 0 13 -6 9 -19z m225
9 c0 -5 -4 -10 -10 -10 -5 0 -10 5 -10 10 0 6 5 10 10 10 6 0 10 -4 10 -10z
m-1005 -10 c4 -6 -8 -10 -29 -10 -20 0 -36 5 -36 10 0 6 13 10 29 10 17 0 33
-4 36 -10z m713 -2 c17 -17 15 -48 -2 -48 -22 0 -49 42 -33 52 16 10 21 10 35
-4z m-78 -18 c0 -5 -2 -10 -4 -10 -3 0 -8 5 -11 10 -3 6 -1 10 4 10 6 0 11 -4
11 -10z m1040 -4 c0 -17 -38 -28 -47 -14 -3 7 -1 8 5 4 7 -4 12 -1 12 8 0 9 7
16 15 16 8 0 15 -6 15 -14z m-1688 -19 c-7 -7 -13 -24 -15 -38 -3 -15 -12 -25
-25 -27 -19 -3 -22 2 -22 27 0 26 4 31 24 31 13 0 27 7 30 16 4 9 9 14 13 11
3 -4 1 -13 -5 -20z m1328 19 c0 -3 -4 -8 -10 -11 -5 -3 -10 -1 -10 4 0 6 5 11
10 11 6 0 10 -2 10 -4z m860 -16 c0 -13 -7 -20 -20 -20 -19 0 -27 20 -13 33
13 14 33 6 33 -13z m-440 0 c0 -5 -5 -10 -11 -10 -5 0 -7 5 -4 10 3 6 8 10 11
10 2 0 4 -4 4 -10z m290 -16 c0 -2 -9 -4 -21 -4 -11 0 -18 4 -14 10 5 8 35 3
35 -6z m-1792 -19 c13 -28 13 -28 -40 -39 -34 -8 -43 21 -13 46 28 24 40 22
53 -7z m814 7 c4 -13 -1 -18 -18 -20 -26 -2 -27 -1 -18 22 8 22 31 20 36 -2z
m578 -2 c0 -5 -9 -8 -19 -7 -15 1 -17 4 -9 14 11 13 28 9 28 -7z m-1823 -5 c8
-22 -6 -33 -17 -15 -13 20 -12 30 0 30 6 0 13 -7 17 -15z m1408 5 c-3 -5 -12
-10 -18 -10 -7 0 -6 4 3 10 19 12 23 12 15 0z m465 0 c12 -7 28 -7 44 0 22 8
27 6 37 -12 9 -18 8 -24 -6 -34 -10 -8 -22 -11 -26 -8 -11 7 -11 -27 -1 -44 5
-7 16 -10 24 -7 9 4 18 0 21 -9 4 -9 25 -18 57 -22 27 -4 50 -10 50 -15 0 -5
7 -9 15 -9 8 0 15 -9 15 -20 0 -13 -5 -18 -15 -14 -8 4 -15 12 -15 20 0 8 -7
14 -16 14 -12 0 -14 -5 -9 -17 18 -42 16 -58 -7 -68 -17 -7 -22 -17 -20 -36 2
-21 -4 -27 -34 -38 -19 -7 -33 -15 -30 -18 3 -3 -1 -12 -9 -19 -16 -17 -9 -44
11 -44 8 0 13 -3 13 -7 -5 -28 5 -22 23 17 12 25 20 49 19 53 -1 5 6 7 16 5
12 -2 18 -14 19 -36 1 -29 -5 -37 -28 -33 -4 0 -13 -9 -19 -21 -16 -31 -49
-56 -81 -63 -16 -4 -28 -10 -28 -14 0 -22 -232 -141 -274 -141 -9 0 -16 8 -16
18 0 9 -10 23 -21 31 -20 12 -21 11 -16 -9 4 -16 1 -24 -14 -27 -29 -8 -23
-21 7 -15 19 3 25 1 20 -7 -8 -13 -83 -15 -88 -2 -1 4 -12 5 -23 1 -19 -8 -19
-8 5 -19 23 -10 23 -11 3 -7 -13 2 -23 0 -23 -5 0 -5 -11 -7 -24 -3 -14 3 -38
-2 -57 -12 -28 -14 -61 -17 -179 -17 -80 0 -182 5 -228 12 -98 14 -318 83
-315 98 1 6 -5 9 -15 7 -21 -5 -157 66 -158 84 -3 25 -4 27 -12 15 -10 -15
-96 33 -89 50 8 20 -12 57 -30 57 -13 0 -14 3 -5 12 9 9 15 8 24 -5 11 -15 17
-16 46 -5 17 7 32 17 32 24 0 17 30 74 40 74 4 0 14 -9 21 -19 14 -20 67 -42
55 -23 -12 19 25 71 59 84 19 6 35 16 35 21 0 5 -6 7 -14 4 -61 -24 -96 -29
-110 -18 -12 10 -16 8 -21 -8 -8 -26 -40 -27 -62 -2 -9 11 -20 18 -24 15 -5
-2 -13 5 -19 16 -10 18 -8 22 8 27 12 3 25 20 33 45 l13 39 15 -28 c12 -22 16
-25 19 -10 2 9 9 17 15 17 7 0 22 3 34 6 18 5 25 1 32 -17 5 -14 5 -34 0 -46
-11 -28 -5 -29 21 -3 12 12 18 25 15 30 -4 6 -1 10 4 10 6 0 11 -9 11 -20 0
-11 7 -20 15 -20 8 0 14 3 14 7 -1 5 -1 15 0 23 1 12 3 12 10 2 6 -11 11 -10
25 3 14 14 14 20 4 33 -12 13 -10 14 10 3 12 -6 22 -19 23 -29 0 -10 3 -12 6
-4 7 17 23 15 63 -10 19 -12 42 -23 50 -24 9 -2 34 -11 55 -20 44 -19 46 -19
158 -30 42 -4 77 -11 77 -15 0 -12 77 -12 82 0 2 4 34 11 72 14 41 3 63 1 55
-4 -8 -5 -9 -9 -3 -9 6 0 17 7 25 16 7 8 21 13 31 11 10 -3 18 -2 18 2 0 4 19
14 43 20 61 19 231 109 258 137 27 29 78 33 77 7 -1 -10 2 -29 6 -42 8 -22 6
-23 -26 -16 -18 4 -37 10 -43 13 -19 12 -36 10 -42 -4 -3 -8 -10 -11 -17 -7
-6 4 -5 -1 3 -10 11 -13 17 -15 28 -6 7 7 17 9 21 5 4 -4 -1 -13 -10 -20 -16
-12 -16 -14 8 -24 43 -20 73 -15 80 13 7 28 14 31 32 13 9 -9 12 -9 12 1 0 7
-7 19 -15 27 -20 20 -19 34 1 34 14 0 16 7 11 39 -6 51 0 59 33 41z m-1555
-10 c-3 -5 -10 -10 -16 -10 -5 0 -9 5 -9 10 0 6 7 10 16 10 8 0 12 -4 9 -10z
m180 -8 c0 -18 -20 -15 -23 4 -3 10 1 15 10 12 7 -3 13 -10 13 -16z m81 -3
c19 -21 19 -21 0 -18 -11 2 -20 12 -22 22 -3 22 -1 22 22 -4z m-36 -9 c0 -5
-5 -10 -11 -10 -5 0 -7 5 -4 10 3 6 8 10 11 10 2 0 4 -4 4 -10z m1647 4 c-3
-3 -12 -4 -19 -1 -8 3 -5 6 6 6 11 1 17 -2 13 -5z m-2100 -46 c-3 -8 -6 -5 -6
6 -1 11 2 17 5 13 3 -3 4 -12 1 -19z m557 -7 c18 -19 24 -31 17 -36 -7 -4 -10
-1 -9 7 2 8 -5 12 -17 11 -11 -1 -14 0 -7 3 10 5 9 10 -4 25 -27 30 -11 22 20
-10z m1410 20 c3 -5 -1 -14 -8 -20 -16 -13 -32 2 -21 19 8 12 22 13 29 1z
m203 -21 c0 -18 -3 -26 -8 -18 -6 9 -13 9 -33 0 -14 -6 -28 -8 -30 -3 -9 15
25 51 48 51 19 0 23 -5 23 -30z m38 12 c0 -18 -20 -15 -23 4 -3 10 1 15 10 12
7 -3 13 -10 13 -16z m39 3 c-4 -8 -8 -15 -10 -15 -2 0 -4 7 -4 15 0 8 4 15 10
15 5 0 7 -7 4 -15z m-1748 -24 c-4 -6 -12 -11 -18 -11 -7 0 -7 4 1 13 6 8 9
16 7 19 -1 3 1 2 7 -2 5 -5 6 -13 3 -19z m1524 20 c0 -12 -20 -25 -27 -18 -7
7 6 27 18 27 5 0 9 -4 9 -9z m-1710 -31 c22 0 23 -1 14 -24 -3 -9 -12 -16 -20
-16 -7 0 -17 -12 -20 -26 -5 -21 -11 -25 -30 -21 -20 3 -24 0 -24 -19 0 -13
-4 -24 -10 -24 -5 0 -10 -7 -10 -15 0 -18 -16 -20 -26 -3 -4 6 -2 14 4 16 19
6 14 37 -8 57 -11 10 -20 26 -20 37 0 10 -5 18 -11 18 -6 0 -9 6 -7 13 3 6 27
17 54 23 39 9 53 9 71 -2 12 -8 31 -14 43 -14z m1750 15 c-7 -8 -16 -15 -21
-15 -5 0 -6 7 -3 15 4 8 13 15 21 15 13 0 13 -3 3 -15z m-1546 -20 c-6 -16
-24 -21 -24 -7 0 11 11 22 21 22 5 0 6 -7 3 -15z m-398 -16 c10 -17 -13 -36
-27 -22 -12 12 -4 33 11 33 5 0 12 -5 16 -11z m1904 1 c0 -5 -9 -10 -21 -10
-11 0 -17 5 -14 10 3 6 13 10 21 10 8 0 14 -4 14 -10z m142 -25 c6 -22 3 -34
-9 -45 -9 -8 -13 -10 -9 -3 3 6 1 13 -6 15 -7 3 -13 19 -14 37 -2 42 26 39 38
-4z m42 20 c-4 -8 -11 -15 -16 -15 -6 0 -5 6 2 15 7 8 14 15 16 15 2 0 1 -7
-2 -15z m-124 -4 c0 -5 -7 -12 -16 -15 -8 -3 -13 -10 -10 -15 7 -11 -3 -41
-14 -41 -13 0 -18 53 -6 66 13 15 46 19 46 5z m-385 -10 c7 -12 -32 -34 -45
-26 -6 3 -10 13 -10 21 0 16 45 20 55 5z m-1678 -17 c-3 -3 -12 -4 -19 -1 -8
3 -5 6 6 6 11 1 17 -2 13 -5z m2092 -47 c0 -9 -2 -8 -6 1 -2 6 -10 9 -15 6 -7
-4 -8 -2 -4 5 9 13 26 5 25 -12z m-15 -62 c-3 -6 -12 -15 -22 -21 -15 -10 -17
-7 -18 20 -1 17 3 34 9 38 13 8 37 -21 31 -37z m-1807 -1 c-9 -9 -28 6 -21 18
4 6 10 6 17 -1 6 -6 8 -13 4 -17z m-57 -22 c0 -23 -26 -61 -39 -57 -8 3 -18 0
-23 -7 -6 -10 -8 -10 -8 2 0 8 12 26 28 41 28 28 42 35 42 21z m35 -2 c3 -5 1
-10 -4 -10 -6 0 -11 5 -11 10 0 6 2 10 4 10 3 0 8 -4 11 -10z m1719 -16 c3 -8
10 -13 15 -10 15 10 21 -22 6 -34 -10 -8 -17 -4 -29 21 -19 37 -19 39 -7 39 5
0 12 -7 15 -16z"/>
<path d="M1600 990 c0 -5 5 -10 11 -10 5 0 7 5 4 10 -3 6 -8 10 -11 10 -2 0
-4 -4 -4 -10z"/>
<path d="M1647 944 c-3 -3 -1 -19 5 -35 7 -21 16 -29 34 -29 29 0 29 3 7 41
-16 28 -33 36 -46 23z"/>
<path d="M2111 703 c0 -4 4 -17 9 -28 8 -19 9 -19 9 2 1 12 -3 25 -9 28 -5 3
-10 3 -9 -2z"/>
<path d="M2077 666 c-4 -10 -5 -21 -2 -24 9 -9 17 6 13 25 -3 17 -4 17 -11 -1z"/>
<path d="M1936 662 c-2 -4 4 -8 14 -8 10 0 16 4 14 8 -3 4 -9 8 -14 8 -5 0
-11 -4 -14 -8z"/>
<path d="M2081 614 c0 -11 3 -14 6 -6 3 7 2 16 -1 19 -3 4 -6 -2 -5 -13z"/>
<path d="M931 584 c0 -11 3 -14 6 -6 3 7 2 16 -1 19 -3 4 -6 -2 -5 -13z"/>
<path d="M2065 551 c-3 -5 -1 -12 5 -16 5 -3 10 1 10 9 0 18 -6 21 -15 7z"/>
<path d="M1228 493 c7 -3 16 -2 19 1 4 3 -2 6 -13 5 -11 0 -14 -3 -6 -6z"/>
<path d="M1540 310 c0 -5 5 -10 10 -10 6 0 10 5 10 10 0 6 -4 10 -10 10 -5 0
-10 -4 -10 -10z"/>
<path d="M620 286 c0 -2 7 -6 15 -10 8 -3 15 -1 15 4 0 6 -7 10 -15 10 -8 0
-15 -2 -15 -4z"/>
<path d="M1736 131 c-4 -7 -5 -15 -2 -18 9 -9 19 4 14 18 -4 11 -6 11 -12 0z"/>
<path d="M265 1230 c3 -5 8 -10 11 -10 2 0 4 5 4 10 0 6 -5 10 -11 10 -5 0 -7
-4 -4 -10z"/>
<path d="M0 1086 c0 -14 5 -26 10 -26 6 0 10 9 10 19 0 11 -4 23 -10 26 -6 4
-10 -5 -10 -19z"/>
</g>
</svg>
