<?xml version="1.0" standalone="no"?>
<!DOCTYPE svg PUBLIC "-//W3C//DTD SVG 20010904//EN"
 "http://www.w3.org/TR/2001/REC-SVG-20010904/DTD/svg10.dtd">
<svg version="1.0" xmlns="http://www.w3.org/2000/svg"
 width="16.000000pt" height="16.000000pt" viewBox="0 0 16.000000 16.000000"
 preserveAspectRatio="xMidYMid meet">

<g transform="translate(0.000000,16.000000) scale(0.100000,-0.100000)"
fill="#000000" stroke="none">
<path d="M45 148 c-11 -6 -23 -16 -27 -21 -11 -17 -3 -86 12 -100 7 -6 10 -7
7 -2 -3 7 15 10 50 9 49 -1 55 1 64 23 5 13 9 28 9 33 0 17 -49 62 -59 55 -6
-3 -11 -1 -11 4 0 14 -20 13 -45 -1z m55 -98 c0 -5 -4 -10 -10 -10 -5 0 -10 5
-10 10 0 6 5 10 10 10 6 0 10 -4 10 -10z"/>
</g>
</svg>
