<?xml version="1.0" standalone="no"?>
<!DOCTYPE svg PUBLIC "-//W3C//DTD SVG 20010904//EN"
 "http://www.w3.org/TR/2001/REC-SVG-20010904/DTD/svg10.dtd">
<svg version="1.0" xmlns="http://www.w3.org/2000/svg"
 width="1300.000000pt" height="660.000000pt" viewBox="0 0 1300.000000 660.000000"
 preserveAspectRatio="xMidYMid meet">
<metadata>
Created by potrace 1.15, written by Peter Selinger 2001-2017
</metadata>
<g transform="translate(0.000000,660.000000) scale(0.100000,-0.100000)"
fill="#000000" stroke="none">
<path d="M1865 6562 c33 -5 85 -36 85 -49 0 -7 6 -13 14 -13 15 0 196 -176
196 -191 0 -12 51 -64 70 -72 10 -4 11 -6 2 -6 -7 -1 -27 7 -45 16 -18 9 -43
18 -57 19 -83 9 -92 14 -88 45 5 31 -1 36 -20 17 -10 -10 -15 -10 -22 2 -6 8
-8 21 -5 28 3 7 0 10 -6 7 -6 -4 -8 -13 -5 -21 8 -22 -22 -16 -34 6 -6 11 -15
18 -20 15 -5 -3 -11 -1 -15 4 -3 6 -12 8 -21 4 -8 -3 -25 6 -39 21 -14 15 -35
26 -50 26 -14 0 -25 5 -25 10 0 6 -9 10 -19 10 -11 0 -23 5 -26 10 -3 6 -19
10 -34 10 -34 0 -54 20 -45 46 5 18 5 18 -6 2 -15 -24 -55 -25 -46 -1 6 15 5
15 -13 -1 -11 -10 -18 -23 -15 -27 7 -12 72 -39 93 -39 9 0 28 -13 43 -30 15
-17 42 -34 65 -39 21 -5 32 -9 26 -10 -7 -1 -13 -6 -13 -12 0 -6 8 -8 19 -4
21 6 51 -18 51 -41 0 -8 10 -15 23 -15 16 -1 18 -2 5 -6 -25 -6 -22 -18 5 -19
43 -2 70 -11 81 -26 6 -8 16 -16 21 -18 27 -7 35 -13 35 -26 0 -10 -9 -12 -32
-8 -27 4 -22 0 27 -26 33 -17 71 -37 85 -45 14 -8 33 -15 43 -15 9 0 17 -6 17
-12 0 -18 65 -68 88 -68 10 0 27 -9 37 -20 10 -11 27 -20 37 -20 18 0 48 -21
48 -34 0 -9 91 -90 109 -97 26 -11 125 -110 141 -142 8 -17 21 -33 29 -35 10
-3 11 0 5 9 -5 8 -9 20 -10 27 -2 8 -10 22 -18 31 -9 10 -16 23 -16 30 0 7 -5
9 -11 5 -8 -5 -10 1 -7 17 4 21 0 24 -20 24 -14 0 -27 6 -29 13 -3 6 2 12 10
12 9 0 16 13 19 34 3 28 0 36 -17 41 -18 6 -18 8 -2 12 9 2 17 12 17 20 0 9
-3 13 -7 10 -11 -12 -53 42 -46 60 4 11 3 14 -5 9 -7 -4 -15 0 -19 9 -3 10 0
21 8 25 9 6 6 10 -14 15 -15 4 -27 10 -28 14 -2 15 -7 40 -14 61 -5 15 -2 25
6 31 11 7 10 9 -3 9 -11 0 -18 8 -18 20 0 11 5 20 10 20 6 0 10 5 10 11 0 5
-4 8 -9 4 -13 -7 -33 30 -31 58 4 42 0 57 -15 57 -8 0 -22 17 -31 38 -10 20
-35 54 -56 75 -21 21 -38 42 -38 47 0 6 -6 10 -14 10 -8 0 -16 8 -18 17 -3 15
-23 17 -203 18 -110 0 -191 -1 -180 -3z"/>
<path d="M2688 6534 c15 -19 29 -29 30 -24 2 6 -6 20 -19 30 l-22 20 31 0 c31
0 32 -2 32 -40 0 -33 -3 -40 -20 -40 -21 0 -27 -15 -10 -25 6 -3 10 -13 10
-21 0 -8 11 -27 25 -42 26 -27 33 -52 15 -52 -5 0 -15 9 -22 20 -7 11 -18 20
-25 20 -7 0 -13 6 -13 14 0 8 -7 16 -15 20 -8 3 -15 12 -15 21 0 9 -8 28 -17
43 -10 17 -11 22 -3 15 16 -15 44 -18 35 -4 -3 5 -19 12 -36 16 -17 4 -33 14
-36 23 -10 27 -24 32 -93 31 -62 0 -64 -1 -42 -16 27 -19 28 -30 5 -36 -10 -3
-3 -5 15 -6 24 -1 35 -7 41 -23 5 -13 7 -26 4 -30 -2 -5 5 -8 16 -8 15 0 27
-13 43 -47 12 -27 28 -52 35 -56 7 -4 13 -17 13 -27 0 -11 4 -20 8 -20 17 0
68 -121 63 -152 -1 -9 3 -19 10 -23 8 -6 7 -10 -2 -16 -11 -7 -11 -9 2 -9 19
0 33 -26 19 -35 -6 -4 2 -18 16 -33 28 -28 54 -91 54 -130 0 -13 5 -32 10 -42
6 -11 12 -44 13 -74 2 -31 6 -59 10 -62 11 -11 8 -54 -3 -54 -16 0 -11 -17 6
-24 22 -9 27 -2 26 34 -1 36 7 42 47 34 36 -8 41 -31 9 -44 l-23 -9 23 0 c19
-1 22 -5 17 -21 -4 -12 -2 -20 6 -20 8 0 8 -4 -2 -16 -10 -13 -10 -17 2 -26
11 -7 11 -11 2 -15 -15 -6 -17 -33 -3 -33 14 0 12 -27 -2 -33 -10 -4 -10 -8 2
-16 12 -8 12 -13 0 -35 -7 -14 -19 -26 -27 -26 -16 0 -17 12 -1 28 9 9 10 15
2 20 -7 4 -12 21 -12 37 0 50 -1 55 -18 55 -10 0 -14 6 -11 14 3 8 -2 20 -11
28 -11 9 -14 10 -8 1 4 -7 2 -13 -4 -13 -8 0 -8 -6 0 -21 10 -18 9 -20 -6 -17
-13 2 -19 13 -20 36 -1 18 -6 38 -11 45 -6 6 -13 27 -17 46 -10 52 -68 164
-77 149 -4 -7 -11 -9 -16 -5 -4 4 -2 16 5 27 9 15 8 25 -3 46 -12 24 -15 26
-21 10 -4 -11 -1 -22 7 -27 9 -6 10 -12 4 -16 -13 -10 -18 -43 -7 -43 9 0 26
-52 25 -77 0 -6 13 -17 29 -24 31 -13 33 -36 2 -31 -16 2 -17 1 -4 -8 13 -9
12 -12 -4 -25 -16 -12 -17 -15 -4 -15 9 0 18 7 22 15 6 17 26 20 26 4 0 -16
-26 -39 -47 -40 -10 -1 -4 -4 12 -8 26 -5 30 -10 30 -41 0 -19 6 -41 13 -49
11 -12 11 -15 0 -22 -9 -6 -9 -9 -1 -9 6 0 15 5 18 10 4 6 11 8 16 5 16 -11
10 -23 -17 -29 -24 -6 -25 -9 -12 -24 31 -36 12 -82 -20 -50 -6 6 -14 9 -17 6
-3 -2 10 -16 27 -29 36 -26 52 -77 21 -64 -10 5 -33 10 -50 13 -27 3 -33 9
-33 28 0 13 -5 24 -11 24 -6 0 -9 9 -6 20 3 11 1 20 -4 20 -5 0 -9 11 -9 25 0
16 -7 28 -17 31 -10 3 -26 10 -35 15 -25 13 -38 11 -38 -6 0 -8 8 -15 17 -15
14 0 14 -3 5 -12 -10 -10 -15 -10 -21 1 -11 18 -99 21 -113 4 -7 -8 -15 -10
-22 -4 -6 5 -28 12 -48 16 -22 4 -38 13 -38 21 0 8 -6 11 -15 8 -10 -4 -15 0
-16 12 0 11 -3 14 -5 7 -7 -16 -34 -5 -34 13 0 8 -6 14 -14 14 -7 0 -16 9 -19
20 -3 11 -9 20 -14 19 -23 -4 -33 3 -33 26 0 21 -5 25 -29 25 -16 0 -31 -6
-34 -12 -2 -7 -8 -10 -12 -6 -4 4 -2 15 5 24 12 13 11 17 -1 25 -8 5 -21 6
-29 3 -8 -4 -20 -7 -26 -7 -13 0 -13 -15 -1 -34 5 -8 3 -13 -7 -13 -9 0 -16 5
-16 10 0 6 -4 10 -9 10 -6 0 -8 -8 -6 -18 5 -26 -24 -24 -58 4 l-28 23 30 16
c38 19 42 19 35 -2 -5 -15 -4 -16 5 -3 6 8 11 18 11 23 0 10 -38 9 -44 -2 -3
-5 -15 -11 -26 -14 -17 -4 -18 -2 -9 15 10 18 9 19 -12 8 -19 -11 -21 -10 -16
4 4 9 2 16 -3 16 -6 0 -10 -5 -10 -11 0 -8 -5 -8 -15 1 -8 7 -12 17 -9 22 5 7
1 7 -12 0 -10 -5 -27 -7 -38 -2 -25 9 -30 10 -56 10 -11 0 -20 5 -20 11 0 6 7
9 15 5 8 -3 15 0 15 5 0 6 -9 9 -20 6 -13 -3 -24 1 -29 12 -8 13 -3 20 21 30
22 10 27 16 17 22 -9 6 -10 9 -2 9 15 0 26 35 18 60 -3 11 -13 20 -20 20 -8 0
-18 6 -22 13 -4 6 -17 13 -28 15 -36 5 -44 8 -63 25 -10 9 -22 17 -27 17 -5 0
-17 8 -28 18 -11 9 -17 11 -13 5 8 -14 -3 -17 -28 -7 -9 3 -13 11 -9 17 4 6 1
7 -6 2 -7 -4 -23 -3 -34 3 -12 6 -34 13 -49 16 -17 4 -30 16 -36 33 -8 22 -11
24 -11 8 -1 -15 -3 -17 -10 -6 -6 9 -11 10 -15 3 -6 -10 -71 11 -119 38 -10 6
-22 8 -27 5 -5 -3 -15 3 -22 15 -7 11 -17 20 -22 20 -4 0 -3 -7 4 -15 10 -12
10 -15 -4 -15 -9 0 -16 8 -16 18 0 13 -2 14 -9 3 -5 -7 -14 -10 -21 -6 -6 4
-55 15 -108 24 -63 11 -96 21 -94 29 1 7 -6 12 -16 12 -10 0 -24 6 -31 13 -10
10 -11 9 -6 -5 6 -14 2 -18 -18 -18 -17 0 -27 -7 -32 -22 -12 -37 -11 -43 5
-51 9 -4 3 -5 -12 -2 -20 4 -28 1 -28 -9 0 -19 -32 -26 -75 -16 -19 4 -60 6
-90 4 -43 -3 -57 -1 -61 11 -4 8 -12 15 -20 15 -7 0 -18 8 -23 18 -6 9 -11 12
-11 7 0 -6 5 -16 12 -23 11 -11 2 -17 -24 -13 -3 0 -60 1 -125 2 -108 1 -121
3 -132 21 -14 23 -11 28 18 31 30 2 47 47 30 79 -7 13 -6 16 5 12 8 -3 17 0
21 6 9 14 6 17 -27 25 -24 6 -28 3 -50 -44 -12 -28 -30 -51 -38 -51 -12 0 -12
-2 -2 -9 11 -6 10 -10 -4 -15 -10 -4 -20 -2 -24 4 -5 8 -12 7 -23 -4 -8 -9
-25 -16 -36 -16 -12 0 -21 -5 -21 -10 0 -15 -49 -31 -66 -22 -23 13 3 30 60
41 26 5 48 10 49 12 1 2 8 13 15 24 7 11 15 28 18 38 4 10 17 17 33 18 l26 1
-25 7 c-14 3 -25 12 -25 20 0 8 -10 16 -22 17 -17 3 -24 -4 -33 -31 -6 -18
-16 -36 -23 -39 -8 -3 -7 -5 2 -5 9 -1 3 -10 -14 -25 -29 -25 -75 -39 -99 -30
-14 5 -27 -15 -32 -53 -3 -26 11 -31 20 -8 3 8 10 15 16 15 6 0 8 -4 5 -10 -6
-10 29 -82 53 -108 6 -7 12 -21 12 -31 0 -9 6 -39 13 -67 11 -40 11 -53 1 -62
-8 -8 -15 -8 -19 -2 -3 6 -1 10 5 10 7 0 9 8 5 19 -3 10 -8 34 -10 52 -5 37
-35 99 -48 99 -5 0 -7 -7 -3 -15 3 -9 0 -15 -9 -15 -8 0 -15 5 -15 12 0 6 -3
9 -6 6 -3 -4 2 -18 12 -33 14 -22 15 -28 4 -35 -11 -7 -11 -14 -3 -32 11 -22
12 -22 12 -2 1 12 8 25 17 28 21 8 20 9 32 -36 9 -33 8 -38 -10 -44 -19 -6
-19 -6 -1 -21 17 -14 17 -14 -2 -9 -20 6 -20 6 0 -9 11 -9 21 -11 23 -6 7 21
50 -11 56 -41 9 -45 7 -51 -9 -34 -8 8 -13 21 -10 29 3 7 -2 20 -11 28 -15 12
-16 12 -10 -9 8 -23 -8 -32 -17 -9 -4 9 -6 9 -6 -1 -1 -7 6 -15 14 -18 8 -4
15 -10 15 -16 0 -5 -6 -6 -12 -3 -7 4 -5 0 5 -8 9 -8 17 -19 17 -26 0 -6 5
-11 10 -11 6 0 10 -7 10 -16 0 -10 -5 -14 -16 -10 -8 3 -12 2 -9 -4 3 -6 13
-10 22 -10 11 0 14 8 11 29 -6 40 9 29 17 -12 13 -65 26 -87 54 -88 213 -5
454 -36 534 -68 16 -6 43 -11 61 -11 18 0 36 -3 39 -7 8 -7 14 -8 122 -18 38
-4 79 -13 90 -21 10 -8 29 -14 42 -14 12 0 25 -4 28 -10 3 -5 17 -10 30 -10
13 0 40 -10 60 -22 31 -17 38 -19 46 -7 5 8 6 21 4 30 -3 9 0 16 7 16 7 0 20
4 30 8 11 4 18 1 21 -12 3 -12 5 -8 6 10 1 24 -1 26 -18 17 -26 -13 -31 -13
-31 5 0 8 -8 15 -19 15 -15 0 -19 10 -24 48 -6 52 -1 64 14 42 9 -12 10 -12 5
3 -3 10 -6 21 -6 23 0 3 -5 2 -11 -2 -8 -4 -9 1 -4 17 11 34 25 40 58 22 23
-11 28 -12 24 -1 -2 7 -9 12 -15 11 -5 -1 -22 9 -36 22 -14 13 -28 20 -31 15
-3 -4 1 -11 7 -13 10 -4 10 -6 1 -6 -7 -1 -13 -11 -13 -23 -1 -21 -2 -21 -11
-5 -18 31 1 87 30 87 13 0 14 17 2 24 -5 3 -11 -1 -15 -9 -15 -40 -56 -2 -56
52 0 16 -5 34 -11 40 -6 6 -9 19 -7 29 3 15 8 11 20 -16 9 -19 18 -42 21 -50
3 -8 5 3 4 25 0 22 3 49 7 60 6 16 6 17 -3 5 -7 -10 -11 -11 -11 -2 0 6 -7 12
-15 12 -8 0 -15 6 -16 13 0 6 -5 3 -10 -8 -9 -19 -9 -18 -5 3 3 14 -1 22 -10
22 -8 0 -14 4 -14 9 0 6 9 9 19 8 11 0 17 -5 14 -10 -4 -6 16 -8 48 -5 51 5
52 4 24 -8 l-30 -12 38 -7 c34 -7 36 -9 20 -21 -16 -12 -15 -13 14 -9 18 2 37
6 42 9 5 3 11 -1 15 -9 6 -16 35 -10 48 9 5 6 8 2 8 -10 0 -16 6 -20 31 -18
22 2 29 -2 25 -12 -3 -8 1 -14 9 -14 26 0 16 -18 -15 -29 -16 -5 -30 -15 -30
-20 0 -16 20 -14 20 2 1 6 7 1 15 -13 l15 -25 -6 28 c-6 24 -3 27 21 27 14 0
24 4 21 8 -3 5 1 9 9 9 10 0 13 -9 11 -28 -2 -20 1 -26 10 -22 8 3 14 0 14 -5
0 -6 -10 -13 -22 -15 l-23 -4 23 -2 c22 -1 32 -21 10 -21 -7 0 -5 -5 5 -12 9
-7 18 -25 20 -40 1 -15 6 -31 11 -35 4 -4 -10 -15 -31 -25 -21 -9 -29 -16 -18
-15 11 2 26 6 33 10 14 10 35 -1 27 -13 -3 -5 4 -36 15 -70 11 -34 18 -65 15
-70 -3 -5 -1 -11 4 -14 12 -8 11 -60 -3 -68 -7 -5 -6 -8 5 -8 11 0 16 -11 18
-42 5 -95 9 -110 30 -131 l23 -22 -7 43 c-6 39 -5 42 14 39 29 -4 36 -14 21
-32 -8 -10 -9 -15 -1 -15 14 0 15 -27 1 -32 -5 -1 4 -11 21 -21 l31 -17 -6 26
c-6 21 -4 25 8 21 8 -3 20 0 26 8 9 11 7 12 -9 8 -12 -3 -21 -1 -21 3 0 5 -3
42 -7 83 -4 56 -2 75 8 82 12 7 12 9 0 9 -9 0 -11 8 -7 26 5 19 3 24 -5 18 -9
-5 -10 -1 -7 14 4 15 2 22 -8 22 -18 0 -19 46 -1 53 7 4 6 6 -5 6 -21 1 -36
60 -18 71 8 5 6 9 -6 14 -16 6 -16 8 -4 16 12 8 12 10 -4 10 -12 0 -16 5 -12
15 3 8 1 15 -4 15 -17 0 -12 77 5 84 8 3 15 1 15 -4 0 -6 -5 -10 -11 -10 -5 0
-7 -4 -4 -10 3 -5 17 -10 31 -10 15 0 23 -4 19 -11 -4 -6 -1 -10 6 -8 8 1 23
1 34 0 17 -1 18 -3 5 -12 -12 -9 -10 -10 8 -6 18 4 22 2 18 -9 -7 -17 10 -19
18 -1 4 8 8 9 11 1 3 -6 18 -9 33 -6 24 5 25 3 14 -11 -11 -13 -11 -15 5 -11
10 2 32 -4 50 -15 30 -19 32 -24 30 -71 0 -27 -6 -50 -12 -50 -5 0 -5 -4 2 -8
7 -4 13 -31 15 -60 2 -28 8 -53 13 -56 19 -7 17 -77 -2 -92 -17 -13 -17 -13 2
-14 15 0 20 -7 21 -30 1 -18 -4 -30 -12 -30 -7 0 -15 -4 -18 -8 -3 -5 5 -8 17
-8 16 1 22 -5 24 -26 1 -18 -3 -28 -12 -28 -8 0 -17 -4 -20 -10 -3 -5 0 -7 9
-4 8 3 23 1 33 -5 17 -10 17 -10 -1 -11 -12 0 -16 -5 -12 -15 3 -9 -5 -21 -22
-30 l-27 -16 27 4 c24 4 27 1 26 -22 -1 -14 -9 -31 -18 -38 -13 -11 -12 -12 5
-13 17 0 17 -2 5 -10 -10 -6 -11 -10 -2 -10 6 0 12 -9 12 -20 0 -11 7 -20 15
-20 18 0 19 -11 3 -29 -11 -11 -9 -13 10 -8 21 5 26 -2 25 -40 0 -7 8 -15 18
-18 23 -7 25 -21 5 -28 -10 -4 -13 -1 -9 9 7 18 -4 18 -23 -1 -10 -10 -11 -15
-4 -15 7 0 10 -7 6 -15 -3 -8 -3 -15 0 -15 3 0 12 7 20 15 9 8 19 15 23 15 11
0 8 -44 -3 -53 -6 -4 -1 -7 13 -5 13 2 26 -2 28 -8 4 -13 -41 -59 -58 -59 -7
0 -13 -9 -15 -19 -1 -10 -9 -23 -16 -27 -10 -7 -10 -9 2 -9 11 0 11 -3 2 -12
-10 -10 -17 -10 -33 0 -31 20 -36 6 -9 -23 13 -14 19 -25 14 -26 -5 0 -24 -2
-42 -2 -18 -1 -36 -8 -41 -15 -5 -9 -11 -5 -21 13 -7 14 -17 25 -22 25 -5 0
-22 14 -38 30 -16 17 -35 30 -42 30 -7 0 -22 12 -33 26 -10 14 -27 35 -38 47
-16 19 -17 22 -3 25 9 2 16 8 16 13 0 6 6 7 13 3 6 -4 -1 5 -17 20 -31 30 -37
29 -40 -7 -1 -25 -2 -25 -35 -11 -18 8 -35 14 -37 14 -12 0 11 29 26 33 13 3
20 -1 23 -17 4 -21 4 -21 6 1 0 13 -7 27 -20 33 -20 11 -20 12 -2 25 17 13 17
14 -6 38 -13 14 -30 23 -38 20 -11 -4 -8 -10 11 -26 l26 -21 -26 -17 c-16 -10
-22 -19 -15 -23 6 -4 11 -11 11 -16 0 -12 -51 4 -113 35 -28 14 -57 25 -65 25
-8 0 -33 13 -57 29 -23 16 -59 34 -79 41 -20 6 -57 22 -82 36 -25 13 -57 25
-70 26 -13 1 -24 6 -24 10 0 4 -13 8 -30 8 -16 0 -30 5 -30 10 0 6 -6 10 -13
9 -26 -3 -37 2 -37 18 0 15 -2 14 -15 -3 -8 -11 -15 -14 -15 -6 0 6 -8 12 -17
12 -23 0 -86 23 -94 34 -4 5 -18 9 -33 9 -14 0 -24 2 -22 6 3 4 -22 5 -54 3
-34 -2 -61 1 -65 7 -3 6 -22 11 -42 11 -34 0 -41 -8 -11 -14 62 -12 115 -19
127 -17 7 1 10 -2 7 -8 -4 -5 -1 -13 5 -17 8 -4 9 -3 5 4 -13 22 13 12 29 -10
13 -20 17 -21 26 -8 8 11 12 12 16 2 2 -6 9 -10 13 -7 5 3 12 0 16 -6 4 -8 3
-9 -4 -5 -7 4 -12 2 -12 -4 0 -7 -6 -10 -14 -7 -7 3 -19 0 -26 -6 -10 -9 -11
-9 -6 0 4 7 -1 11 -13 10 -13 -1 -18 -8 -16 -24 2 -19 -1 -21 -17 -12 -10 5
-23 7 -28 4 -6 -3 -10 0 -10 7 0 10 -3 9 -9 -2 -6 -8 -8 -17 -5 -21 11 -19
-27 -15 -40 4 -15 21 -16 21 -14 2 2 -12 -2 -19 -10 -17 -6 1 -12 -2 -12 -8 0
-14 13 -13 28 2 9 9 12 9 12 -1 0 -7 6 -11 15 -8 8 4 17 2 20 -3 6 -9 -8 -14
-27 -11 -5 0 -8 -3 -8 -9 0 -5 5 -10 10 -10 6 0 10 -16 10 -35 l0 -34 -30 17
c-16 9 -31 26 -33 37 -3 11 -5 6 -6 -13 0 -19 -5 -31 -11 -27 -5 3 -10 1 -10
-4 0 -6 5 -11 10 -11 6 0 10 -4 10 -8 0 -4 -17 -7 -37 -5 -36 2 -30 -1 25 -13
13 -2 20 -9 17 -13 -3 -5 -15 -7 -28 -4 -17 5 -19 3 -11 -7 7 -7 21 -9 34 -5
18 6 21 13 18 36 -3 16 0 29 5 29 5 0 7 -17 4 -40 -3 -23 -1 -38 4 -34 5 3 9
0 9 -5 0 -6 -13 -11 -28 -11 -16 0 -31 -3 -35 -6 -11 -11 4 -33 19 -27 16 6
17 -2 4 -32 -8 -18 -9 -19 -9 -1 -1 12 -6 16 -17 12 -12 -5 -15 -2 -10 11 5
13 4 15 -4 7 -15 -15 -3 -41 23 -48 37 -10 47 -7 47 14 0 11 5 20 11 20 6 0 9
-9 6 -20 -3 -11 -1 -18 4 -14 5 3 9 11 9 17 0 7 9 13 20 14 11 1 20 -3 20 -8
0 -13 -39 -53 -65 -67 -11 -6 -14 -12 -7 -12 7 0 20 -6 27 -14 12 -12 12 -15
1 -19 -9 -4 -12 -14 -9 -27 3 -11 2 -20 -3 -19 -24 4 -36 -2 -30 -17 4 -11 2
-15 -7 -11 -18 7 -47 -12 -29 -20 6 -2 9 -10 6 -15 -4 -7 -2 -8 4 -4 6 4 9 13
6 20 -4 10 2 12 19 9 14 -3 28 1 32 8 5 8 4 10 -3 5 -7 -4 -12 -1 -12 9 0 9 5
13 11 9 6 -3 16 0 21 7 7 10 8 8 5 -8 -3 -13 -1 -26 5 -29 5 -3 6 -13 3 -23
-4 -9 -8 -24 -10 -34 -3 -14 -1 -15 16 -7 13 7 25 8 37 1 13 -8 14 -10 2 -11
-13 0 -13 -2 -1 -9 8 -5 16 -16 17 -24 1 -12 -3 -13 -26 -4 -19 7 -26 16 -22
26 4 11 1 13 -14 7 -10 -5 -25 -9 -31 -9 -7 0 -13 -4 -13 -9 0 -5 9 -6 20 -3
11 3 20 2 20 -4 0 -5 -12 -12 -28 -14 -16 -2 -8 -5 21 -6 45 -1 48 -2 42 -23
-7 -23 -7 -23 9 -3 15 20 21 12 17 -22 -1 -8 5 -10 16 -7 14 5 15 4 4 -4 -8
-6 -20 -8 -27 -5 -7 3 -19 1 -26 -3 -7 -5 -23 -7 -35 -5 -13 1 -23 -2 -23 -8
0 -7 26 -9 73 -5 l72 5 -35 -16 c-23 -11 -41 -13 -55 -7 -22 9 -85 -3 -85 -17
0 -4 19 -3 42 3 31 8 42 8 45 -1 3 -7 11 -9 19 -6 8 3 14 0 14 -6 0 -14 -16
-14 -42 0 -15 8 -22 8 -28 -1 -4 -7 -13 -9 -19 -6 -6 4 -11 3 -11 -2 0 -5 -7
-9 -15 -9 -8 0 -15 4 -15 9 0 4 -7 8 -15 8 -8 0 -15 -4 -15 -10 0 -6 -10 -6
-27 1 -23 8 -26 8 -15 -2 14 -15 16 -33 2 -24 -6 3 -10 1 -10 -4 0 -6 7 -11
15 -11 8 0 15 6 15 14 0 9 7 12 20 9 27 -7 35 -22 13 -21 -10 0 -33 -5 -51
-11 -28 -8 -33 -8 -28 4 3 8 1 15 -4 15 -6 0 -10 -7 -10 -15 0 -8 -6 -12 -14
-9 -8 3 -12 12 -9 20 3 8 0 14 -6 14 -6 0 -11 5 -11 10 0 7 6 7 19 0 28 -14
41 -12 41 6 0 14 -3 14 -15 4 -13 -11 -14 -10 -9 4 3 9 1 16 -6 16 -6 0 -8 -4
-5 -10 3 -5 1 -10 -4 -10 -6 0 -11 8 -12 18 0 13 -2 13 -9 -4 -5 -12 -13 -25
-19 -29 -6 -3 -9 -10 -6 -15 3 -4 -2 -13 -10 -20 -22 -18 -18 3 6 34 12 15 19
29 16 32 -3 3 -13 -6 -23 -20 -16 -26 -18 -26 -42 -10 -13 9 -22 11 -18 6 3
-6 2 -13 -3 -16 -6 -4 -6 -18 -1 -35 4 -17 4 -34 -2 -42 -8 -11 -9 -10 -4 4 8
24 -9 21 -26 -5 -15 -22 -15 -22 -10 10 3 25 1 32 -12 32 -10 0 -16 9 -17 23
-1 18 -4 15 -17 -15 -10 -21 -21 -38 -25 -38 -5 0 -7 3 -5 8 2 4 10 20 18 35
10 21 11 33 3 45 -14 23 4 62 31 63 18 1 18 2 -4 8 -19 6 -27 3 -32 -11 -8
-19 -33 -24 -43 -8 -4 6 1 7 12 4 14 -4 15 -4 4 4 -11 8 -10 12 5 21 11 6 15
10 9 10 -23 0 -47 -28 -40 -48 3 -12 10 -19 15 -16 5 3 11 1 15 -5 3 -5 1 -10
-5 -10 -6 0 -9 -4 -5 -10 3 -5 12 -7 20 -3 23 8 18 -15 -6 -28 -15 -8 -19 -8
-15 0 11 17 -5 36 -16 20 -7 -10 -8 -8 -3 7 3 13 0 28 -9 36 -18 18 -46 84
-39 91 3 3 -3 4 -14 3 -10 -2 -25 2 -33 8 -13 10 -13 9 -1 -6 8 -11 9 -18 3
-18 -7 0 -9 -7 -5 -17 4 -11 3 -14 -5 -9 -7 4 -12 2 -12 -3 0 -6 4 -11 9 -11
9 0 38 31 34 37 -2 1 0 2 5 1 4 0 6 -9 4 -18 -2 -10 4 -20 13 -23 8 -4 15 -11
15 -17 0 -6 -5 -8 -12 -4 -7 4 -8 3 -4 -4 9 -15 -6 -16 -20 -2 -7 7 -11 6 -11
-4 0 -8 4 -13 9 -10 4 3 8 -3 8 -13 1 -16 2 -16 13 -2 7 9 18 14 25 12 15 -6
16 -33 2 -33 -6 0 -10 -7 -8 -16 2 -10 -4 -19 -12 -21 -13 -4 -13 -3 0 6 13 9
12 11 -5 11 -17 0 -17 2 -5 10 12 8 9 10 -12 10 -21 0 -28 5 -28 19 0 11 -5
23 -11 27 -8 5 -10 0 -6 -17 9 -37 -1 -46 -48 -40 -5 1 -3 6 5 11 13 8 12 10
-3 10 -26 0 -11 20 16 21 18 1 18 2 4 6 -26 7 -49 -16 -42 -41 6 -20 5 -20 -8
-3 -8 10 -12 27 -9 39 3 14 1 19 -6 14 -8 -5 -10 -2 -6 8 3 9 11 13 18 9 6 -4
6 -1 -2 9 -10 13 -10 17 4 22 22 9 23 8 17 -13 -6 -23 14 -38 30 -22 8 8 6 11
-9 11 -17 1 -16 3 6 16 14 8 17 13 8 10 -10 -3 -20 -1 -23 4 -4 6 -1 10 6 10
7 0 10 3 7 6 -4 3 -16 0 -28 -6 -26 -14 -43 2 -36 32 2 10 -1 15 -8 12 -7 -3
-12 -15 -11 -27 1 -12 -3 -29 -8 -37 -9 -12 -9 -13 3 -2 23 20 35 14 15 -8
-14 -15 -21 -17 -32 -9 -7 7 -16 9 -20 5 -3 -3 -2 -6 3 -6 5 0 10 -9 11 -19 1
-13 -3 -18 -13 -14 -7 3 -12 8 -10 12 3 4 1 13 -3 20 -5 7 -9 -131 -10 -307
l-2 -321 26 -13 c23 -13 24 -15 10 -33 -13 -17 -16 -18 -25 -5 -7 11 -10 6
-10 -24 0 -33 2 -37 15 -26 17 14 20 24 5 15 -18 -11 -10 4 15 30 14 14 34 25
43 25 15 0 15 2 2 10 -13 9 -13 11 0 20 11 8 7 9 -15 5 -28 -6 -27 -4 9 14 40
21 74 29 46 11 -16 -10 -9 -13 25 -11 17 1 17 0 -3 -9 -24 -10 -22 -30 4 -30
8 0 13 4 10 8 -3 5 1 9 8 9 8 0 12 -6 9 -13 -5 -15 -31 -26 -43 -19 -5 3 -11
2 -14 -3 -5 -9 10 -13 59 -13 17 -1 24 -3 18 -6 -7 -2 -13 -11 -13 -19 0 -8
-6 -14 -12 -14 -9 0 -8 -4 2 -10 8 -5 11 -10 5 -10 -5 0 -3 -5 5 -10 12 -8 12
-10 -5 -10 -17 0 -17 -2 -5 -10 10 -6 11 -10 3 -10 -9 0 -10 -7 -3 -26 12 -31
12 -37 2 -30 -5 3 -9 -1 -9 -9 0 -8 4 -15 9 -15 4 0 8 5 8 10 0 6 7 10 15 10
18 0 20 -17 3 -23 -10 -3 -9 -8 2 -23 13 -17 13 -18 0 -8 -11 8 -19 6 -32 -8
-19 -19 -10 -26 9 -7 8 8 11 6 10 -7 -1 -11 4 -18 11 -16 8 1 11 -2 7 -8 -3
-6 -10 -8 -14 -6 -4 3 -12 -4 -19 -14 -9 -14 -9 -21 0 -26 6 -4 8 -3 4 4 -3 6
-1 14 5 18 9 5 10 0 6 -17 -4 -13 -7 -32 -7 -41 0 -10 -4 -18 -10 -18 -5 0 -7
6 -4 14 6 17 -11 30 -27 20 -8 -4 -7 -9 2 -15 11 -7 11 -9 -1 -9 -13 0 -13 -1
0 -10 13 -9 13 -10 0 -11 -8 -1 -24 -1 -35 0 -18 1 -18 0 2 -11 20 -10 22 -17
19 -63 -3 -46 -2 -52 14 -48 10 3 21 0 24 -5 4 -6 -2 -8 -14 -5 -13 3 -20 0
-21 -8 -3 -35 -5 -40 -14 -47 -11 -7 -14 -72 -4 -72 3 0 6 -18 7 -40 2 -31 -1
-38 -13 -34 -17 7 -21 -11 -4 -21 6 -5 4 -12 -8 -22 -10 -8 -12 -12 -6 -8 8 4
13 0 13 -9 0 -9 -8 -16 -19 -16 -14 0 -18 -5 -14 -20 5 -19 -10 -26 -40 -21
-5 1 -6 -3 -2 -9 3 -6 11 -8 16 -5 5 4 9 3 9 -2 0 -4 -11 -13 -24 -19 l-23
-11 -2 136 c-1 74 -4 137 -7 140 -2 2 -4 -143 -4 -323 0 -199 4 -325 9 -321 5
3 13 1 16 -5 4 -6 1 -9 -6 -8 -8 2 -14 -9 -15 -27 -2 -22 -1 -26 6 -15 8 12
10 10 10 -8 0 -13 -4 -21 -8 -18 -4 2 -8 -12 -8 -33 0 -35 1 -37 28 -33 16 3
28 0 28 -7 0 -6 -11 -11 -25 -11 -24 0 -25 -2 -26 -70 0 -38 -1 -86 -1 -106
-1 -34 1 -37 31 -40 18 -2 46 3 63 12 16 9 27 11 24 5 -4 -6 -2 -11 3 -11 6 0
11 -7 11 -15 0 -8 5 -15 12 -15 6 0 8 -3 5 -7 -4 -3 -17 2 -28 13 l-22 19 15
-25 c8 -14 14 -31 13 -37 -2 -7 -3 -25 -4 -39 0 -14 -5 -23 -10 -19 -5 3 -12
1 -16 -5 -10 -16 -25 -12 -25 7 0 15 -1 15 -18 0 -21 -19 -37 -23 -26 -6 4 7
0 10 -11 7 -13 -2 -18 -13 -19 -41 -1 -20 3 -37 7 -37 5 0 5 -5 2 -11 -4 -5
-9 -400 -11 -877 l-5 -867 1127 3 c1031 2 1128 4 1139 19 9 12 23 15 61 10 26
-3 50 -10 52 -16 5 -14 262 -15 262 -1 0 6 7 10 15 10 8 0 15 -4 15 -10 0 -7
1715 -10 5125 -10 l5125 0 0 3264 c0 2602 3 3265 13 3270 6 2 -2309 5 -5145 5
l-5158 -1 28 -34z m102 -14 c0 -5 7 -10 15 -10 21 0 19 -12 -5 -38 -12 -12
-16 -22 -11 -22 5 0 13 4 16 10 4 6 10 6 18 0 57 -46 76 -60 85 -60 16 0 22
-29 16 -70 -4 -25 -1 -45 9 -61 11 -16 17 -57 19 -129 3 -58 12 -149 22 -203
18 -95 16 -135 -4 -122 -6 4 -8 10 -5 15 3 5 1 11 -5 15 -5 3 -10 22 -10 41 0
22 -6 37 -15 40 -8 4 -15 17 -15 30 0 17 -6 24 -19 24 -13 0 -18 7 -18 26 0
15 -5 29 -10 33 -6 3 -10 13 -11 21 -2 25 -26 90 -34 90 -5 0 -8 13 -8 29 0
16 -7 34 -15 41 -18 15 -45 68 -45 89 0 9 13 -3 28 -26 25 -39 62 -58 62 -32
0 6 -7 9 -15 5 -8 -3 -15 -1 -15 4 0 6 6 10 13 11 10 0 10 2 0 6 -8 2 -13 22
-13 44 0 21 -4 39 -10 39 -5 0 -10 14 -10 31 0 17 -9 42 -20 56 -24 31 -27 83
-5 83 8 0 15 -4 15 -10z m-600 -1030 c0 -14 7 -20 21 -20 30 0 61 -19 56 -35
-3 -7 1 -12 11 -11 11 1 16 -5 14 -18 -3 -14 1 -17 12 -13 17 7 56 -24 56 -43
0 -6 14 -24 30 -42 17 -17 30 -35 30 -41 0 -5 11 -20 25 -33 15 -14 27 -37 28
-54 1 -16 6 -30 11 -30 13 0 46 -41 46 -57 0 -11 3 -11 14 -1 9 8 10 15 4 19
-17 11 1 29 20 22 34 -13 60 -57 40 -69 -15 -9 -3 -80 16 -99 20 -20 32 -65
20 -74 -5 -3 -10 -26 -11 -49 -1 -39 1 -43 18 -39 12 3 19 0 19 -9 0 -11 4
-12 19 -4 29 15 58 12 65 -6 6 -15 -16 -68 -33 -78 -4 -3 -6 -17 -3 -31 2 -14
0 -25 -5 -25 -5 0 -10 -12 -11 -27 -3 -40 -15 -47 -79 -44 -74 2 -93 8 -93 29
0 12 3 13 12 4 16 -16 53 -15 67 2 7 8 11 36 9 63 -3 45 -5 48 -32 50 -32 2
-37 6 -54 45 -9 22 -9 30 2 40 10 10 10 19 -2 50 -8 21 -19 38 -24 38 -4 0 -8
6 -8 13 0 6 -14 27 -30 46 -19 21 -30 45 -30 63 0 16 4 27 9 24 19 -12 39 5
35 31 -3 15 -1 22 6 18 5 -3 10 -1 10 6 0 7 -10 9 -26 6 -20 -3 -27 0 -34 17
-4 13 -3 24 4 28 8 6 8 8 -1 8 -7 0 -17 -8 -22 -17 -9 -15 -11 -13 -12 12 -1
17 -3 23 -6 13 -2 -10 -9 -18 -14 -18 -6 0 -2 13 8 30 13 23 14 33 5 42 -9 9
-14 6 -22 -13 -10 -24 -10 -24 -5 3 3 15 1 30 -5 33 -5 3 -10 18 -10 33 0 25
-1 25 -15 6 -14 -19 -14 -18 -15 4 0 13 -6 22 -16 22 -13 0 -15 8 -12 35 4 36
-7 48 -16 18 -4 -15 -5 -15 -4 2 1 38 -2 45 -18 45 -9 0 -12 -5 -8 -12 9 -14
-26 10 -38 27 -5 6 -8 4 -8 -5 0 -8 -9 3 -20 25 -22 43 -25 65 -10 65 6 0 10
-9 10 -20z m206 -973 c16 -9 19 -57 3 -57 -5 0 -8 -4 -5 -9 4 -5 0 -11 -6 -13
-8 -3 -13 -23 -13 -51 0 -43 1 -46 22 -43 15 3 20 0 17 -9 -3 -7 -1 -16 5 -20
20 -12 12 -53 -14 -73 -14 -11 -25 -25 -25 -31 0 -6 -7 -11 -15 -11 -11 0 -13
-8 -8 -32 3 -18 9 -37 13 -43 15 -21 29 -75 19 -75 -5 0 -9 -16 -9 -35 0 -19
-4 -35 -8 -35 -14 0 -32 24 -32 42 0 10 -8 22 -17 25 -23 9 -43 29 -43 42 0 6
-4 11 -9 11 -11 0 -20 46 -13 72 3 13 11 18 22 15 15 -4 16 0 7 37 -11 48 -46
127 -61 139 -8 6 -7 10 2 14 18 7 14 23 -6 23 -10 0 -19 6 -19 13 0 6 -4 20
-8 30 -4 10 -3 17 3 17 6 0 12 -10 14 -22 2 -11 11 -22 21 -24 10 -1 17 3 15
9 -3 17 33 85 48 91 7 3 16 -4 19 -14 4 -11 12 -17 20 -13 8 3 12 9 10 14 -3
4 2 16 12 27 10 10 20 13 22 7 2 -5 10 -14 17 -18z m8024 -389 c0 -13 16 -48
35 -78 19 -30 35 -64 35 -75 0 -12 11 -35 25 -51 14 -16 28 -39 31 -51 4 -13
10 -23 15 -23 5 0 9 -7 9 -16 0 -14 18 -55 57 -129 30 -56 63 -132 63 -143 0
-6 4 -12 9 -12 5 0 11 -8 15 -17 6 -21 25 -51 44 -71 6 -7 12 -17 12 -22 0 -5
6 -15 13 -22 18 -21 35 -53 51 -98 l14 -40 -127 0 -126 0 -24 48 c-14 26 -36
62 -49 81 -14 18 -28 48 -31 65 l-7 31 -185 3 -186 2 -19 -36 c-10 -20 -31
-50 -46 -66 -16 -17 -28 -36 -28 -43 0 -8 -9 -30 -21 -49 l-21 -36 -74 0 c-83
0 -90 8 -53 65 11 17 22 38 25 48 4 9 9 17 13 17 4 0 15 17 25 38 10 20 22 44
27 52 5 8 14 26 20 40 6 14 15 32 20 40 5 8 12 22 15 30 25 65 53 119 76 145
33 36 128 219 128 246 0 10 5 19 10 19 6 0 10 7 10 15 0 8 3 15 8 15 7 0 35
50 46 83 4 14 18 17 76 17 66 0 70 -1 70 -22z m-3780 -183 l0 -185 200 0 200
0 0 185 0 185 120 0 120 0 0 -425 0 -425 -120 0 -120 0 0 200 0 200 -200 0
-200 0 0 -200 0 -200 -110 0 -110 0 0 425 0 425 110 0 110 0 0 -185z m1102
-122 c4 -336 13 -395 60 -420 98 -51 116 -57 169 -57 31 -1 67 4 80 10 13 6
35 17 49 23 14 6 34 17 45 23 11 7 22 14 24 15 2 1 12 33 22 70 16 59 18 107
19 356 l0 287 85 0 85 0 0 -320 c0 -181 -4 -320 -9 -320 -5 0 -16 -19 -25 -42
-18 -45 -84 -113 -120 -124 -12 -3 -29 -13 -39 -22 -40 -35 -253 -53 -381 -32
-64 10 -175 58 -210 90 -11 11 -31 28 -43 38 -43 36 -46 61 -51 405 l-4 327
120 0 121 0 3 -307z m1107 265 c7 -24 18 -50 25 -58 6 -8 18 -32 25 -54 7 -21
22 -49 33 -62 23 -25 37 -49 66 -109 10 -22 30 -51 44 -65 14 -14 38 -52 53
-85 16 -33 36 -70 45 -82 17 -22 17 -22 29 20 14 50 43 107 53 107 5 0 8 5 8
10 0 11 39 70 52 80 3 3 10 19 14 35 3 17 24 56 45 87 22 32 39 60 39 63 0 3
9 15 20 28 11 12 27 31 37 41 9 11 19 33 22 50 l7 31 122 3 122 3 0 -426 0
-425 -125 0 -125 0 0 255 c0 254 0 255 -20 238 -11 -10 -20 -22 -20 -28 0 -6
-9 -17 -20 -25 -11 -8 -20 -20 -20 -27 0 -7 -4 -13 -8 -13 -5 0 -19 -20 -31
-45 -12 -24 -26 -47 -32 -50 -5 -4 -9 -14 -9 -23 0 -9 -6 -27 -13 -39 -6 -12
-22 -40 -34 -62 -12 -22 -32 -52 -45 -66 -13 -14 -28 -45 -33 -68 -10 -39 -13
-42 -50 -45 -42 -4 -85 14 -85 35 0 7 -4 13 -10 13 -5 0 -17 17 -27 38 -9 20
-23 42 -29 47 -7 6 -25 35 -41 65 -15 30 -31 57 -35 58 -5 2 -8 12 -8 22 0 9
-6 23 -14 29 -7 6 -16 25 -20 41 -3 17 -21 55 -41 85 -19 31 -35 58 -35 61 0
3 -7 12 -15 20 -13 14 -15 -14 -15 -250 l0 -266 -75 0 -75 0 0 425 0 425 118
0 119 0 12 -42z m2284 22 c9 -11 17 -25 17 -30 0 -5 12 -17 28 -27 15 -10 45
-37 67 -62 22 -24 51 -53 64 -65 61 -53 121 -115 121 -125 0 -6 6 -11 13 -11
15 0 97 -84 97 -99 0 -6 5 -11 11 -11 6 0 30 -21 54 -47 l44 -48 1 273 0 272
80 0 80 0 0 -425 0 -425 -81 0 -80 0 -55 56 c-30 31 -54 60 -54 65 0 5 -5 9
-11 9 -14 0 -31 18 -48 53 -8 15 -17 27 -21 27 -11 0 -130 120 -130 131 0 5
-4 9 -10 9 -5 0 -10 6 -10 13 -1 6 -36 44 -80 82 -43 39 -79 77 -79 86 -1 9
-8 22 -16 29 -13 11 -15 -20 -15 -274 l0 -286 -80 0 -80 0 0 425 0 425 78 0
c65 0 80 -3 95 -20z m-10133 -464 c12 -41 31 -66 50 -66 6 0 13 -6 16 -14 7
-18 84 -29 143 -21 40 6 51 13 89 61 26 33 51 54 63 54 11 0 18 -4 15 -9 -3
-4 6 -13 20 -20 22 -10 25 -15 19 -44 -9 -41 -13 -47 -29 -47 -8 0 -19 -6 -25
-14 -7 -8 -50 -20 -102 -27 -60 -9 -89 -17 -89 -26 0 -7 9 -13 20 -13 11 0 20
-7 20 -15 0 -18 -5 -18 -31 -5 -10 6 -19 19 -19 29 0 14 -10 20 -42 25 -23 4
-46 2 -51 -3 -6 -6 -2 -8 12 -4 12 3 21 1 21 -6 0 -6 -5 -11 -11 -11 -5 0 -8
-4 -4 -9 8 -14 -15 -25 -27 -13 -6 6 -16 8 -23 6 -7 -3 -16 -1 -20 5 -3 6 -16
11 -28 11 -12 0 -34 6 -49 14 -23 12 -26 12 -21 0 7 -18 -2 -18 -30 1 -12 8
-31 15 -42 15 -63 3 -83 6 -79 12 3 4 -9 5 -26 3 -16 -3 -44 -7 -61 -10 -18
-2 -29 -2 -25 2 3 3 1 12 -4 18 -8 9 -5 14 10 18 11 3 18 2 16 -2 -3 -4 29 -6
70 -4 53 2 73 0 68 -8 -4 -8 3 -9 25 -4 17 4 31 3 31 -2 0 -4 10 -8 23 -9 24
-1 66 -9 97 -19 15 -5 20 -2 20 10 0 11 -5 15 -14 12 -8 -3 -17 0 -19 7 -3 8
-26 17 -50 20 -49 7 -57 18 -57 71 0 34 24 58 65 67 44 8 53 4 65 -36z m1310
-415 c49 -26 49 -45 -2 -91 -33 -30 -52 -39 -79 -40 -53 0 -74 27 -65 87 3 26
12 50 19 55 22 14 92 8 127 -11z m-870 -45 c0 -8 -4 -18 -10 -21 -5 -3 -10 1
-10 10 0 14 -3 14 -29 1 -32 -17 -43 -38 -34 -63 4 -11 3 -14 -5 -9 -9 6 -9 1
0 -18 13 -30 26 -33 36 -8 4 9 14 18 22 20 10 2 6 -6 -9 -22 -14 -15 -30 -25
-35 -23 -6 3 -19 0 -28 -4 -20 -11 -49 -1 -47 15 4 30 -2 37 -23 30 -13 -4
-29 -15 -36 -25 -7 -11 -22 -19 -32 -19 -25 0 -36 -20 -19 -32 11 -7 11 -11 1
-15 -6 -2 -9 -10 -6 -15 4 -6 2 -8 -3 -5 -6 4 -13 20 -15 36 -2 17 -1 28 4 25
4 -3 7 7 6 21 -2 22 -4 24 -14 11 -6 -9 -17 -16 -25 -16 -20 1 -54 28 -45 37
4 5 15 -1 23 -12 15 -19 15 -19 9 8 -6 27 8 39 17 15 3 -7 6 -3 6 9 1 31 54
44 73 18 9 -12 -1 -47 -16 -57 -7 -5 -4 -8 7 -8 9 0 17 6 17 14 0 7 8 20 17
27 11 10 14 10 9 2 -4 -8 -1 -13 8 -13 9 0 16 4 16 10 0 5 7 7 15 4 8 -4 15
-1 15 6 0 6 5 8 10 5 6 -4 9 -14 8 -22 -2 -9 3 -18 10 -20 9 -4 10 1 3 19 -10
28 9 56 54 81 38 20 55 21 55 3z m-441 -68 c-4 -32 2 -49 14 -42 6 4 9 4 5 -1
-4 -4 -3 -14 3 -21 16 -19 -15 -12 -35 9 -18 18 -36 15 -36 -6 0 -7 4 -6 10 3
8 13 10 12 10 -3 0 -10 3 -16 8 -13 4 2 16 -2 27 -10 10 -8 13 -14 7 -14 -7 0
-12 -4 -12 -10 0 -14 27 -12 34 3 4 6 4 2 2 -11 -2 -12 0 -19 5 -16 6 3 17 3
27 -1 14 -5 14 -7 2 -16 -13 -9 -13 -10 0 -6 8 2 14 10 12 17 -2 8 3 10 13 7
8 -4 15 -2 15 3 0 19 22 10 27 -11 4 -16 8 -17 14 -7 7 10 9 10 9 -2 0 -9 -6
-22 -12 -29 -11 -11 -10 -12 0 -6 11 6 12 3 3 -13 -6 -12 -17 -24 -24 -28 -8
-5 -7 -2 2 9 12 15 11 17 -3 17 -9 0 -16 -7 -16 -15 0 -12 -7 -14 -26 -9 -21
5 -25 4 -19 -6 6 -9 4 -11 -4 -5 -8 4 -18 -1 -27 -14 -8 -12 -23 -21 -32 -20
-13 0 -12 3 6 11 12 6 22 15 22 20 0 12 -7 10 -35 -8 -22 -15 -25 -15 -31 -1
-3 9 -12 13 -21 10 -11 -4 -14 -2 -9 5 4 7 14 12 23 12 9 0 13 6 10 15 -5 12
-1 12 21 4 14 -6 31 -14 37 -19 8 -7 10 -1 7 20 -2 17 -9 30 -14 30 -5 0 -6
-5 -2 -12 4 -7 3 -8 -4 -4 -17 10 -15 26 4 26 13 0 14 3 4 14 -6 8 -17 13 -25
10 -7 -3 -21 5 -30 18 -9 13 -19 19 -21 13 -16 -38 -49 -42 -56 -7 -3 13 -5
11 -10 -6 -4 -13 -4 -21 -1 -18 9 9 43 -13 43 -28 0 -18 -27 -28 -36 -14 -4 7
-3 8 4 4 7 -4 12 -1 12 9 0 13 -6 16 -24 11 -16 -4 -26 -1 -30 10 -3 8 -2 12
4 9 6 -3 15 6 20 20 6 15 19 29 30 32 16 4 17 8 7 24 -16 25 0 37 19 13 8 -10
13 -14 10 -7 -4 6 -2 14 4 18 6 4 7 12 4 18 -5 8 -3 8 7 0 16 -16 33 -17 23
-2 -3 6 0 15 7 20 18 12 20 11 18 -3z m7721 -858 c0 -215 -1 -230 -18 -230
-11 0 -22 11 -28 27 l-9 26 -25 -26 c-21 -23 -34 -27 -81 -27 -52 0 -59 3 -81
33 -43 55 -53 98 -40 158 17 71 66 120 128 127 39 4 49 1 75 -24 l29 -28 0 97
c0 97 0 97 25 97 l25 0 0 -230z m740 0 c0 -211 -7 -272 -24 -205 l-6 25 -38
-25 c-52 -36 -139 -36 -178 0 -32 30 -47 97 -38 170 14 106 130 160 218 100
l36 -24 0 94 c0 78 3 95 15 95 13 0 15 -32 15 -230z m-2410 195 c0 -13 -21
-15 -125 -15 l-125 0 0 -90 0 -90 95 0 c57 0 95 -4 95 -10 0 -6 -38 -10 -95
-10 l-95 0 0 -90 0 -90 125 0 c104 0 125 -2 125 -15 0 -13 -23 -15 -150 -15
l-150 0 0 220 0 220 150 0 c127 0 150 -2 150 -15z m520 -125 c47 0 60 -3 60
-15 0 -12 -13 -15 -60 -15 l-60 0 0 -107 c0 -60 4 -113 8 -119 14 -20 43 -24
72 -9 21 11 31 12 36 3 11 -18 -26 -38 -71 -38 -56 0 -65 22 -65 160 l0 110
-25 0 c-32 0 -33 16 -1 24 23 6 33 30 38 95 1 14 3 0 5 -31 l4 -58 59 0z m357
-1 c22 -19 41 -60 45 -99 l3 -35 -117 -3 -117 -3 6 -32 c16 -86 69 -121 147
-96 22 7 47 17 54 22 16 13 24 4 16 -17 -9 -25 -46 -36 -115 -36 -45 0 -64 5
-78 19 -35 35 -54 84 -55 142 -1 45 5 64 27 98 15 23 38 46 50 51 28 12 114 5
134 -11z m386 -8 c20 -20 22 -34 25 -156 3 -118 2 -135 -12 -135 -14 0 -16 17
-16 113 0 128 -10 157 -57 170 -41 12 -73 4 -106 -27 -26 -24 -27 -28 -27
-141 0 -108 -1 -115 -20 -115 -19 0 -20 7 -20 155 0 127 3 155 14 155 8 0 19
-12 24 -27 6 -16 11 -22 11 -15 1 6 6 12 11 12 6 0 20 10 31 21 18 18 30 21
71 17 33 -4 57 -13 71 -27z m726 11 c3 -5 13 -11 23 -15 16 -6 51 -104 42
-119 -3 -4 -61 -8 -129 -8 l-124 0 6 -37 c13 -82 73 -116 160 -93 26 7 54 18
61 24 11 8 13 5 10 -14 -4 -29 -29 -38 -116 -39 -41 -1 -71 4 -86 14 -82 54
-70 258 18 296 25 10 126 4 135 -9z m1229 -22 c23 -22 31 -41 34 -73 l3 -42
-128 -3 -127 -3 6 -26 c10 -38 60 -90 100 -103 24 -8 43 -8 73 1 23 7 41 15
41 20 0 4 7 9 15 13 10 4 15 -1 15 -14 0 -53 -156 -68 -215 -22 -44 35 -65 77
-65 130 0 46 17 102 32 102 3 0 19 11 35 24 35 30 57 36 109 31 30 -3 51 -13
72 -35z m576 30 c14 -5 26 -17 26 -26 0 -12 -5 -14 -17 -8 -10 5 -40 8 -68 7
-38 -2 -54 -7 -67 -24 -10 -11 -18 -25 -18 -30 0 -14 43 -49 59 -49 31 0 91
-21 107 -37 21 -22 13 -112 -13 -130 -9 -7 -45 -13 -79 -13 -47 0 -67 5 -88
21 -34 27 -20 49 15 26 60 -38 134 -29 159 19 11 20 11 28 0 48 -10 19 -29 28
-88 43 -58 14 -80 24 -95 45 -20 26 -20 28 -2 55 23 35 36 48 55 56 24 9 87 8
114 -3z m503 1 c36 -11 83 -53 83 -75 0 -8 6 -16 13 -18 8 -3 12 -25 12 -63 0
-38 -4 -60 -12 -62 -7 -3 -13 -10 -13 -16 0 -7 -12 -25 -27 -42 -24 -27 -33
-30 -98 -33 -72 -4 -73 -4 -114 33 l-41 37 0 87 0 87 36 30 c54 43 99 53 161
35z m395 -2 c11 -6 31 -20 44 -32 23 -20 24 -26 24 -149 0 -121 -1 -128 -20
-128 -19 0 -20 7 -20 109 0 133 -10 166 -52 175 -38 7 -75 -1 -110 -26 -28
-19 -28 -20 -28 -139 0 -112 -1 -119 -20 -119 -19 0 -20 7 -20 155 0 128 3
155 14 155 8 0 18 -9 21 -20 5 -17 9 -18 27 -7 53 32 65 37 91 37 16 0 37 -5
49 -11z m-4557 -46 c13 -27 31 -56 38 -65 16 -20 37 -24 37 -7 0 11 50 82 63
87 4 2 7 10 7 18 0 9 11 14 30 14 l31 0 -18 -25 c-10 -13 -22 -25 -27 -25 -10
0 -46 -44 -63 -77 -15 -30 -3 -53 60 -117 49 -50 57 -66 33 -66 -22 0 -46 11
-46 21 0 6 -4 15 -10 22 -47 57 -60 76 -60 86 0 36 -62 -23 -80 -77 -11 -31
-35 -52 -60 -52 -13 0 18 61 38 73 6 4 21 26 32 48 l20 39 -21 43 c-12 23 -32
53 -45 66 -29 29 -30 41 -4 41 13 0 28 -15 45 -47z m2539 34 c8 -7 17 -29 21
-48 7 -34 72 -166 86 -174 6 -4 44 63 106 190 25 50 47 61 37 18 -6 -26 -43
-108 -64 -143 -5 -8 -21 -43 -37 -77 -31 -69 -50 -76 -67 -28 -6 17 -21 47
-33 66 -12 19 -25 54 -29 77 -4 23 -10 42 -14 42 -7 0 -50 74 -50 85 0 10 32
4 44 -8z m476 -524 c0 -10 23 -63 50 -118 28 -55 50 -107 51 -115 1 -19 32
-73 45 -77 5 -2 21 21 35 52 13 30 27 55 32 55 4 0 7 6 7 14 0 7 16 45 35 82
19 38 35 79 35 92 0 12 7 25 15 28 32 13 35 -2 10 -51 -14 -28 -25 -56 -25
-64 0 -8 -16 -43 -35 -78 -19 -35 -35 -73 -35 -83 0 -11 -4 -20 -10 -20 -5 0
-10 -6 -10 -14 0 -8 -6 -16 -14 -19 -8 -3 -16 -16 -18 -29 -4 -28 -36 -37 -44
-11 -6 17 -20 50 -90 198 -69 148 -76 175 -49 175 8 0 15 -8 15 -17z m689 -13
c51 -37 64 -52 84 -93 38 -82 13 -175 -58 -220 -25 -16 -45 -33 -45 -38 0 -5
-34 -9 -76 -9 -82 0 -116 14 -178 71 -27 25 -28 30 -28 112 -1 102 14 135 83
179 56 36 167 35 218 -2z m251 -150 l0 -180 95 0 c78 0 95 -3 95 -15 0 -12
-19 -15 -115 -15 l-115 0 0 195 c0 188 1 195 20 195 19 0 20 -7 20 -180z m590
0 l0 -180 45 0 c33 0 45 -4 45 -15 0 -12 -19 -15 -110 -15 -91 0 -110 3 -110
15 0 11 12 15 50 15 l50 0 0 154 c0 149 -1 154 -20 149 -11 -3 -20 -9 -20 -14
0 -5 -5 -9 -10 -9 -6 0 -20 -9 -32 -20 -20 -18 -38 -19 -38 0 0 5 17 19 38 31
20 12 50 33 65 46 16 13 33 23 38 23 5 0 9 -77 9 -180z m-9370 -830 c0 -5 12
-13 28 -16 40 -10 55 -24 41 -40 -6 -8 -9 -21 -5 -29 3 -8 1 -15 -4 -15 -6 0
-10 -13 -10 -30 0 -20 -5 -30 -15 -30 -8 0 -15 -4 -15 -10 0 -5 7 -10 15 -10
8 0 15 -9 15 -20 0 -26 -27 -26 -35 0 -5 16 -10 18 -26 10 -10 -6 -19 -17 -19
-25 0 -20 -36 -19 -44 1 -3 9 -4 19 -1 24 3 4 10 43 15 86 6 44 13 87 16 97 6
18 44 24 44 7z m-30 -260 c0 -5 7 -10 15 -10 8 0 15 -7 15 -16 0 -8 7 -22 15
-31 8 -8 12 -19 9 -25 -4 -6 -2 -13 4 -17 7 -4 14 -39 18 -78 4 -45 12 -74 20
-77 8 -3 13 -21 12 -47 0 -31 5 -45 18 -52 18 -10 18 -11 0 -17 -17 -6 -17 -7
-2 -22 20 -21 21 -47 1 -54 -9 -4 -14 -14 -13 -23 2 -12 -4 -15 -27 -13 -90 8
-106 10 -110 14 -3 3 2 21 10 41 23 56 20 142 -7 186 -33 52 -48 99 -48 153 0
67 14 98 45 98 14 0 25 -4 25 -10z"/>
<path d="M10274 3823 c-4 -16 -10 -30 -13 -33 -16 -14 -69 -112 -87 -162 l-13
-38 133 0 133 0 -5 25 c-2 14 -8 25 -13 25 -5 0 -9 9 -9 20 0 11 -4 20 -9 20
-9 0 -48 66 -79 132 -20 45 -29 47 -38 11z"/>
<path d="M8546 2311 c-85 -18 -95 -222 -13 -251 48 -16 65 -12 102 26 34 35
35 38 35 114 0 78 0 78 -34 99 -35 22 -42 23 -90 12z"/>
<path d="M9283 2313 c-34 -7 -73 -52 -75 -87 -5 -98 15 -149 67 -166 37 -12
105 1 105 21 0 5 7 9 15 9 24 0 35 35 35 114 0 72 -1 76 -28 90 -32 17 -88 26
-119 19z"/>
<path d="M7815 2312 c-39 -13 -53 -27 -63 -64 l-10 -38 104 0 c98 0 104 1 104
21 0 33 -19 60 -55 75 -37 15 -48 16 -80 6z"/>
<path d="M8905 2304 c-38 -19 -35 -16 -45 -58 l-8 -36 114 0 c109 0 114 1 114
21 0 34 -18 56 -60 73 -50 20 -77 20 -115 0z"/>
<path d="M10128 2304 c-21 -9 -40 -24 -43 -35 -4 -10 -11 -19 -16 -19 -5 0 -9
-9 -9 -20 0 -19 7 -20 111 -20 l111 0 -7 33 c-10 44 -13 47 -51 63 -41 17 -49
17 -96 -2z"/>
<path d="M11259 2313 c-15 -2 -39 -17 -54 -33 -23 -24 -27 -36 -27 -88 0 -76
25 -115 86 -132 50 -14 104 5 131 46 21 32 23 131 4 162 -22 35 -82 54 -140
45z"/>
<path d="M10765 1786 c-5 -3 -26 -7 -46 -10 -68 -12 -104 -70 -102 -163 2 -77
18 -106 74 -131 53 -25 149 -30 171 -9 8 6 23 17 33 23 27 14 54 71 55 112 0
52 -29 125 -60 150 -26 20 -101 37 -125 28z"/>
<path d="M1034 6370 c-16 -6 -16 -7 0 -13 10 -4 22 -4 28 -1 6 4 14 1 18 -6 4
-6 23 -14 41 -16 65 -7 109 -16 109 -23 0 -5 12 -14 28 -21 34 -17 29 -16 80
-25 23 -4 45 -12 48 -16 3 -5 16 -9 30 -9 14 0 27 -7 30 -15 4 -8 10 -12 15
-9 12 7 41 -15 34 -26 -3 -5 5 -6 16 -3 15 4 27 0 35 -12 8 -11 14 -16 14 -13
0 4 20 0 45 -9 25 -8 45 -21 45 -28 0 -8 5 -17 12 -21 7 -5 8 -3 3 6 -6 10 -4
12 11 6 10 -4 31 -10 47 -13 15 -3 27 -9 27 -14 0 -5 6 -9 14 -9 7 0 19 -7 26
-15 7 -8 20 -15 30 -15 9 0 26 -11 36 -25 10 -14 27 -25 37 -25 9 0 26 -4 37
-10 11 -5 30 -15 41 -21 19 -9 21 -9 15 6 -3 9 -6 19 -6 21 0 2 -7 4 -15 4 -8
0 -15 5 -15 10 0 6 -7 10 -15 10 -9 0 -18 7 -21 15 -4 8 -15 15 -26 15 -11 0
-26 6 -33 13 -35 31 -45 36 -79 42 -20 4 -43 17 -51 29 -9 11 -18 20 -20 19
-10 -5 -66 10 -71 18 -3 5 -15 9 -26 9 -11 0 -26 7 -32 15 -6 8 -23 16 -38 17
-16 1 -28 8 -28 15 0 7 -7 13 -16 13 -25 0 -134 41 -134 50 0 5 -10 6 -21 3
-13 -4 -27 0 -33 8 -15 19 -61 39 -91 39 -14 0 -25 4 -25 8 0 11 -134 29 -156
22z"/>
<path d="M295 5270 c-9 -28 -3 -32 45 -32 22 0 40 -4 40 -9 0 -5 8 -4 19 2 11
7 26 9 37 4 21 -8 39 -10 137 -13 50 -1 67 -6 67 -16 0 -11 8 -12 34 -6 25 5
33 4 30 -4 -3 -8 13 -12 48 -14 28 -1 55 -7 58 -12 4 -6 31 -11 62 -13 31 -1
54 -5 52 -8 -2 -4 3 -10 12 -13 11 -4 15 -2 11 7 -3 9 11 5 42 -10 25 -12 59
-23 74 -23 15 0 42 -8 60 -17 18 -9 44 -16 60 -15 17 2 30 -4 33 -13 4 -10 14
-13 28 -9 14 3 32 -3 48 -15 27 -22 54 -28 43 -11 -3 6 2 10 12 11 10 1 4 6
-14 11 -18 6 -33 15 -33 19 0 5 -7 9 -15 9 -8 0 -15 6 -15 13 0 8 -3 8 -9 -2
-13 -20 -42 4 -34 27 3 11 2 13 -4 6 -9 -12 -84 -24 -77 -12 5 8 -60 28 -93
28 -13 0 -23 5 -23 10 0 6 -3 9 -7 8 -5 -1 -28 3 -53 9 -25 7 -57 14 -72 18
-16 3 -28 12 -28 20 0 8 -4 15 -10 15 -5 0 -10 -4 -10 -10 0 -5 -5 -10 -11
-10 -5 0 -8 4 -5 9 3 4 -27 11 -67 14 -39 4 -73 11 -75 17 -2 5 -9 7 -15 3
-17 -11 -111 -3 -119 10 -6 9 -8 9 -8 0 0 -17 -78 -16 -152 1 -31 8 -60 11
-63 7 -4 -3 -13 2 -20 12 -13 18 -14 17 -20 -3z"/>
<path d="M267 5199 c-4 -15 0 -23 14 -26 10 -3 19 -10 19 -17 0 -6 5 -3 11 7
8 14 14 15 30 6 11 -6 27 -8 34 -5 8 3 17 1 20 -4 4 -6 34 -10 68 -10 81 0
168 -11 162 -20 -2 -4 13 -4 35 0 23 4 43 3 49 -3 7 -7 15 -6 25 2 12 10 14 9
9 -7 -4 -16 0 -18 26 -14 25 3 31 1 32 -14 0 -16 1 -16 9 3 9 23 30 22 80 -4
14 -7 37 -13 53 -13 15 0 27 -4 27 -8 0 -5 13 -9 29 -10 53 -1 141 -32 141
-50 0 -12 3 -13 11 -5 8 8 18 8 36 0 17 -8 20 -13 11 -19 -8 -5 -2 -6 14 -2
21 4 29 2 34 -10 4 -11 13 -14 24 -11 10 3 21 1 25 -5 3 -5 14 -10 25 -10 25
0 15 36 -12 43 -13 4 -17 10 -12 18 4 8 3 10 -4 5 -13 -8 -82 21 -82 34 0 4
-10 8 -22 7 -13 0 -36 3 -53 8 -16 4 -47 10 -67 12 -21 3 -38 9 -38 15 0 5 -4
6 -10 3 -5 -3 -10 -2 -10 3 0 6 -21 12 -47 15 -84 8 -216 36 -224 48 -4 7 -8
8 -10 1 -5 -14 -100 4 -111 21 -4 6 -8 8 -8 2 0 -6 -24 -9 -60 -7 -53 3 -60 6
-61 25 -1 19 -2 19 -6 3 -4 -16 -12 -18 -55 -14 -28 3 -54 12 -59 19 -8 12
-11 12 -20 -1 -8 -11 -12 -12 -16 -2 -2 6 -17 12 -33 12 -20 0 -29 -6 -33 -21z"/>
</g>
</svg>
