<?xml version="1.0" standalone="no"?>
<!DOCTYPE svg PUBLIC "-//W3C//DTD SVG 20010904//EN"
 "http://www.w3.org/TR/2001/REC-SVG-20010904/DTD/svg10.dtd">
<svg version="1.0" xmlns="http://www.w3.org/2000/svg"
 width="1920.000000pt" height="1080.000000pt" viewBox="0 0 1920.000000 1080.000000"
 preserveAspectRatio="xMidYMid meet">
<metadata>
Created by potrace 1.15, written by Peter Selinger 2001-2017
</metadata>
<g transform="translate(0.000000,1080.000000) scale(0.100000,-0.100000)"
fill="#000000" stroke="none">
<path d="M2770 10785 c7 -8 28 -24 46 -36 19 -11 41 -34 49 -50 9 -16 20 -29
26 -29 13 0 44 -35 64 -71 7 -14 30 -36 49 -50 20 -13 39 -32 42 -41 3 -10 33
-46 67 -81 34 -35 73 -79 87 -100 14 -20 31 -37 38 -37 6 0 12 -4 12 -10 0 -5
7 -10 15 -10 8 0 15 -7 15 -15 0 -8 -7 -15 -15 -15 -8 0 -15 3 -15 8 0 4 -18
15 -40 25 -26 11 -42 25 -46 42 -3 14 -10 25 -15 25 -12 0 -11 -7 2 -32 10
-19 9 -20 -12 -14 -13 4 -53 15 -89 24 l-65 17 -3 45 -3 45 -20 -25 c-19 -25
-19 -25 -35 -5 -8 11 -14 32 -11 47 2 15 -1 24 -6 21 -5 -3 -7 -18 -5 -34 6
-42 -28 -40 -47 3 -9 23 -20 33 -37 33 -21 0 -23 3 -20 50 3 37 0 47 -8 39 -6
-6 -12 -24 -13 -39 -3 -38 -21 -42 -50 -11 -14 14 -31 26 -40 26 -9 0 -19 5
-22 10 -3 6 -20 10 -36 10 -17 0 -32 6 -35 15 -4 8 -17 15 -30 15 -14 0 -27 7
-30 15 -4 8 -18 15 -33 16 -14 0 -42 5 -61 12 -28 10 -35 17 -36 40 -1 15 3
27 7 27 5 0 9 7 9 15 0 27 -17 16 -26 -17 -11 -37 -23 -43 -48 -25 -15 11 -17
17 -7 35 8 15 8 22 1 22 -6 0 -13 -7 -16 -15 -4 -8 -15 -15 -25 -15 -24 0 -24
-9 -1 -26 16 -13 16 -13 -3 -14 -18 -1 -18 -2 3 -10 12 -5 22 -14 22 -20 0 -5
8 -10 19 -10 10 0 29 -8 42 -19 13 -10 29 -16 36 -14 19 7 53 -16 53 -36 0
-14 5 -18 19 -14 11 3 24 -3 32 -15 8 -10 28 -22 44 -26 17 -3 37 -8 45 -10 8
-3 19 -5 24 -5 5 -1 1 -10 -9 -21 -10 -11 -15 -23 -10 -28 4 -4 10 -1 12 5 7
18 57 -10 85 -47 12 -17 30 -30 39 -30 26 0 32 -17 9 -23 -11 -3 -20 -10 -20
-16 0 -7 10 -9 25 -5 15 4 25 2 25 -5 0 -6 8 -11 18 -11 15 1 15 2 -2 15 -11
8 -16 18 -12 22 4 5 24 -10 44 -32 20 -22 34 -36 30 -31 -16 21 -7 28 12 11
11 -10 20 -24 20 -30 0 -7 7 -12 16 -11 18 1 61 -50 51 -61 -4 -4 -13 -1 -19
5 -7 7 -25 12 -41 12 -25 0 -28 -2 -17 -15 7 -8 17 -12 22 -9 5 3 16 -4 25
-16 8 -12 21 -19 29 -16 8 3 14 2 14 -3 0 -14 164 -119 191 -123 13 -1 25 -9
25 -15 1 -7 2 -17 3 -23 0 -5 9 -10 19 -10 9 0 27 -11 40 -25 13 -13 38 -29
57 -35 19 -6 35 -15 35 -20 0 -5 34 -35 75 -67 41 -31 78 -65 81 -75 3 -10 10
-18 15 -18 11 0 188 -160 239 -215 8 -9 34 -34 58 -56 23 -21 42 -47 42 -57 0
-19 31 -62 44 -62 4 0 2 8 -3 19 -6 10 -8 21 -5 24 4 3 -8 27 -25 52 -17 26
-28 51 -25 57 5 7 -2 9 -20 4 -24 -6 -26 -4 -26 24 0 16 5 30 11 30 5 0 8 4 5
9 -3 4 -16 6 -30 4 -30 -6 -40 10 -25 39 7 13 12 37 10 54 -1 18 2 35 8 39 18
10 13 22 -11 29 -18 4 -20 8 -10 18 16 16 15 43 -2 57 -25 21 -55 88 -49 109
3 15 0 20 -12 19 -24 -3 -45 31 -26 42 17 11 6 31 -18 31 -21 0 -32 27 -36 88
-1 23 -5 45 -9 49 -12 12 -6 33 9 33 8 0 15 8 15 18 0 13 -7 18 -22 18 -29 -1
-39 40 -11 46 16 3 16 5 -5 26 -24 24 -47 105 -32 110 11 4 2 50 -13 70 -5 6
-18 12 -28 12 -11 0 -24 10 -29 23 -5 12 -18 33 -28 47 -11 14 -36 50 -56 80
-21 30 -53 75 -72 100 -19 25 -38 55 -44 68 l-10 22 -261 0 c-230 0 -260 -2
-249 -15z"/>
<path d="M3610 10790 c0 -5 11 -17 25 -26 31 -21 33 -51 3 -57 -16 -3 -12 -5
12 -6 19 -1 42 -7 50 -14 24 -19 52 -77 46 -93 -3 -7 -1 -14 4 -14 19 0 50
-40 50 -65 0 -14 6 -25 13 -25 15 0 40 -37 33 -49 -3 -4 6 -19 19 -31 16 -15
23 -30 19 -42 -4 -13 0 -18 14 -18 20 0 32 -18 32 -49 0 -9 9 -24 19 -33 10
-9 22 -35 26 -59 4 -24 14 -53 22 -65 10 -16 11 -28 4 -47 -9 -22 -7 -28 9
-37 25 -13 26 -47 3 -53 -14 -4 -13 -5 4 -6 26 -1 33 -18 22 -49 -7 -18 -5
-24 14 -31 24 -9 47 -65 47 -113 0 -13 4 -28 8 -33 5 -6 15 -30 22 -54 12 -36
12 -45 1 -49 -8 -3 -6 -9 9 -19 13 -9 20 -24 19 -36 -2 -12 2 -32 9 -44 10
-17 9 -22 -4 -27 -14 -5 -12 -9 7 -25 19 -15 21 -21 11 -34 -10 -11 -9 -17 3
-27 18 -15 20 -36 3 -44 -9 -3 -7 -9 7 -21 14 -11 20 -29 21 -60 1 -42 0 -44
-22 -39 -15 4 -24 2 -24 -5 0 -6 9 -11 19 -11 11 0 27 -10 35 -22 16 -22 16
-21 16 20 0 23 5 42 10 42 7 0 7 6 0 19 -7 15 -6 24 6 36 13 13 16 30 11 81
-4 60 -3 66 16 73 l21 8 -22 12 c-32 17 -30 51 3 49 14 -1 26 -5 26 -8 5 -18
10 -70 10 -97 0 -18 5 -33 10 -33 5 0 9 -11 9 -26 0 -19 -7 -28 -30 -35 -39
-14 -38 -29 1 -29 24 0 30 -4 27 -17 -2 -10 -13 -22 -26 -28 -30 -13 -28 -35
3 -35 26 0 35 -23 14 -35 -7 -5 -4 -13 7 -26 15 -17 15 -21 1 -42 -14 -22 -14
-26 1 -40 14 -15 14 -18 -1 -35 -16 -17 -16 -20 -2 -32 18 -15 20 -57 3 -63
-10 -3 -8 -9 5 -24 24 -27 21 -54 -9 -87 -20 -21 -29 -25 -35 -15 -4 7 -3 22
3 33 8 15 7 22 -8 33 -10 7 -21 13 -26 13 -4 0 -8 5 -8 12 0 6 3 8 7 5 12 -12
29 28 27 66 0 20 -8 45 -17 55 -9 10 -14 27 -11 38 3 12 -3 30 -15 45 l-21 24
6 -27 c4 -19 2 -28 -6 -28 -7 0 -10 -6 -7 -12 19 -47 19 -48 -1 -48 -25 0 -46
25 -38 45 3 9 -1 26 -9 39 -8 12 -13 25 -9 28 7 7 -25 106 -37 114 -5 3 -9 16
-9 29 0 13 -4 27 -10 30 -5 3 -10 14 -10 25 0 10 -13 44 -30 75 -16 31 -30 64
-31 74 0 10 -2 11 -6 4 -2 -7 -13 -13 -23 -13 -16 0 -17 3 -3 42 13 38 13 46
-3 81 -18 38 -18 38 -30 15 -18 -31 -17 -35 6 -41 11 -3 20 -13 20 -22 0 -10
-5 -15 -13 -12 -9 3 -13 -5 -13 -29 0 -19 6 -36 14 -39 7 -3 12 -15 10 -29 -1
-13 5 -33 16 -44 20 -22 14 -42 -11 -42 -9 0 6 -14 33 -32 27 -17 51 -33 53
-34 2 -2 1 -11 -3 -20 -5 -13 -9 -15 -18 -6 -7 7 -21 12 -32 12 -18 -1 -17 -3
7 -16 33 -18 34 -28 5 -48 l-22 -16 22 0 c15 0 24 8 28 25 7 30 28 28 32 -3 2
-14 -2 -22 -12 -22 -8 0 -16 -10 -18 -22 -2 -19 -8 -22 -31 -20 -18 2 -26 -1
-22 -7 3 -6 17 -11 29 -11 26 0 49 -21 45 -42 -2 -7 1 -24 5 -37 5 -13 4 -27
-2 -33 -7 -7 -4 -16 9 -29 26 -26 15 -42 -23 -34 -39 9 -30 -10 9 -20 41 -10
56 -25 42 -41 -6 -8 -18 -14 -26 -14 -13 0 -13 -3 -3 -15 7 -8 19 -15 26 -15
8 0 14 -3 15 -7 12 -94 6 -105 -41 -78 -14 8 -29 14 -34 15 -17 0 18 -32 56
-51 39 -20 47 -33 27 -44 -7 -5 -3 -15 10 -29 12 -12 18 -26 14 -29 -12 -12
-48 -7 -72 10 -13 9 -38 19 -55 22 -22 5 -31 13 -31 26 0 16 6 19 29 17 16 -2
39 -10 50 -18 26 -18 37 -18 30 0 -6 16 -47 36 -77 36 -36 1 -60 25 -53 53 4
17 1 27 -9 31 -9 3 -15 18 -15 39 0 40 -15 57 -52 57 -15 0 -28 5 -28 10 0 19
-37 48 -51 40 -10 -7 -10 -11 1 -24 7 -9 10 -19 7 -22 -11 -11 -94 -15 -134
-6 -35 8 -40 7 -36 -8 2 -9 -3 -23 -13 -31 -15 -12 -19 -11 -32 9 -8 12 -24
22 -36 22 -12 0 -26 4 -31 9 -6 5 -21 11 -35 13 -20 2 -25 9 -25 31 1 27 -9
35 -20 17 -3 -5 -13 -10 -22 -10 -11 0 -14 7 -11 25 3 14 1 25 -3 25 -5 0 -9
-5 -9 -11 0 -6 -10 -9 -22 -7 -16 2 -23 10 -22 24 0 16 -5 20 -23 16 -18 -3
-23 0 -23 17 0 14 -6 21 -19 21 -21 0 -32 19 -38 65 -2 17 -13 38 -23 49 -18
18 -19 18 -41 -3 -12 -11 -27 -21 -31 -21 -15 0 -20 30 -8 45 18 21 -16 61
-36 44 -8 -6 -20 -9 -29 -5 -8 3 -14 0 -12 -6 1 -7 -7 -14 -18 -16 -11 -2 -17
-1 -13 3 10 10 -15 33 -29 28 -7 -3 -20 2 -28 11 -20 20 -26 20 -51 0 -18 -15
-18 -15 3 -9 34 9 47 -4 27 -26 -20 -23 -9 -26 13 -4 20 21 48 15 46 -9 -1
-11 5 -26 13 -33 16 -16 10 -33 -12 -33 -8 0 -14 9 -14 20 0 11 -7 20 -15 20
-8 0 -15 -4 -15 -10 0 -5 4 -10 9 -10 5 0 9 -11 9 -24 0 -19 -6 -23 -30 -24
-19 0 -31 5 -35 16 -4 9 -17 28 -30 41 -27 27 -29 41 -8 41 8 0 15 -4 15 -10
0 -13 41 -60 52 -60 4 0 8 5 8 11 0 5 -4 7 -10 4 -5 -3 -10 1 -10 9 0 26 -79
99 -101 93 -14 -4 -19 0 -19 16 0 18 -2 19 -10 7 -8 -13 -11 -13 -26 2 -14 14
-15 20 -4 32 17 22 3 20 -26 -3 -15 -12 -36 -18 -52 -16 -15 2 -35 4 -44 4
-10 1 -18 7 -18 15 0 8 -7 17 -16 20 -12 5 -14 1 -9 -15 7 -20 6 -20 -14 -2
-24 20 -29 48 -7 40 8 -3 16 2 19 13 4 14 1 17 -12 12 -9 -3 -19 -10 -22 -15
-9 -13 -26 -1 -32 23 -4 15 0 20 15 20 10 0 16 5 13 10 -3 6 1 13 10 16 11 4
12 10 6 18 -7 9 -4 17 9 29 11 9 24 17 29 17 5 0 12 10 15 23 6 22 7 22 21 3
15 -19 15 -19 15 2 0 12 -6 22 -14 22 -7 0 -21 12 -31 26 -9 14 -30 30 -46 36
-19 7 -29 17 -30 31 0 12 -3 16 -6 10 -6 -17 -28 -16 -43 2 -7 8 -20 15 -30
15 -10 0 -23 6 -29 14 -7 8 -32 24 -57 35 -24 12 -44 28 -44 35 0 8 -4 18 -10
21 -6 3 -7 -1 -4 -9 5 -13 1 -14 -26 -5 -20 7 -29 16 -26 25 3 7 1 16 -4 19
-6 4 -10 1 -10 -4 0 -15 -32 -14 -55 2 -11 7 -39 19 -63 27 -26 8 -41 18 -38
26 2 7 -4 14 -15 17 -10 3 -19 13 -19 22 0 9 -4 14 -10 10 -5 -3 -7 -12 -3
-20 7 -20 -7 -19 -24 3 -8 9 -12 12 -9 5 4 -6 2 -14 -3 -17 -14 -9 -176 60
-173 73 3 15 -36 53 -43 41 -4 -6 1 -13 9 -16 17 -7 22 -34 7 -34 -5 0 -19 12
-31 28 -12 15 -19 19 -16 10 6 -21 -3 -22 -39 -6 -14 6 -25 18 -25 27 0 13 -2
14 -9 2 -8 -13 -18 -12 -73 4 -35 10 -70 26 -79 35 -8 10 -26 20 -40 24 -24 6
-24 6 -1 -5 12 -7 22 -16 22 -21 0 -10 -2 -10 -55 3 -33 8 -45 16 -47 33 -2
17 -13 23 -53 29 -27 5 -58 13 -67 18 -13 7 -16 5 -12 -6 4 -10 0 -15 -16 -15
-27 0 -50 -22 -50 -49 0 -11 -5 -23 -10 -26 -6 -4 -9 -14 -8 -23 2 -11 -5 -17
-20 -18 -32 -2 -38 14 -13 37 21 20 26 44 15 73 -3 9 -11 16 -16 16 -6 0 -8
-6 -5 -14 3 -8 -1 -20 -9 -26 -8 -7 -14 -23 -14 -36 0 -17 -6 -24 -20 -24 -24
0 -26 22 -5 40 8 7 15 26 15 42 0 27 -1 28 -16 13 -9 -9 -14 -19 -11 -22 10
-10 -13 -43 -30 -43 -11 0 -14 6 -8 23 15 48 17 67 7 67 -9 0 -19 -26 -28 -69
-3 -17 23 -44 35 -36 5 3 13 -4 16 -16 5 -16 0 -28 -21 -47 l-28 -26 34 -9
c18 -5 42 -6 52 -4 10 3 18 2 18 -3 0 -14 -34 -17 -100 -9 -36 4 -77 5 -92 2
-16 -3 -34 0 -42 6 -10 8 -16 9 -21 1 -8 -13 -52 -13 -61 1 -4 7 -24 9 -54 6
-26 -3 -51 -2 -56 3 -14 12 -55 23 -53 13 3 -20 -3 -21 -36 -7 -19 8 -35 10
-35 6 0 -5 -32 -9 -70 -10 -60 0 -74 3 -90 21 -17 18 -20 18 -20 4 0 -18 -17
-22 -44 -11 -23 9 -52 72 -39 85 11 11 40 14 63 7 8 -3 12 -3 8 -1 -13 7 -9
30 7 43 9 7 14 19 11 27 -3 7 -1 13 5 13 7 0 9 10 5 25 -4 14 -3 25 2 25 11 0
32 59 23 64 -4 3 -21 7 -37 10 -16 3 -31 11 -33 17 -5 15 -41 -41 -41 -64 0
-10 -9 -35 -20 -56 -10 -21 -16 -41 -13 -45 6 -5 -20 -10 -40 -7 -4 0 -7 -6
-7 -14 0 -9 6 -12 15 -9 8 4 15 2 15 -4 0 -5 -10 -12 -22 -16 -33 -8 -38 -8
-38 8 0 9 -7 12 -21 9 -19 -5 -20 -3 -14 18 4 13 17 36 28 50 10 15 16 32 13
38 -4 6 0 14 9 17 11 5 13 9 5 14 -7 5 -8 14 -1 32 8 21 7 28 -5 32 -21 8 -69
8 -61 -1 4 -3 1 -13 -7 -22 -20 -22 -45 -99 -41 -122 2 -11 0 -17 -6 -14 -5 4
-9 -1 -9 -9 0 -9 -8 -16 -19 -16 -10 0 -24 -7 -31 -15 -17 -21 -36 -19 -53 6
-8 11 -18 16 -21 11 -3 -6 -1 -12 6 -14 6 -2 8 -10 4 -16 -9 -15 -46 -16 -46
-2 0 6 -4 10 -10 10 -5 0 -10 -6 -10 -14 0 -7 -7 -19 -15 -26 -21 -17 -21
-110 0 -110 9 0 12 6 9 15 -4 8 -1 15 5 15 6 0 11 7 11 15 0 8 7 15 15 15 18
0 19 -5 3 -29 -9 -15 -8 -24 8 -48 30 -45 45 -76 39 -81 -3 -3 2 -14 12 -24
22 -24 9 -35 -23 -17 -14 7 -21 15 -15 17 16 5 13 16 -8 29 -17 10 -18 9 -13
-10 3 -12 11 -31 19 -42 17 -25 17 -35 -3 -35 -8 0 -22 16 -30 35 -16 40 -27
46 -22 13 2 -14 -2 -22 -10 -21 -7 2 -12 -7 -12 -20 1 -26 25 -62 34 -49 3 5
-1 15 -9 22 -18 15 -19 30 -2 30 7 0 21 -17 30 -38 21 -47 21 -52 2 -52 -8 0
-15 5 -15 10 0 6 -5 10 -11 10 -8 0 -8 -4 0 -14 6 -8 11 -18 10 -22 -5 -20 15
-44 36 -44 13 0 25 -6 28 -14 8 -21 -21 -28 -33 -8 -10 15 -10 15 -8 -3 4 -29
58 -35 58 -6 0 11 -4 23 -10 26 -14 9 -12 35 3 35 7 0 17 -14 22 -32 12 -37
37 -52 28 -16 -3 13 -10 28 -15 35 -5 6 -8 17 -7 25 3 17 -11 70 -23 85 -5 7
-7 17 -3 23 9 15 38 -9 31 -27 -3 -7 -2 -13 3 -13 5 0 16 -28 25 -62 16 -62
19 -72 32 -115 8 -29 -22 -33 -31 -4 -7 22 -55 17 -55 -5 0 -19 -19 -18 -26 1
-4 8 -17 15 -30 15 -13 0 -25 6 -25 13 -2 19 -5 31 -11 47 -3 8 -9 24 -14 35
-7 19 -7 19 -12 1 -4 -17 3 -37 29 -88 15 -29 11 -41 -12 -35 -20 5 -20 3 -13
-46 4 -29 8 -59 9 -69 0 -9 7 -23 13 -31 7 -8 12 -19 10 -23 -4 -16 13 -54 24
-54 6 0 7 7 3 18 -4 9 -8 24 -9 34 -1 9 -8 24 -16 32 -7 9 -10 19 -7 22 3 3
-1 24 -9 46 -17 50 -17 58 -1 58 17 0 40 -37 26 -42 -7 -2 -5 -9 5 -17 14 -12
16 -10 16 17 0 18 -6 32 -16 36 -13 5 -14 9 -4 21 12 14 15 14 30 0 9 -8 22
-15 29 -15 6 0 14 -7 17 -15 4 -10 13 -13 25 -10 12 4 21 -1 28 -14 15 -27 14
-30 -9 -24 -11 3 -20 9 -20 14 0 5 -11 9 -25 9 -16 0 -25 -6 -25 -15 0 -8 0
-18 -1 -22 0 -4 4 -9 9 -11 6 -2 8 6 5 17 -4 15 -1 21 11 21 9 0 16 -4 16 -10
0 -5 8 -10 18 -10 9 0 23 -9 29 -19 8 -12 19 -17 31 -14 12 3 22 -2 26 -13 9
-24 -1 -31 -24 -16 -11 7 -28 12 -39 12 -10 0 -21 7 -25 15 -3 8 -10 15 -16
15 -6 0 -5 -7 2 -20 7 -11 22 -20 34 -20 13 0 24 -8 27 -20 6 -24 -15 -27 -33
-5 -7 8 -16 15 -21 15 -5 0 0 -9 11 -20 11 -11 26 -20 34 -20 8 0 20 -15 27
-32 11 -29 13 -31 16 -11 2 12 -1 31 -6 42 -8 14 -8 22 0 27 13 8 31 -16 24
-33 -2 -7 0 -15 5 -18 15 -9 12 -45 -4 -45 -8 0 -16 -7 -20 -15 -3 -8 -10 -15
-16 -15 -5 0 -10 7 -10 15 0 8 -5 15 -10 15 -7 0 -7 -6 0 -19 5 -11 10 -33 10
-50 0 -26 4 -30 22 -28 19 2 24 -4 28 -32 3 -19 12 -37 20 -39 12 -4 13 -2 3
10 -7 8 -13 29 -15 46 -2 22 -7 32 -19 32 -9 0 -20 7 -23 16 -9 22 -8 24 9 24
8 0 15 -7 15 -15 0 -8 5 -15 10 -15 7 0 7 6 0 19 -15 28 -12 40 8 38 12 0 18
-10 19 -31 2 -31 4 -40 18 -103 7 -29 11 -32 41 -31 18 1 40 -5 49 -12 11 -9
15 -9 15 -1 0 9 30 11 115 7 64 -3 120 -8 126 -11 9 -6 36 -9 169 -18 36 -3
102 -10 148 -17 66 -10 82 -16 80 -28 -2 -9 5 -18 17 -20 17 -4 18 -2 6 12
-12 14 -11 16 7 16 11 0 27 -6 34 -12 7 -7 27 -14 43 -15 54 -2 120 -16 134
-27 7 -6 26 -9 42 -8 17 2 35 -4 48 -17 11 -11 21 -15 23 -9 3 8 16 7 43 -3
22 -7 48 -12 57 -10 10 1 28 -4 40 -11 13 -7 27 -11 31 -10 4 1 22 -5 40 -15
18 -9 43 -18 56 -19 13 -2 31 -9 40 -17 9 -8 22 -12 29 -10 7 3 27 -4 45 -14
18 -11 45 -23 59 -26 15 -4 33 -13 41 -21 24 -24 42 -2 39 50 -1 40 0 44 13
34 12 -10 15 -10 15 0 0 7 6 10 14 7 8 -3 16 -1 18 5 6 16 28 0 28 -19 0 -8
-9 -17 -19 -20 -12 -3 -17 -11 -14 -20 4 -9 8 -11 12 -4 4 6 18 12 31 13 21 3
25 -1 25 -22 1 -20 5 -24 23 -22 15 2 22 -2 22 -13 0 -11 -5 -15 -14 -12 -8 3
-17 0 -19 -7 -3 -8 4 -13 22 -13 24 0 27 4 23 24 -2 13 -12 28 -22 33 -11 6
-20 27 -24 61 -5 39 -12 52 -26 56 -14 4 -20 14 -20 35 0 26 -2 29 -15 18 -8
-7 -15 -9 -15 -4 0 5 -4 4 -8 -2 -4 -6 -21 -15 -38 -18 l-31 -7 -7 58 c-4 31
-9 67 -12 80 -5 16 -2 23 9 23 8 0 18 -6 21 -12 3 -7 3 -2 0 11 -4 17 -2 22 7
19 21 -7 23 -38 4 -52 -14 -10 -15 -16 -6 -34 6 -12 19 -23 29 -23 9 -1 24 -2
32 -3 22 -2 29 14 19 42 -12 30 -5 39 16 22 12 -10 15 -10 15 3 0 8 6 18 13
21 13 6 -23 0 -60 -10 -17 -5 -23 -2 -23 10 0 23 4 31 13 28 4 -1 7 3 7 9 0 6
7 9 15 5 8 -3 15 -1 15 5 0 6 7 9 15 5 9 -3 15 0 15 9 0 12 -6 12 -41 0 -56
-20 -57 -20 -65 21 -6 30 -8 34 -16 19 -7 -11 -6 -21 1 -28 16 -16 14 -40 -4
-33 -8 3 -15 1 -15 -4 0 -15 -30 -12 -31 3 -2 31 -8 55 -23 96 -12 33 -13 47
-5 57 8 10 8 14 0 14 -6 0 -11 7 -11 15 0 9 6 12 15 9 8 -4 15 -1 15 5 0 6
-11 11 -24 11 -16 0 -26 7 -29 21 -5 17 -2 20 14 16 10 -3 19 -1 19 4 0 17 22
9 27 -10 5 -19 53 -36 53 -20 0 14 28 11 33 -3 3 -7 6 -3 6 8 1 12 -8 32 -19
45 -19 22 -20 22 -8 2 7 -12 9 -26 4 -30 -9 -10 -38 26 -30 38 3 5 1 9 -5 9
-6 0 -8 -12 -4 -30 3 -19 1 -30 -6 -30 -6 0 -14 13 -17 29 -5 22 -11 27 -24
24 -15 -4 -20 3 -26 44 -4 26 -13 65 -20 87 -19 53 -19 72 1 56 13 -11 14 -10
9 4 -3 9 -14 16 -24 16 -10 0 -20 9 -23 21 -5 17 -2 20 14 16 10 -3 17 -1 13
4 -3 5 -1 9 4 9 14 0 35 -28 28 -38 -3 -6 2 -16 11 -23 14 -12 15 -11 9 7 -6
19 -3 21 21 20 36 -2 56 -15 49 -32 -3 -8 0 -14 5 -14 6 0 9 9 6 20 -8 30 12
35 23 6 5 -14 12 -26 15 -26 4 0 4 4 1 8 -3 5 8 9 24 9 16 0 31 -6 34 -14 3
-7 -1 -13 -8 -13 -17 0 -29 -27 -16 -35 6 -4 10 1 10 10 0 11 5 15 15 11 8 -3
15 -2 15 3 0 11 49 11 56 -1 3 -4 -5 -17 -17 -27 -15 -12 -19 -20 -11 -25 7
-4 12 -1 12 8 0 21 16 20 30 -1 11 -17 11 -17 6 1 -5 15 -2 17 14 13 11 -3 20
0 20 6 0 8 3 8 11 0 6 -6 18 -9 25 -6 8 3 14 0 14 -6 0 -5 -18 -16 -40 -22
-48 -15 -68 -34 -45 -43 9 -3 13 -2 10 4 -8 12 33 33 51 26 9 -3 12 -1 9 4 -4
6 7 10 24 10 45 0 39 -23 -14 -49 -41 -21 -63 -40 -31 -28 7 3 19 0 26 -6 10
-9 12 -8 7 6 -6 17 6 22 47 19 12 -2 16 3 13 12 -4 11 1 14 21 12 26 -3 45
-26 21 -26 -8 0 -3 -7 9 -16 27 -19 28 -44 2 -51 -11 -3 -20 -10 -20 -15 0 -5
8 -7 19 -3 26 8 36 -22 11 -35 -11 -6 -20 -16 -20 -23 0 -7 4 -6 10 3 8 13 12
13 27 -3 17 -17 17 -19 -6 -36 -14 -11 -20 -21 -13 -25 6 -3 13 0 15 6 8 19
28 -13 21 -34 -2 -9 0 -19 6 -23 23 -14 7 -33 -45 -56 -54 -23 -75 -42 -35
-32 11 3 20 10 20 16 0 7 4 7 12 -1 8 -8 16 -6 30 10 17 20 20 21 36 5 14 -14
14 -21 4 -37 -7 -12 -8 -20 -2 -20 5 0 10 -8 10 -18 0 -13 -13 -21 -45 -30
-25 -7 -45 -16 -45 -22 0 -5 5 -10 10 -10 6 0 10 4 10 8 0 5 10 8 23 7 12 -1
25 2 28 8 9 13 29 0 29 -19 0 -8 -10 -14 -24 -14 -13 0 -27 -7 -30 -16 -3 -8
-2 -13 3 -9 5 3 17 -2 25 -11 15 -14 16 -13 16 8 1 22 1 22 15 4 21 -28 20
-30 -20 -45 -20 -7 -32 -17 -29 -23 4 -6 9 -7 13 0 3 5 16 12 29 16 25 8 42
-18 24 -36 -8 -8 -7 -15 2 -24 18 -18 19 -94 1 -94 -7 0 -15 -5 -17 -12 -2 -6
-13 -12 -24 -13 -10 -1 -32 -8 -49 -15 -16 -7 -52 -20 -79 -29 -54 -18 -70
-36 -31 -36 14 0 25 6 25 14 0 8 6 11 15 7 8 -3 15 -1 15 3 0 14 64 34 68 21
6 -16 22 -12 22 6 0 8 4 13 9 10 5 -4 12 0 14 6 4 10 8 9 16 -2 9 -13 11 -12
11 3 0 11 6 17 13 15 14 -5 21 -98 7 -98 -6 0 -10 14 -10 30 0 29 -13 40 -25
20 -3 -5 -1 -10 4 -10 19 0 13 -50 -6 -51 -14 0 -15 -2 -3 -6 8 -3 18 -11 22
-17 5 -7 8 -4 8 7 0 9 5 17 10 17 11 0 12 -2 16 -40 2 -14 6 -37 10 -53 5 -23
4 -26 -11 -21 -10 4 -5 -5 12 -22 15 -15 36 -37 46 -48 18 -19 18 -19 23 2 6
22 30 36 45 26 11 -6 12 -41 2 -46 -5 -1 9 -20 30 -41 28 -30 37 -34 37 -20 0
13 9 19 32 20 17 1 36 7 42 14 8 8 -1 10 -34 7 -40 -3 -45 -1 -48 19 -3 20 1
22 32 19 19 -1 33 1 30 6 -3 4 -16 8 -30 8 -19 0 -24 5 -24 24 0 13 6 27 13
29 7 3 5 6 -5 6 -11 1 -18 9 -18 21 0 12 7 20 18 20 16 1 16 1 0 11 -23 13
-25 64 -3 55 9 -3 15 0 15 9 0 8 -6 12 -14 9 -9 -3 -17 3 -21 16 -9 27 0 36
20 20 11 -9 15 -9 15 -1 0 7 5 9 11 5 6 -3 9 -17 6 -30 -2 -14 0 -27 4 -30 5
-3 9 0 9 6 0 7 7 10 15 6 8 -3 15 -2 15 3 0 4 10 13 23 20 22 11 22 11 -3 5
-42 -10 -44 -10 -48 12 -2 13 5 25 20 33 17 9 18 10 3 6 -11 -4 -36 -9 -57
-11 l-36 -5 -4 51 c-2 35 1 50 10 50 6 0 12 5 12 11 0 6 -7 9 -15 5 -11 -4
-15 2 -15 20 0 14 3 23 8 20 4 -2 18 2 32 10 25 15 24 15 -12 9 -42 -6 -43 -5
-52 50 -7 38 -5 42 21 52 l28 11 -32 1 c-44 1 -46 35 -3 50 40 13 38 22 -2 10
-23 -6 -34 -5 -40 4 -12 19 -9 37 6 37 8 0 18 4 21 10 4 6 -4 9 -17 7 -17 -1
-24 4 -26 21 -2 16 2 22 15 23 14 0 13 2 -5 10 -33 13 -25 44 11 43 15 0 27 5
27 12 0 9 -8 10 -29 4 -34 -9 -41 -5 -41 26 0 19 5 22 33 22 17 -1 43 4 57 9
29 12 93 5 84 -9 -3 -5 -16 -14 -28 -19 -16 -7 -10 -8 27 -5 26 2 47 -1 47 -6
0 -5 6 -6 13 -3 6 4 1 -3 -13 -14 l-25 -21 35 4 c19 2 40 5 45 6 49 12 53 -22
4 -39 -16 -5 -29 -12 -29 -14 0 -8 39 0 53 12 8 6 28 10 44 7 15 -2 33 -5 38
-5 6 -1 1 -8 -9 -16 -19 -14 -19 -15 6 -15 20 0 31 -8 42 -32 18 -34 21 -58 8
-58 -5 0 -7 -13 -4 -30 3 -23 0 -30 -13 -30 -15 0 -15 -1 -1 -16 23 -23 20
-32 -19 -48 -19 -8 -35 -18 -35 -21 0 -3 5 -3 10 0 6 4 22 8 35 11 30 5 35
-21 8 -42 -17 -13 -17 -14 -1 -8 23 8 35 -21 18 -41 -10 -12 -9 -15 4 -15 19
0 21 -30 4 -49 -9 -10 -10 -12 -1 -7 7 4 17 -2 23 -14 12 -23 6 -40 -14 -40
-8 0 -19 -7 -26 -15 -11 -14 -10 -14 14 -5 38 14 39 14 33 -20 -4 -16 -2 -32
3 -35 19 -12 9 -24 -41 -52 -59 -31 -54 -43 6 -13 34 17 40 18 48 5 10 -18 1
-35 -19 -35 -8 0 -14 -4 -14 -9 0 -5 -12 -14 -27 -20 -25 -10 -25 -10 -3 -5
44 10 63 9 67 -3 3 -7 -7 -17 -21 -23 -33 -12 -33 -19 -1 -12 28 5 47 -24 25
-38 -8 -5 -9 -9 -1 -14 13 -8 15 -46 3 -46 -5 0 -17 -7 -28 -16 -10 -8 -13
-12 -6 -9 7 4 24 4 38 1 22 -6 23 -8 9 -22 -18 -18 -19 -28 -5 -54 8 -15 6
-20 -11 -25 -40 -13 -130 -57 -126 -62 3 -2 20 3 39 13 18 9 48 20 66 25 27 6
32 4 32 -11 0 -9 -10 -22 -22 -28 l-23 -11 23 0 c30 -1 28 -25 -5 -50 l-28
-20 33 9 c34 9 41 1 18 -23 -13 -12 -13 -19 2 -50 9 -20 22 -36 28 -37 19 0
26 -33 9 -42 -8 -5 -15 -14 -15 -20 0 -7 4 -7 13 -1 21 16 41 9 47 -15 3 -13
8 -23 13 -23 8 1 9 -8 1 -31 -3 -11 -15 -18 -28 -18 -13 0 -29 -7 -36 -15 -8
-9 -8 -15 -2 -15 6 0 12 4 14 9 2 5 23 11 48 15 37 4 42 3 25 -6 -11 -6 -28
-19 -38 -29 -11 -10 -32 -23 -48 -29 -16 -7 -29 -16 -29 -21 0 -14 16 -11 30
6 7 8 21 15 31 15 11 0 19 -7 19 -15 0 -8 -4 -15 -10 -15 -5 0 -10 -4 -10 -10
0 -15 16 -12 34 5 8 8 21 15 28 15 8 0 19 5 26 12 6 6 15 8 19 5 4 -4 -2 -14
-13 -21 -10 -8 -30 -23 -43 -35 -13 -12 -27 -21 -31 -21 -4 0 -24 -13 -45 -30
-39 -31 -37 -42 4 -14 12 9 47 28 77 44 39 19 54 23 54 13 0 -7 -7 -16 -15
-19 -22 -9 -18 -23 5 -17 30 8 24 -15 -8 -34 -29 -17 -67 -61 -59 -69 3 -3 20
10 39 29 44 44 87 72 96 62 8 -8 -20 -31 -68 -57 -17 -10 -28 -22 -25 -28 3
-6 -2 -13 -11 -17 -17 -6 -25 -12 -75 -55 -11 -9 -16 -19 -11 -22 5 -3 17 3
27 14 10 11 26 20 36 20 10 0 21 9 24 20 3 11 11 20 16 20 5 0 9 -9 9 -20 0
-11 -7 -20 -15 -20 -8 0 -15 -4 -15 -8 0 -5 -19 -21 -42 -36 l-41 -27 -21 25
c-15 19 -25 23 -35 17 -12 -8 -12 -13 2 -35 20 -30 22 -46 4 -46 -7 0 -18 -9
-25 -21 -9 -13 -19 -18 -32 -14 -13 4 -19 0 -22 -12 -2 -13 -19 2 -62 54 -32
39 -103 108 -157 154 -54 46 -99 88 -99 92 0 5 9 11 20 14 11 3 20 12 20 19 0
17 12 18 30 2 8 -7 -3 6 -25 30 -45 48 -51 50 -58 21 -7 -27 -27 -15 -27 17 0
15 -13 36 -32 54 -33 30 -68 39 -68 19 0 -6 -7 -9 -15 -5 -13 4 -13 2 -5 -14
6 -10 18 -24 28 -30 12 -8 14 -13 4 -16 -6 -3 -9 -11 -5 -17 3 -7 -3 -4 -14 6
-11 9 -27 17 -36 17 -8 0 -42 17 -74 38 -32 21 -69 43 -83 49 -14 6 -63 30
-110 54 -47 23 -125 62 -175 87 -130 64 -140 69 -140 83 0 7 -16 13 -35 15
-57 5 -61 7 -56 21 6 15 -5 17 -19 4 -6 -5 -23 -2 -42 8 -24 14 -29 21 -21 29
9 9 9 12 1 12 -6 0 -19 -7 -27 -16 -15 -14 -17 -14 -22 0 -3 9 -12 16 -20 16
-8 0 -11 6 -8 15 8 20 -6 19 -23 -2 -10 -13 -16 -15 -19 -5 -3 6 -18 12 -32
12 -15 1 -38 7 -52 15 -14 8 -39 14 -57 15 -17 0 -34 4 -37 9 -3 5 -23 12 -43
15 -21 4 -54 9 -73 12 -19 4 -41 11 -49 17 -7 6 -28 10 -46 8 -18 -1 -36 2
-40 8 -3 6 -24 11 -45 11 -21 0 -42 5 -45 10 -4 6 -25 10 -48 8 -24 -1 -42 3
-45 10 -2 7 -14 9 -31 6 -16 -3 -39 0 -52 7 -13 7 -41 11 -61 10 -22 -1 -38 2
-38 8 0 6 -12 8 -30 5 -16 -4 -37 -3 -47 1 -10 4 -37 7 -60 6 -25 -2 -43 2
-43 8 0 7 -16 8 -45 4 -28 -3 -50 -1 -58 6 -9 6 -27 8 -47 5 -22 -5 -35 -3
-41 7 -7 12 -12 12 -29 1 -15 -9 -26 -10 -39 -2 -17 8 -147 3 -139 -6 2 -1 48
-5 102 -9 55 -3 104 -9 109 -12 5 -3 42 -6 83 -8 41 -1 80 -8 88 -14 7 -6 15
-9 18 -6 4 4 128 -7 218 -19 14 -2 59 -9 101 -15 126 -17 218 -41 229 -59 8
-15 9 -15 10 2 0 18 1 18 18 3 10 -10 22 -14 25 -11 4 4 13 1 22 -6 8 -7 15
-9 15 -4 0 5 4 5 8 -1 4 -5 16 -17 27 -25 20 -14 20 -14 2 7 -13 15 -14 21 -5
19 22 -3 39 -17 33 -27 -3 -5 1 -6 10 -3 11 5 14 2 9 -10 -4 -12 0 -16 15 -16
13 0 19 5 15 13 -3 8 1 14 9 14 8 0 19 -13 25 -29 8 -22 7 -28 -3 -28 -8 0
-17 5 -21 11 -5 8 -10 6 -16 -5 -5 -9 -6 -21 -2 -28 5 -7 3 -8 -5 -4 -7 5 -10
14 -7 22 3 8 2 14 -2 15 -57 8 -57 8 -53 -35 2 -23 0 -38 -4 -34 -5 4 -14 3
-22 -3 -10 -9 -13 -7 -14 7 0 18 -1 18 -9 -1 -8 -19 -8 -19 -17 4 l-10 25 -7
-28 c-4 -16 -5 -31 -1 -34 3 -3 5 2 5 12 0 9 5 14 10 11 15 -9 -9 -37 -26 -31
-7 3 -15 -2 -18 -10 -3 -9 -10 -12 -16 -9 -5 3 -10 1 -10 -4 0 -14 27 -14 32
0 2 6 12 0 23 -12 18 -20 18 -22 3 -16 -13 4 -18 1 -19 -11 -1 -36 -10 -108
-14 -119 -2 -7 -11 -10 -21 -6 -14 5 -16 2 -12 -15 4 -12 2 -22 -3 -22 -5 0
-9 6 -9 14 0 8 -3 21 -6 29 -3 10 2 17 13 20 16 4 16 5 1 6 -11 1 -18 10 -19
24 -1 18 -2 18 -6 4 -3 -10 -11 -16 -18 -13 -7 2 -16 -2 -19 -10 -3 -9 -11
-12 -18 -8 -8 5 -9 2 -5 -9 4 -10 2 -17 -4 -17 -6 0 -9 -9 -6 -19 3 -15 -1
-21 -17 -24 -18 -4 -17 -4 5 -6 14 0 34 -7 44 -15 17 -12 18 -15 3 -29 -15
-15 -17 -14 -23 11 -6 24 -8 25 -16 9 -6 -10 -15 -14 -21 -11 -8 5 -9 1 -5
-10 4 -10 7 -20 7 -22 0 -2 12 -4 26 -4 29 0 58 24 51 43 -2 6 0 20 5 30 5 9
5 17 0 17 -4 0 -8 8 -8 19 0 12 5 17 14 13 11 -4 13 -18 10 -54 -4 -33 -2 -48
6 -45 6 2 12 13 14 25 3 21 22 32 22 13 0 -6 20 -13 44 -16 25 -4 47 -13 50
-21 3 -8 1 -14 -4 -14 -6 0 -10 4 -10 8 0 5 -7 9 -15 9 -8 0 -15 -6 -15 -14 0
-7 -4 -13 -10 -13 -9 0 -14 14 -11 33 2 14 -37 7 -43 -8 -3 -8 -15 -15 -26
-15 -11 0 -20 -4 -20 -10 0 -5 7 -7 15 -4 8 4 15 1 15 -5 0 -10 -8 -13 -52
-15 -10 -1 -17 -6 -16 -11 0 -6 11 -8 22 -7 12 2 25 5 30 5 6 1 9 -17 7 -40
-2 -28 2 -43 9 -43 7 0 10 -8 7 -20 -3 -11 -1 -20 5 -20 5 0 12 9 15 20 3 11
10 20 15 20 5 0 6 -5 2 -11 -3 -6 9 -3 27 7 26 14 30 19 17 22 -10 2 -18 8
-18 13 0 5 5 8 11 6 6 -1 14 4 16 11 3 8 -1 10 -13 5 -12 -4 -15 -3 -10 6 5 7
14 10 22 7 8 -3 14 1 14 10 0 8 -4 12 -10 9 -5 -3 -10 -1 -10 5 0 7 8 9 20 5
15 -5 20 -2 21 12 0 16 1 16 9 -2 5 -12 9 -14 9 -6 1 8 4 12 7 9 10 -10 -26
-69 -38 -62 -7 4 -8 3 -4 -5 11 -17 -15 -70 -31 -64 -8 3 -13 -3 -13 -15 0
-23 -20 -41 -21 -20 0 7 -4 3 -9 -9 -5 -13 -16 -23 -25 -23 -8 0 -15 -6 -16
-12 -1 -7 -5 -2 -9 12 -7 21 -8 22 -9 5 -1 -12 -7 -27 -13 -34 -11 -11 -7 -12
19 -6 43 9 42 -5 -4 -50 -25 -24 -31 -33 -18 -29 11 4 26 14 33 23 12 14 13
14 10 -4 -2 -14 -16 -24 -48 -32 l-45 -12 40 0 c59 1 60 1 60 -26 0 -22 -2
-23 -11 -10 -9 13 -13 13 -17 3 -4 -10 -8 -10 -16 2 -9 13 -11 12 -12 -5 0
-11 -2 -28 -4 -37 -5 -29 22 -20 29 8 5 20 10 24 18 16 8 -8 8 -15 0 -24 -11
-14 -1 -41 14 -38 5 1 10 -3 12 -9 2 -6 -1 -12 -7 -12 -6 -1 -16 -2 -23 -3
-13 -1 -19 -46 -6 -46 4 0 8 5 8 10 0 6 12 10 28 10 18 0 23 3 14 9 -10 6 -11
13 -1 34 15 34 33 35 25 2 -4 -15 -2 -25 5 -25 13 0 -10 -24 -31 -33 -8 -3 -1
-6 16 -6 31 -1 32 -2 30 -48 -1 -40 -4 -47 -18 -45 -10 2 -18 -2 -18 -8 0 -5
-17 -10 -37 -11 -21 -1 -49 -5 -63 -9 -16 -5 -1 -7 45 -5 39 2 84 4 100 5 25
0 28 3 15 13 -11 8 -14 24 -10 52 3 25 8 35 13 28 5 -7 5 -18 1 -25 -4 -6 -3
-8 4 -4 6 3 13 2 17 -4 3 -5 12 -10 18 -10 8 0 9 3 1 8 -6 4 -7 17 -3 32 6 23
7 23 8 3 1 -12 6 -25 11 -28 6 -3 10 -12 10 -19 0 -17 -48 -27 -53 -12 -2 6
-3 2 -1 -8 2 -11 -2 -26 -8 -33 -8 -10 -6 -13 7 -13 11 0 15 -5 11 -15 -3 -8
0 -15 6 -15 7 0 6 -5 -2 -15 -13 -16 -40 -21 -40 -7 0 4 5 13 11 19 7 7 8 13
0 17 -13 8 -25 -36 -17 -62 4 -11 0 -24 -9 -32 -12 -10 -15 -9 -16 6 0 13 -2
15 -6 5 -3 -8 2 -20 13 -28 17 -12 16 -13 -7 -15 -46 -2 -84 4 -91 15 -4 7 -8
10 -9 7 0 -3 -2 -13 -4 -22 -3 -14 2 -17 23 -13 23 4 22 3 -7 -10 -18 -9 -41
-23 -50 -32 -15 -16 -16 -15 -19 5 -2 12 -8 22 -13 22 -5 0 -9 5 -9 11 0 6 9
8 21 4 19 -6 20 -5 8 8 -16 17 -36 12 -42 -11 -4 -15 -5 -15 -6 1 -2 27 -16
20 -16 -8 0 -22 4 -25 23 -20 25 6 29 -7 7 -28 -11 -11 -11 -17 -3 -19 7 -3 5
-7 -5 -11 -12 -5 -17 -1 -17 13 0 11 -4 20 -10 20 -5 0 -7 -7 -4 -15 8 -19
-10 -20 -25 -1 -9 11 -9 15 1 19 9 4 7 6 -4 6 -9 1 -19 9 -21 19 -2 9 -3 7 -2
-5 1 -12 -3 -24 -9 -27 -6 -2 -3 -5 7 -5 9 -1 17 -5 17 -11 0 -5 -8 -10 -17
-10 -10 0 -29 -3 -43 -7 l-25 -6 23 19 c16 13 25 32 26 57 2 20 -1 37 -5 37
-4 0 -8 -8 -8 -17 -1 -40 -5 -51 -23 -62 -11 -7 -18 -7 -18 -1 0 5 5 10 10 10
6 0 10 5 10 10 0 6 -7 10 -15 10 -15 0 -17 -3 -18 -42 -1 -13 -9 -26 -19 -30
-10 -4 -16 -15 -13 -27 2 -13 -3 -22 -14 -26 -10 -3 -27 -14 -39 -26 -12 -11
-22 -15 -22 -10 0 6 9 15 21 21 12 7 18 18 15 26 -3 8 -1 14 4 14 17 0 11 25
-10 43 -16 14 -20 14 -20 2 0 -8 8 -19 18 -24 9 -6 12 -11 6 -11 -17 0 -34 23
-34 47 0 14 -6 23 -15 23 -8 0 -15 -4 -15 -10 0 -5 5 -10 10 -10 6 0 10 -7 10
-15 0 -19 -17 -19 -53 0 -27 14 -28 13 -22 -6 6 -18 5 -19 -14 -10 -15 8 -21
8 -21 1 0 -16 28 -24 43 -12 14 11 57 -2 57 -18 0 -6 -5 -20 -11 -31 -9 -17
-13 -18 -26 -7 -15 12 -15 11 -4 -9 9 -18 9 -23 0 -23 -7 0 -10 -3 -6 -6 3 -4
-1 -13 -9 -21 -8 -9 -18 -12 -22 -8 -4 4 -1 10 6 12 6 3 10 9 6 14 -3 5 -1 9
4 9 5 0 7 11 4 25 -4 24 -22 36 -22 14 0 -5 -4 -8 -9 -5 -5 3 -14 0 -20 -8 -9
-11 -9 -15 1 -19 9 -4 9 -6 1 -6 -17 -1 -26 18 -15 32 14 16 10 66 -5 71 -8 3
-11 -5 -8 -24 2 -21 0 -27 -10 -24 -8 3 -11 13 -8 22 5 11 2 14 -8 10 -11 -4
-16 3 -17 29 -2 23 1 33 10 32 23 -3 41 1 35 7 -3 4 -2 16 4 27 8 14 8 18 0
13 -6 -4 -12 0 -12 8 -3 29 -4 34 -11 41 -4 4 -4 14 -1 23 4 10 3 14 -2 10 -4
-4 -9 -15 -10 -25 -1 -10 -7 -31 -13 -46 -11 -26 -13 -27 -28 -13 -21 22 -30
20 -39 -6 -7 -22 -7 -22 -13 -3 -12 34 -30 60 -37 53 -4 -4 0 -15 10 -24 13
-14 14 -19 3 -25 -10 -7 -10 -9 0 -9 6 0 12 -9 12 -19 0 -14 5 -18 20 -14 11
3 18 8 16 12 -3 4 -1 13 3 19 6 10 11 9 21 -3 9 -11 9 -15 1 -15 -7 0 -10 -4
-7 -8 2 -4 1 -14 -5 -22 -6 -11 -9 -12 -9 -2 0 7 -5 10 -10 7 -6 -4 -8 -10 -5
-15 3 -4 -4 -6 -16 -3 -14 4 -25 -1 -35 -16 -16 -22 -44 -29 -44 -11 0 6 7 13
15 16 8 4 15 11 15 16 0 6 -6 5 -15 -2 -12 -10 -15 -10 -15 4 0 9 -4 16 -10
16 -5 0 -10 -6 -10 -12 0 -9 -4 -8 -10 2 -5 8 -7 22 -5 31 3 9 -1 21 -9 28
-11 9 -15 7 -18 -13 -3 -14 -2 -23 2 -21 5 3 10 -1 13 -9 4 -9 -3 -17 -16 -21
-14 -4 -17 -8 -9 -12 14 -6 16 -33 2 -33 -5 0 -10 5 -10 11 0 6 -5 7 -12 2
-24 -14 -38 -11 -38 7 0 10 5 22 12 26 8 5 9 2 5 -9 -3 -10 -3 -17 1 -17 4 0
13 13 19 30 10 27 10 29 -7 20 -17 -9 -30 -4 -30 12 0 4 11 8 25 8 14 0 25 4
25 9 0 5 -15 9 -33 8 -24 -2 -32 -6 -31 -19 1 -11 -5 -18 -17 -18 -13 0 -19
-7 -19 -22 0 -20 1 -20 18 -5 25 23 37 22 15 -1 -20 -21 -100 -49 -110 -39 -3
4 4 7 16 7 14 0 20 4 15 12 -5 8 -2 9 9 5 20 -7 29 5 21 27 -5 12 -10 13 -25
5 -10 -5 -19 -7 -19 -5 0 3 14 13 31 21 23 12 29 21 24 36 -4 11 -1 26 5 34 8
9 8 15 2 15 -6 0 -12 -6 -15 -12 -3 -9 -8 -10 -16 -2 -11 10 6 23 52 38 10 3
15 11 11 17 -3 6 -9 7 -13 2 -12 -18 -108 -51 -122 -42 -22 14 -35 10 -14 -4
17 -13 17 -14 -2 -19 -12 -3 -27 -2 -34 3 -10 6 -11 9 -1 9 6 0 12 5 12 10 0
6 -6 10 -14 10 -15 0 -16 -16 -3 -37 4 -6 1 -14 -5 -17 -14 -6 29 4 50 11 8 4
10 0 6 -11 -3 -9 -10 -13 -15 -10 -5 3 -18 3 -28 -1 -15 -4 -19 -14 -18 -38 1
-18 6 -35 12 -39 6 -5 5 -8 -2 -8 -9 0 -13 -18 -13 -56 0 -34 4 -53 10 -49 5
3 10 1 10 -4 0 -6 -4 -11 -10 -11 -7 0 -10 -144 -10 -412 0 -238 4 -407 9
-399 7 11 17 11 62 0 30 -7 58 -16 63 -21 6 -4 17 -8 25 -8 9 0 1 8 -16 16
-18 9 -33 21 -33 26 0 5 -4 6 -10 3 -5 -3 -10 -4 -10 0 0 3 10 10 23 15 18 8
16 9 -13 4 -26 -4 -31 -3 -20 5 8 6 31 11 50 12 24 0 29 3 18 7 -15 6 -13 9
13 21 23 10 34 10 42 2 8 -8 5 -11 -11 -11 -12 0 -22 -5 -22 -11 0 -6 7 -8 16
-5 9 3 12 2 9 -5 -6 -9 23 -6 65 7 8 3 11 1 6 -3 -4 -4 -24 -14 -44 -20 l-37
-13 35 5 c32 5 33 4 15 -10 -19 -15 -19 -15 7 -9 18 4 28 2 28 -5 0 -11 -26
-16 -65 -12 -19 2 -19 1 -2 -16 14 -15 21 -16 37 -5 13 8 20 8 20 2 0 -6 -15
-17 -33 -25 l-32 -14 47 -1 c38 0 46 -3 42 -15 -4 -11 1 -15 17 -16 17 -1 14
-4 -11 -9 -19 -4 -27 -8 -17 -9 9 0 17 -5 17 -11 0 -5 -8 -14 -17 -19 -16 -9
-16 -10 5 -11 26 0 30 -20 5 -21 -15 0 -15 -2 2 -9 18 -7 18 -8 -8 -15 -15 -4
-27 -14 -27 -22 0 -8 4 -11 10 -8 5 3 10 -3 10 -15 0 -12 5 -18 10 -15 6 4 8
10 5 15 -3 4 2 10 10 14 19 7 19 1 0 -28 -14 -21 -14 -23 11 -35 25 -11 25
-13 10 -30 -9 -10 -16 -21 -16 -26 0 -4 -8 -14 -17 -21 -10 -7 -15 -15 -12
-18 3 -4 17 2 30 13 l25 19 -1 -33 c0 -18 -4 -37 -9 -42 -5 -5 -6 -3 -2 5 13
21 -8 13 -34 -15 -23 -24 -23 -25 -3 -15 27 15 36 15 28 2 -3 -6 1 -7 9 -4 9
3 16 1 16 -5 0 -6 -4 -12 -10 -12 -5 -1 -14 -2 -19 -3 -5 0 -19 -14 -32 -30
l-23 -29 29 19 28 19 -7 -35 c-5 -19 -9 -45 -10 -57 0 -12 -8 -28 -16 -35 -12
-11 -12 -11 -3 2 15 21 1 53 -26 57 -20 3 -22 0 -17 -22 4 -14 2 -25 -4 -25
-5 0 -10 -7 -10 -16 0 -8 5 -12 11 -8 8 5 8 1 0 -14 -9 -18 -16 -19 -43 -11
-40 11 -38 11 -38 -1 0 -5 3 -9 8 -8 4 1 22 -3 40 -10 31 -10 33 -14 27 -42
-4 -19 -3 -30 4 -30 6 0 11 -4 11 -9 0 -4 -12 -6 -27 -3 -27 5 -27 4 -12 -14
37 -44 27 -68 -23 -57 -18 4 -20 3 -8 -6 21 -15 0 -13 -50 4 -52 18 -66 18
-25 0 28 -13 29 -14 6 -15 -39 0 -17 -11 35 -16 56 -7 71 -14 27 -14 -37 0
-47 -9 -30 -28 10 -13 8 -14 -19 -10 -30 4 -54 -10 -54 -32 0 -15 17 -12 24 5
3 8 12 15 21 15 17 0 55 -35 55 -51 0 -6 6 -9 13 -6 10 4 13 -1 10 -17 -3 -16
2 -26 19 -34 23 -13 23 -13 0 -8 -12 2 -22 0 -22 -6 0 -5 -6 -6 -12 -3 -7 4
-1 -3 14 -15 32 -25 35 -42 12 -64 -8 -9 -11 -16 -6 -16 12 0 13 -58 1 -65 -5
-4 -10 6 -10 22 -2 24 -2 25 -6 5 -2 -12 -8 -20 -12 -18 -4 3 -6 -20 -4 -50 1
-33 -1 -52 -7 -49 -6 3 -10 2 -10 -4 0 -6 -7 -8 -15 -5 -15 6 -16 3 -19 -43
-1 -19 -6 -26 -18 -22 -22 6 -38 5 -38 -2 0 -6 7 -9 16 -7 10 2 18 -5 20 -17
3 -20 -13 -34 -58 -51 -17 -6 -18 -29 -18 -291 l0 -285 24 4 c16 3 27 0 31
-10 4 -12 -1 -13 -25 -9 -17 4 -30 2 -30 -3 0 -9 14 -14 32 -11 4 0 5 -5 2
-13 -3 -8 -1 -17 4 -20 5 -3 12 3 15 14 3 11 11 20 19 19 10 0 10 -2 1 -6 -7
-2 -13 -11 -13 -18 0 -25 -20 -27 -39 -4 -18 23 -18 23 -20 -37 -1 -55 1 -62
24 -74 14 -7 23 -15 21 -17 -2 -3 -14 0 -25 7 -20 10 -21 8 -21 -43 l0 -53 40
2 c26 1 40 -3 40 -11 0 -14 -24 -36 -36 -34 -5 1 -17 1 -27 0 -17 -1 -18 -21
-16 -334 1 -236 5 -334 13 -339 8 -6 7 -8 -1 -8 -10 0 -13 -296 -13 -1445 l0
-1445 1676 0 c1161 0 1673 3 1669 10 -12 19 17 40 55 40 79 0 132 -12 138 -32
4 -17 18 -18 194 -18 185 0 189 0 183 20 -5 16 -2 20 15 20 13 0 24 -8 27 -20
5 -20 14 -20 7624 -20 l7619 0 0 5400 0 5400 -7591 0 -7590 0 6 -20 c5 -15 1
-22 -17 -29 -29 -11 -48 -4 -41 15 3 8 2 14 -3 13 -5 -1 -16 -1 -24 1 -11 1
-9 4 5 10 16 7 13 9 -16 9 l-35 1 63 -67 c35 -38 63 -74 63 -80 0 -7 -11 -13
-25 -13 -25 0 -35 -23 -15 -35 6 -3 10 -16 10 -29 0 -12 11 -33 24 -45 27 -25
62 -98 53 -108 -4 -3 -19 -1 -33 6 -21 9 -25 17 -21 36 3 18 0 25 -11 25 -8 0
-30 16 -49 36 -27 29 -33 42 -28 61 4 19 1 26 -14 30 -12 3 -27 19 -36 36 -18
36 -18 37 -5 37 6 0 10 -7 10 -15 0 -17 46 -42 57 -32 13 14 -67 79 -94 77 -5
-1 -9 8 -11 19 -7 43 -48 61 -138 61 -48 0 -84 -4 -84 -10z m536 -177 c-4 -14
4 -22 37 -36 43 -17 116 -80 118 -101 2 -23 -3 -62 -12 -77 -5 -11 -2 -36 11
-71 18 -51 23 -105 34 -345 4 -86 25 -222 47 -304 17 -65 8 -131 -18 -136 -12
-3 -33 78 -33 130 0 20 -9 42 -25 59 -14 15 -25 37 -26 50 0 22 -17 71 -18 55
-1 -5 -6 -5 -11 -2 -8 5 -7 12 2 23 11 13 11 14 -1 8 -10 -7 -12 -2 -6 23 5
24 3 32 -10 37 -11 5 -15 14 -11 29 4 14 0 28 -9 35 -8 7 -15 20 -15 29 0 9
-7 25 -15 35 -8 11 -15 28 -15 38 0 9 -9 32 -20 50 -11 18 -20 44 -20 58 1 27
31 70 49 70 6 0 11 5 11 11 0 15 -33 69 -42 69 -4 0 -8 17 -8 39 0 21 -6 44
-14 50 -7 6 -16 35 -18 63 -4 34 -12 56 -24 65 -14 10 -15 16 -6 25 6 6 13 10
15 7 1 -2 16 -24 32 -49 16 -25 30 -47 32 -49 1 -2 8 1 15 7 19 15 50 -11 46
-38 -2 -16 4 -25 20 -31 26 -10 29 5 11 45 -11 23 -62 56 -88 56 -6 0 -16 10
-22 23 -7 12 -19 28 -28 34 -14 11 -14 14 -1 23 24 16 42 12 36 -7z m-2364
-767 c5 -8 8 -7 8 2 0 8 5 10 13 5 6 -4 17 -8 22 -9 6 0 16 -2 24 -2 11 -2 11
-5 1 -17 -14 -17 -7 -19 18 -6 28 15 87 17 85 3 -2 -7 6 -12 17 -12 11 0 23
-7 27 -16 4 -10 13 -14 27 -10 12 3 32 2 45 -1 23 -6 23 -7 6 -20 -22 -16 -12
-17 16 -2 15 8 35 7 72 -2 29 -7 52 -10 52 -8 1 2 20 -11 43 -30 24 -18 46
-31 49 -28 3 4 15 2 25 -4 14 -7 17 -14 10 -21 -7 -7 -4 -16 9 -29 11 -11 17
-24 14 -29 -11 -17 -25 -11 -35 15 -11 29 -25 32 -34 8 -5 -12 -9 -14 -18 -5
-15 15 -31 16 -22 1 4 -7 1 -10 -7 -7 -8 3 -13 12 -11 22 3 19 -14 22 -22 4
-3 -10 -9 -8 -19 5 -8 9 -17 17 -20 17 -3 0 -8 -8 -10 -17 -4 -15 -6 -14 -12
5 -5 14 -13 21 -21 18 -8 -3 -30 10 -50 28 -21 20 -44 32 -54 29 -19 -5 -23
-31 -7 -50 14 -19 -8 -16 -23 2 -7 9 -10 18 -7 21 8 8 -18 34 -34 34 -8 0 -8
-4 1 -15 14 -17 7 -31 -10 -20 -6 4 -10 14 -8 23 2 18 -22 62 -34 62 -4 0 -2
-11 4 -25 6 -14 9 -28 5 -31 -10 -10 -27 6 -27 27 0 10 -4 19 -10 19 -5 0 -10
-4 -10 -10 0 -5 -6 -10 -14 -10 -7 0 -19 -7 -27 -16 -7 -9 -22 -14 -36 -11
-12 2 -24 -1 -27 -7 -3 -7 -5 -6 -5 2 -1 8 8 16 19 19 25 7 26 23 1 23 -10 0
-24 7 -31 15 -7 8 -18 15 -26 15 -7 0 -17 8 -22 17 -21 37 57 65 80 29z m1443
-803 c10 -13 10 -20 -1 -30 -7 -8 -11 -20 -7 -29 5 -13 8 -13 25 3 16 15 21
15 28 3 6 -9 5 -17 -3 -22 -8 -5 -6 -8 7 -8 23 0 101 -76 86 -85 -19 -12 -10
-27 12 -22 27 8 82 -48 74 -75 -2 -10 0 -18 4 -18 14 0 70 -60 70 -75 0 -7 7
-15 15 -19 8 -3 15 -15 15 -26 0 -11 6 -20 14 -20 15 0 79 -117 71 -130 -3 -4
4 -10 15 -13 12 -3 20 -14 20 -26 0 -12 5 -21 10 -21 6 0 10 -5 10 -11 0 -6 8
-21 19 -34 17 -22 20 -23 40 -9 24 18 28 34 6 34 -8 0 -15 3 -15 8 0 11 20 38
20 27 0 -6 14 -16 30 -23 21 -10 30 -21 30 -37 0 -15 8 -25 23 -29 l22 -6 -20
-18 c-36 -30 -54 -63 -45 -81 4 -9 14 -29 21 -46 7 -16 21 -37 31 -45 14 -12
18 -30 19 -75 0 -113 -1 -137 -10 -153 -6 -10 -6 -24 0 -34 8 -15 14 -16 29
-8 17 9 20 7 20 -8 0 -24 10 -34 24 -24 20 14 86 33 95 28 5 -3 12 -22 15 -41
7 -38 -15 -88 -57 -129 -13 -13 -16 -21 -8 -29 6 -6 11 -20 11 -30 0 -14 -5
-17 -17 -12 -13 4 -15 3 -7 -5 12 -12 6 -70 -7 -70 -5 0 -9 -9 -9 -20 0 -26
-34 -44 -59 -31 -10 6 -40 8 -67 5 -38 -4 -56 -1 -81 15 -18 12 -33 28 -33 36
0 19 9 19 50 -2 33 -16 34 -16 57 11 13 15 23 39 24 54 0 15 2 37 5 49 2 12
-1 34 -6 49 -8 20 -15 25 -33 21 -26 -7 -75 33 -94 76 -13 28 -62 55 -72 39
-3 -5 -17 -5 -31 -2 l-25 7 27 8 c24 6 26 9 15 27 -8 12 -20 18 -34 15 -32 -6
-36 19 -8 41 13 11 22 22 18 26 -7 7 26 46 40 46 5 0 6 -11 3 -25 -4 -14 -2
-25 4 -25 5 0 10 -8 10 -18 0 -10 7 -28 16 -40 9 -13 13 -29 10 -37 -3 -10 1
-15 13 -15 27 0 33 12 14 32 -16 18 -16 18 0 12 27 -10 30 19 8 57 -12 19 -24
41 -28 49 -4 8 -12 20 -19 25 -6 6 -19 31 -29 57 -9 26 -23 49 -31 52 -8 3
-14 15 -14 26 0 11 -5 29 -12 39 -13 21 -4 56 12 46 6 -4 22 1 36 10 20 13 23
19 14 30 -7 8 -7 15 -1 19 6 4 4 18 -6 36 -15 31 -33 40 -33 18 -1 -20 -30 24
-30 44 0 24 -29 35 -41 17 -6 -9 -7 -3 -3 17 7 38 -11 54 -31 28 -12 -17 -13
-14 -3 18 10 34 12 36 25 20 10 -12 13 -13 9 -2 -3 8 -9 23 -12 33 -4 9 -11
17 -17 17 -6 0 -7 -3 -4 -6 4 -4 -3 -16 -15 -26 -24 -20 -41 -7 -19 15 12 12
15 47 5 47 -4 0 -13 -8 -20 -17 -13 -17 -13 -17 -14 0 0 9 5 17 11 17 8 0 8 5
-1 15 -7 8 -10 25 -6 40 4 14 2 25 -3 25 -5 0 -11 -9 -14 -20 -8 -31 -27 -24
-27 10 0 19 -7 33 -20 40 -16 9 -20 20 -18 51 1 22 6 43 10 45 10 6 1 24 -11
24 -5 0 -12 -15 -16 -32 l-8 -33 -4 29 c-3 17 1 32 9 37 10 7 10 9 1 9 -7 0
-13 9 -13 20 0 11 -7 20 -15 20 -9 0 -15 -6 -13 -13 7 -30 -18 -19 -29 13 -7
19 -12 29 -12 23 -1 -7 -5 -13 -11 -13 -5 0 -9 3 -8 8 2 13 -15 47 -34 65 -10
10 -18 32 -18 52 0 38 15 45 35 18z m271 -1499 c-3 -8 1 -22 9 -30 20 -21 20
-58 0 -50 -26 10 -18 -40 9 -58 18 -11 23 -22 19 -38 -10 -48 -12 -49 -32 -38
-14 7 -22 7 -27 -1 -4 -8 -9 -7 -15 2 -6 10 -9 10 -9 2 0 -7 -7 -10 -16 -6
-14 5 -15 3 -4 -17 10 -18 14 -20 21 -9 7 11 9 9 10 -6 5 -70 1 -119 -10 -123
-16 -5 -41 -31 -41 -43 0 -16 19 -10 37 11 10 11 21 20 25 20 14 0 8 -22 -9
-37 -17 -13 -16 -14 7 -8 46 12 70 13 65 4 -4 -5 3 -19 14 -31 14 -14 21 -35
21 -59 0 -33 -7 -43 -54 -83 -29 -25 -60 -46 -69 -46 -9 0 -18 -3 -20 -7 -7
-12 26 -105 51 -146 22 -34 23 -44 16 -114 -8 -90 -24 -115 -54 -88 -11 10
-20 30 -20 44 0 17 -14 39 -40 65 -22 21 -40 46 -40 56 0 10 -7 23 -15 30 -9
7 -14 19 -11 26 3 7 1 16 -4 19 -14 9 -1 56 22 82 16 17 19 29 13 65 -12 79
-51 190 -77 224 -19 24 -19 24 4 33 l23 9 -27 11 c-18 7 -26 15 -22 25 3 8 1
23 -5 34 -7 14 -7 19 4 19 8 0 13 -3 12 -6 0 -3 2 -16 7 -28 11 -32 29 -29 23
4 -3 16 3 41 14 62 10 20 19 41 19 48 0 6 13 21 29 32 l29 21 7 -30 c8 -36 9
-36 42 -10 20 15 22 20 9 20 -14 0 -11 9 14 45 l31 46 -25 -7 c-23 -5 -26 -3
-24 17 3 26 34 58 57 59 8 0 11 -6 7 -16z m240 -600 c-6 -25 -22 -56 -35 -70
-13 -13 -18 -24 -12 -24 6 0 11 -5 11 -11 0 -5 -4 -7 -10 -4 -6 3 -10 -5 -10
-19 0 -14 -6 -29 -14 -33 -7 -4 -19 -26 -26 -48 -17 -54 -27 -65 -61 -65 -39
0 -37 24 6 75 28 32 35 36 35 21 0 -14 3 -17 10 -10 7 7 7 21 -1 43 -10 29 -8
39 20 95 36 73 66 107 85 100 11 -4 12 -13 2 -50z m11998 -840 c175 -383 321
-704 323 -715 5 -18 -2 -19 -180 -19 l-184 0 -89 190 -89 190 -272 0 -273 0
-93 -187 -94 -188 -116 -3 c-64 -1 -117 0 -117 4 0 4 129 275 287 603 157 328
310 647 340 709 l54 112 92 0 93 0 318 -696z m-5894 361 l0 -305 280 0 280 0
0 305 0 305 185 0 185 0 0 -700 0 -700 -182 2 -183 3 -3 328 -2 327 -280 0
-280 0 0 -330 0 -330 -170 0 -170 0 0 700 0 700 170 0 170 0 0 -305z m1600
-152 c0 -252 5 -485 10 -518 21 -129 96 -231 209 -284 48 -22 69 -26 146 -25
69 0 101 5 138 22 101 45 181 150 206 270 7 35 11 215 11 522 l0 470 120 0
120 0 0 -493 c0 -542 -1 -555 -62 -668 -65 -123 -211 -219 -387 -255 -129 -25
-367 -16 -477 20 -179 58 -300 177 -362 355 -13 39 -16 123 -19 544 l-4 497
175 0 176 0 0 -457z m1860 -13 c129 -258 238 -466 242 -462 4 4 112 214 241
467 l235 460 176 3 176 2 0 -695 0 -695 -185 0 -185 0 -2 437 -3 437 -225
-442 -225 -442 -65 0 -66 0 -237 453 -237 452 0 -447 0 -448 -110 0 -110 0 0
695 0 695 173 0 172 0 235 -470z m3565 25 l395 -446 0 446 0 445 120 0 120 0
0 -700 0 -700 -119 0 -118 0 -394 470 c-217 258 -397 469 -401 470 -5 0 -8
-211 -8 -470 l0 -470 -110 0 -110 0 0 700 0 700 115 0 114 0 396 -445z
m-15459 -291 c-9 -22 36 -103 81 -145 50 -47 128 -79 193 -79 74 0 143 36 218
114 40 43 67 63 77 60 8 -4 15 -10 15 -15 0 -5 6 -9 14 -9 8 0 24 -8 36 -18
20 -16 21 -24 15 -63 -15 -87 -114 -141 -285 -155 -68 -6 -80 -10 -80 -25 0
-11 9 -19 24 -21 17 -2 22 -7 17 -20 -10 -27 -55 0 -59 35 -3 20 -9 27 -25 27
-12 0 -40 3 -62 5 -35 5 -37 4 -17 -6 23 -12 30 -29 12 -29 -5 0 -10 5 -10 10
0 6 -8 10 -17 10 -14 0 -13 -3 5 -16 12 -8 22 -19 22 -24 0 -13 -39 -23 -53
-13 -7 5 -25 10 -42 12 -16 2 -36 8 -43 13 -7 6 -32 12 -57 14 -54 3 -65 9
-65 35 0 22 11 24 28 7 8 -8 12 -9 12 -1 0 8 13 6 39 -4 23 -9 48 -12 58 -8
12 5 14 9 5 12 -6 3 -10 8 -7 13 9 15 -35 22 -53 9 -14 -11 -15 -11 -5 1 10
11 -3 21 -70 54 -81 41 -82 41 -88 85 -5 41 -3 47 30 78 40 38 87 66 99 59 4
-3 14 -1 22 5 21 12 23 11 16 -7z m-226 -245 c0 -4 -6 -10 -12 -13 -7 -3 7 -4
31 -1 36 5 42 3 38 -10 -7 -17 8 -21 18 -5 8 13 42 13 50 0 4 -6 2 -17 -5 -24
-8 -11 -8 -15 2 -19 9 -3 10 -8 2 -16 -7 -8 -19 -4 -44 14 -23 17 -37 22 -45
15 -8 -7 -22 -5 -41 5 -16 8 -38 15 -50 15 -11 0 -24 3 -28 7 -9 10 -76 12
-71 3 3 -4 -5 -10 -18 -13 -12 -2 -31 -8 -42 -12 -11 -5 -17 -5 -13 0 12 13
-35 45 -50 33 -9 -8 -11 -7 -6 5 5 13 18 16 65 13 33 -2 61 -1 63 3 6 9 156 9
156 0z m2186 -481 c71 -56 77 -80 37 -143 -36 -55 -78 -83 -133 -91 -41 -5
-48 -3 -74 25 -24 25 -28 38 -27 78 1 60 15 110 37 134 26 29 122 26 160 -3z
m-1698 -116 c2 -7 -6 -12 -20 -13 -21 0 -22 -1 -3 -8 12 -5 26 -4 34 3 12 9
12 8 2 -11 -6 -13 -16 -23 -22 -23 -6 0 -7 5 -4 10 3 6 2 10 -4 10 -6 0 -15
-9 -21 -20 -10 -19 -9 -20 17 -13 15 4 36 7 45 7 13 0 16 6 12 18 -4 14 0 18
18 18 19 0 20 -2 8 -11 -11 -8 -12 -12 -2 -16 14 -6 16 -33 2 -33 -6 0 -5 -8
2 -20 10 -16 10 -22 0 -32 -11 -11 -12 -10 -7 3 4 10 2 20 -4 24 -7 4 -11 -3
-11 -17 0 -13 -5 -29 -10 -34 -7 -7 -1 -9 20 -6 22 3 30 10 30 25 0 21 26 46
49 47 8 0 3 -8 -10 -20 -13 -10 -18 -19 -11 -20 18 0 15 -20 -3 -20 -9 0 -15
-7 -13 -17 4 -21 -31 -30 -44 -11 -6 9 -7 5 -3 -11 5 -15 3 -21 -3 -17 -6 3
-13 -7 -17 -24 -4 -16 -11 -30 -16 -30 -12 0 -11 7 2 32 10 18 9 20 -7 14 -17
-6 -17 -6 -1 11 10 12 13 23 7 33 -5 8 -5 19 -1 25 5 5 5 20 0 33 -11 29 -17
28 -12 -2 3 -13 0 -27 -6 -30 -6 -4 -11 -2 -11 3 0 6 -5 11 -10 11 -6 0 -3
-11 6 -25 16 -24 16 -25 -10 -25 -24 0 -26 3 -20 28 4 15 14 35 22 45 15 16
14 18 -6 24 -12 3 -22 8 -23 12 0 3 -2 15 -4 27 -8 39 51 81 63 46z m207 -68
l10 -30 40 27 c22 15 42 23 43 18 5 -12 32 -12 32 0 0 5 -6 12 -12 14 -7 3 -3
6 9 6 12 1 27 -7 32 -16 7 -11 14 -14 18 -8 13 16 40 17 46 1 4 -9 0 -12 -12
-9 -10 2 -30 -9 -49 -26 -32 -32 -54 -42 -33 -17 7 8 8 17 3 20 -11 6 -44 -38
-36 -47 3 -3 13 -3 22 1 12 4 10 -2 -7 -26 -12 -18 -20 -36 -17 -41 3 -5 -4
-7 -16 -3 -17 4 -20 2 -15 -11 4 -11 0 -15 -14 -14 -26 2 -24 12 6 35 38 30
30 35 -14 10 -22 -12 -43 -19 -48 -15 -4 5 -1 12 7 17 8 6 11 10 6 10 -5 0 -3
7 4 15 11 13 10 14 -4 9 -9 -3 -16 -1 -16 5 0 6 5 11 10 11 7 0 7 6 0 19 -5
11 -7 27 -4 35 5 12 0 16 -20 16 -14 0 -26 -5 -26 -11 0 -7 -11 -9 -26 -6 -16
3 -28 0 -31 -9 -6 -16 -23 -19 -23 -5 0 5 7 17 16 26 13 13 19 13 32 3 14 -11
15 -10 9 6 -6 15 -4 17 13 13 11 -3 20 -1 20 5 0 22 36 0 45 -28z m-572 -12
c24 -31 26 -38 12 -40 -13 -3 -14 -7 -4 -18 9 -11 8 -14 -7 -14 -15 -1 -12 -4
9 -16 29 -16 53 -10 27 6 -13 8 -12 11 5 24 23 16 37 12 28 -9 -3 -8 0 -15 7
-15 7 0 10 -7 6 -15 -8 -22 13 -18 33 6 l16 20 27 -29 c27 -31 28 -45 2 -35
-8 3 -14 0 -14 -6 0 -6 -7 -11 -15 -11 -8 0 -15 5 -15 10 0 6 -8 10 -17 10
-17 -1 -17 -2 -2 -13 16 -12 16 -14 0 -33 -9 -11 -23 -18 -31 -17 -22 4 -44
-13 -35 -27 6 -10 11 -9 22 5 12 18 13 17 14 -6 0 -21 1 -22 8 -5 6 17 8 17
14 4 3 -9 3 -25 0 -36 -4 -18 -8 -19 -29 -10 -13 6 -21 14 -19 18 3 5 -2 11
-10 14 -9 3 -18 -1 -21 -9 -4 -10 -14 -13 -30 -9 -14 4 -34 0 -47 -9 -15 -10
-29 -12 -38 -6 -12 8 -6 13 13 10 4 0 10 8 13 19 4 11 11 20 16 20 6 0 7 -4 4
-10 -3 -5 -1 -10 4 -10 6 0 11 7 11 15 0 8 -4 15 -10 15 -5 0 -10 5 -10 11 0
6 6 9 13 6 8 -3 12 4 11 22 -1 14 -3 32 -3 38 -1 10 -7 10 -26 1 -14 -6 -25
-15 -25 -20 0 -4 -7 -8 -15 -8 -8 0 -15 -5 -15 -10 0 -7 7 -7 21 0 11 6 25 9
32 6 7 -2 4 -5 -5 -5 -10 -1 -18 -5 -18 -11 0 -5 -7 -10 -16 -10 -8 0 -13 -4
-10 -9 3 -5 -7 -11 -22 -14 -35 -7 -41 0 -11 12 23 9 23 10 -8 10 -26 1 -30 4
-26 21 3 11 10 23 16 27 6 4 8 0 4 -10 -3 -10 -5 -17 -3 -17 10 0 60 30 51 31
-30 2 -50 9 -53 18 -5 15 -35 14 -51 -1 -8 -7 -5 1 5 17 23 38 29 44 21 24 -4
-13 2 -18 24 -21 33 -5 40 7 8 15 -13 4 -18 10 -14 17 6 9 10 9 16 -1 6 -9 9
-10 9 -2 0 6 3 19 6 27 5 12 2 15 -10 10 -9 -3 -16 -1 -16 5 0 6 16 10 35 9
19 -1 32 -5 30 -9 -3 -4 4 -5 15 -2 11 3 20 1 20 -5 0 -5 -12 -13 -26 -16 -20
-5 -24 -11 -18 -28 5 -16 3 -19 -7 -12 -11 6 -10 3 1 -10 10 -13 16 -14 18 -6
3 9 6 9 12 0 6 -11 12 -10 24 3 22 22 20 27 -11 28 l-28 1 30 7 c37 9 45 5 45
-20 0 -11 5 -17 10 -14 7 4 8 -3 4 -20 -6 -22 -4 -26 11 -23 10 1 20 9 23 16
2 8 -2 10 -14 5 -12 -4 -15 -3 -10 5 4 7 3 19 -2 29 -6 10 -6 29 -1 47 6 20 5
32 -1 34 -6 2 -8 8 -4 13 3 5 -2 9 -10 9 -9 0 -16 7 -16 15 0 24 13 17 43 -23z
m343 -217 c-15 -23 -15 -26 -1 -31 8 -4 21 -2 28 3 25 20 47 23 47 7 0 -11 -6
-13 -19 -9 -14 4 -21 0 -27 -17 -4 -13 -7 -27 -6 -31 1 -5 -2 -6 -8 -2 -5 3
-13 -1 -16 -9 -3 -9 -15 -16 -25 -16 -12 0 -16 -5 -13 -14 3 -8 0 -17 -7 -22
-7 -4 -15 -2 -17 4 -2 7 -8 12 -13 12 -4 0 -6 -8 -3 -17 5 -15 4 -15 -4 -4 -9
12 -13 12 -26 2 -8 -7 -20 -10 -25 -7 -17 11 -1 33 25 35 46 3 54 4 54 12 0
34 -88 -1 -101 -40 -12 -33 -42 -45 -70 -28 -22 14 -25 27 -5 27 7 0 17 14 22
32 10 35 36 53 27 19 -3 -12 -1 -21 5 -21 13 0 22 39 10 46 -5 3 -21 3 -36 -1
-25 -6 -26 -6 -9 12 11 13 13 23 7 29 -7 7 -6 11 4 11 8 0 14 -5 13 -10 -1 -5
4 -12 12 -15 9 -3 12 0 9 10 -7 16 44 43 66 35 7 -3 18 -1 23 4 7 7 16 5 27
-6 14 -14 16 -15 16 -1 0 9 6 13 14 10 8 -3 17 -1 21 5 3 6 9 11 12 11 3 0 -2
-11 -11 -25z m-1145 -379 c6 -6 9 -3 9 8 0 12 5 16 15 12 9 -3 15 0 15 9 0 17
16 20 25 5 4 -6 11 -8 16 -5 5 4 12 -1 15 -10 5 -12 9 -13 20 -4 11 9 14 8 14
-4 0 -25 25 -40 40 -22 10 12 9 15 -6 16 -14 0 -10 4 11 14 32 14 49 10 25 -5
-10 -7 -11 -10 -2 -10 6 0 12 -10 12 -22 0 -19 2 -20 10 -8 6 9 10 10 10 3 0
-7 -7 -16 -16 -21 -11 -6 -13 -11 -5 -16 6 -4 11 -13 11 -19 0 -7 -4 -6 -10 3
-5 8 -10 10 -10 3 0 -6 -9 -9 -22 -5 -17 4 -20 2 -15 -11 5 -13 1 -17 -18 -17
-13 0 -26 -4 -30 -10 -3 -5 -13 -6 -21 -3 -8 3 -26 0 -40 -7 -21 -12 -26 -11
-38 5 -7 10 -18 15 -24 11 -12 -7 -42 3 -42 15 0 5 7 9 15 9 8 0 15 5 15 10 0
6 -8 10 -17 10 -15 0 -16 2 -3 10 11 7 12 10 2 10 -9 0 -11 7 -7 20 5 16 3 19
-11 13 -12 -4 -15 -3 -10 5 4 7 13 12 20 12 8 0 17 10 21 23 7 21 7 21 12 2 3
-11 9 -24 14 -29z m12399 -831 c0 -353 -1 -365 -19 -365 -14 0 -21 10 -26 38
l-6 39 -36 -33 c-46 -43 -92 -57 -158 -52 -67 6 -114 39 -146 105 -20 39 -24
64 -24 138 0 51 6 107 14 128 44 126 198 188 297 121 21 -15 42 -32 46 -38 4
-6 8 55 8 137 l0 147 25 0 25 0 0 -365z m1100 0 c0 -351 -1 -365 -19 -365 -14
0 -21 10 -25 35 l-7 35 -46 -35 c-106 -81 -244 -51 -296 64 -25 56 -30 204 -8
264 44 126 198 188 297 121 21 -15 42 -32 46 -38 4 -6 8 55 8 137 l0 147 25 0
25 0 0 -365z m-3590 325 c0 -19 -7 -20 -185 -20 l-185 0 0 -145 0 -145 155 0
c148 0 155 -1 155 -20 0 -19 -7 -20 -155 -20 l-155 0 0 -150 0 -150 185 0
c178 0 185 -1 185 -20 0 -19 -7 -20 -215 -20 l-215 0 0 355 0 355 215 0 c208
0 215 -1 215 -20z m720 -115 l0 -95 80 0 c73 0 80 -2 80 -20 0 -18 -7 -20 -80
-20 l-80 0 0 -181 c0 -100 4 -189 10 -199 16 -30 65 -35 105 -11 34 20 35 20
45 2 14 -27 -30 -54 -97 -59 -48 -4 -55 -2 -83 26 l-30 30 0 196 0 195 -42 3
c-57 4 -60 25 -5 33 l44 7 7 60 c3 34 6 76 6 94 0 27 4 34 20 34 19 0 20 -7
20 -95z m581 -88 c53 -28 97 -106 101 -177 l3 -45 -189 -3 -188 -2 7 -48 c17
-121 76 -177 185 -177 53 0 74 5 113 28 39 23 48 25 53 13 8 -22 -2 -33 -49
-58 -27 -13 -67 -23 -112 -25 -60 -4 -77 -1 -114 19 -60 32 -97 81 -116 153
-19 75 -19 118 0 183 41 135 187 202 306 139z m555 7 c20 -10 45 -34 59 -59
24 -41 25 -47 25 -238 l0 -197 -25 0 -25 0 0 186 c0 153 -3 192 -17 221 -38
82 -156 82 -240 1 l-33 -32 0 -188 0 -188 -25 0 -25 0 0 250 c0 241 1 250 20
250 14 0 21 -9 26 -35 l6 -34 32 24 c76 58 153 71 222 39z m1105 -7 c53 -28
97 -106 101 -177 l3 -45 -189 -3 -188 -2 6 -48 c10 -67 46 -133 86 -157 55
-32 151 -28 213 8 39 23 48 25 53 13 8 -22 -2 -33 -49 -58 -27 -13 -67 -23
-112 -25 -60 -4 -77 -1 -114 19 -61 33 -97 81 -117 158 -26 104 -5 211 54 274
63 67 172 85 253 43z m1813 -7 c44 -30 84 -107 88 -170 l3 -45 -189 -3 -188
-2 7 -48 c17 -121 76 -177 185 -177 53 0 74 5 113 28 39 23 48 25 53 13 8 -22
-2 -33 -49 -57 -58 -30 -154 -36 -212 -15 -185 71 -192 403 -10 488 57 27 150
21 199 -12z m506 20 c11 -6 17 -17 14 -24 -4 -10 -23 -14 -69 -13 -74 2 -106
-16 -142 -79 -21 -36 -23 -51 -23 -211 l0 -173 -25 0 -25 0 0 250 c0 238 1
250 19 250 20 0 31 -25 31 -74 l0 -29 23 34 c34 50 82 79 134 79 24 0 53 -5
63 -10z m380 -8 c36 -20 59 -47 47 -58 -3 -4 -30 3 -59 16 -81 35 -166 14
-188 -46 -23 -60 10 -91 133 -130 83 -26 128 -67 134 -124 4 -36 0 -52 -19
-79 -38 -56 -71 -75 -142 -79 -64 -4 -101 7 -153 48 -20 15 -21 19 -8 30 12
10 21 8 48 -9 98 -60 227 -19 227 73 0 52 -22 71 -124 106 -117 41 -149 69
-149 133 0 52 19 83 71 114 47 29 132 31 182 5z m765 -1 c81 -36 135 -133 135
-241 0 -67 -26 -145 -63 -187 -86 -98 -248 -98 -334 0 -42 48 -58 98 -58 187
0 89 16 139 58 187 42 48 99 73 167 73 32 0 72 -8 95 -19z m585 1 c22 -12 44
-35 58 -62 21 -41 22 -57 22 -237 l0 -193 -25 0 -25 0 0 186 c0 153 -3 192
-17 221 -38 82 -156 82 -240 1 l-33 -32 0 -188 0 -188 -25 0 -25 0 0 250 c0
241 1 250 20 250 14 0 21 -9 26 -35 l6 -35 38 30 c21 16 48 34 61 39 40 16
122 12 159 -7z m-6778 -97 c38 -55 72 -101 76 -103 4 -1 41 45 81 103 64 91
77 105 102 105 28 0 27 -2 -56 -116 -47 -64 -85 -120 -85 -126 0 -6 35 -60 78
-122 103 -146 98 -136 65 -136 -24 1 -38 15 -102 110 -41 61 -77 110 -81 110
-3 0 -37 -45 -74 -100 -78 -114 -87 -123 -116 -118 -19 3 -12 16 60 118 45 63
84 121 87 127 3 7 -31 65 -76 128 -45 64 -81 118 -81 121 0 3 12 4 27 2 22 -2
41 -23 95 -103z m3749 83 c7 -12 49 -112 95 -223 46 -110 84 -194 84 -186 0
16 159 400 173 419 10 13 47 17 47 5 0 -4 -46 -117 -102 -251 -95 -227 -103
-243 -126 -240 -24 3 -22 -3 -192 406 l-39 92 24 0 c15 0 29 -9 36 -22z m1959
-228 l0 -250 -25 0 -25 0 0 250 0 250 25 0 25 0 0 -250z m-16134 -388 c12 -30
3 -48 -10 -19 -3 6 -4 0 -2 -16 2 -15 0 -30 -4 -32 -4 -3 -5 -26 -3 -52 5 -40
3 -46 -8 -35 -17 16 -29 15 -29 -2 0 -19 -40 -32 -50 -16 -4 7 -5 21 -3 31 9
31 -14 21 -26 -11 -5 -17 -17 -30 -27 -30 -10 0 -14 5 -11 14 3 8 -1 28 -9 44
-8 16 -15 56 -17 88 l-2 59 40 -3 c22 -2 42 -8 44 -13 2 -6 10 -1 18 11 11 16
23 20 50 18 28 -3 37 -10 49 -36z m14995 -502 c63 -154 116 -280 119 -280 3 0
57 126 119 280 104 254 116 280 138 280 12 0 23 -3 23 -7 0 -5 -58 -147 -128
-318 -118 -286 -130 -310 -152 -310 -22 0 -34 24 -152 310 -70 171 -128 313
-128 318 0 4 11 7 24 7 21 0 33 -25 137 -280z m906 252 c57 -29 105 -79 134
-138 21 -43 24 -63 24 -159 0 -126 -16 -176 -79 -238 -65 -66 -108 -82 -216
-82 -79 0 -102 4 -136 22 -95 50 -148 126 -165 235 -27 170 61 333 205 378 54
16 186 6 233 -18z m373 -272 l0 -300 150 0 c143 0 150 -1 150 -20 0 -19 -7
-20 -175 -20 l-175 0 0 320 0 320 25 0 25 0 0 -300z m890 0 l0 -300 70 0 c63
0 70 -2 70 -20 0 -19 -7 -20 -165 -20 -158 0 -165 1 -165 20 0 18 7 20 70 20
l70 0 0 266 0 265 -30 -21 c-16 -11 -32 -25 -35 -30 -3 -5 -23 -22 -44 -39
-32 -26 -41 -28 -50 -17 -9 11 7 30 80 95 50 44 100 81 110 81 18 0 19 -14 19
-300z m-13805 -744 c0 -20 -5 -30 -20 -36 -30 -12 -27 -66 3 -62 14 2 22 -2
22 -12 0 -8 8 -28 17 -44 14 -25 15 -32 4 -46 -17 -20 -45 -20 -65 0 -20 20
-20 29 1 50 16 15 16 17 -2 30 -11 8 -26 12 -33 9 -7 -3 -23 1 -35 7 -12 7
-25 11 -29 10 -17 -4 6 28 23 33 10 4 19 13 19 21 0 8 6 14 14 14 7 0 16 14
20 31 5 26 10 30 33 27 21 -2 27 -8 28 -32z m-105 -607 c-24 -10 -25 -11 -5
-25 11 -8 37 -17 57 -21 42 -6 58 -35 39 -71 -11 -21 -1 -41 34 -61 18 -11 16
-12 -11 -7 -33 5 -36 2 -58 -66 -3 -10 -12 -18 -21 -18 -17 0 -100 -77 -100
-93 0 -5 -8 -15 -17 -21 -14 -8 -21 -7 -35 6 -16 16 -16 23 0 115 9 54 19 127
23 163 8 83 17 98 57 103 56 7 63 6 37 -4z m-31 -473 c7 -8 10 -20 7 -25 -4
-6 1 -15 11 -20 46 -26 48 -29 33 -46 -11 -13 -10 -20 7 -44 12 -16 21 -43 21
-65 0 -20 4 -42 10 -49 5 -6 9 -34 8 -61 -2 -39 3 -54 25 -82 23 -29 26 -41
22 -75 -5 -32 -1 -47 17 -72 15 -20 19 -32 12 -35 -17 -5 -15 -41 3 -58 22
-22 18 -43 -10 -56 -29 -13 -32 -34 -10 -66 12 -15 12 -20 3 -17 -23 8 -101
17 -160 19 -32 1 -62 6 -67 11 -6 6 -1 34 10 70 16 49 19 80 16 165 -4 98 -7
110 -42 177 -34 65 -38 82 -43 167 -5 109 3 180 24 201 14 13 19 13 53 -4 20
-11 43 -26 50 -35z"/>
<path d="M15142 6107 c-56 -115 -101 -212 -99 -214 2 -2 94 -2 204 -1 l200 3
-96 207 c-53 114 -99 209 -101 211 -3 3 -51 -90 -108 -206z"/>
<path d="M12646 3775 c-22 -7 -49 -26 -62 -42 -64 -80 -62 -273 3 -345 23 -25
88 -41 136 -33 27 5 54 20 83 47 l44 41 0 136 0 137 -28 27 c-47 46 -108 56
-176 32z"/>
<path d="M13730 3768 c-33 -17 -51 -35 -69 -71 -48 -95 -25 -278 41 -320 63
-41 153 -29 211 30 l37 36 0 137 0 136 -28 27 c-52 50 -124 59 -192 25z"/>
<path d="M11540 3768 c-45 -23 -73 -60 -90 -117 l-9 -31 165 0 c162 0 164 0
164 22 0 12 -10 42 -21 66 -38 77 -126 102 -209 60z"/>
<path d="M13200 3768 c-47 -24 -90 -83 -90 -125 0 -23 1 -23 160 -23 159 0
160 0 160 23 0 12 -9 41 -20 65 -15 33 -29 47 -62 62 -56 26 -94 25 -148 -2z"/>
<path d="M15000 3768 c-45 -23 -73 -60 -90 -117 l-9 -31 166 0 165 0 -7 37
c-11 61 -33 93 -78 114 -55 25 -93 24 -147 -3z"/>
<path d="M16677 3776 c-50 -18 -62 -30 -88 -83 -32 -65 -31 -184 2 -250 61
-123 237 -122 298 1 20 39 25 65 25 126 0 103 -30 165 -94 198 -50 25 -88 27
-143 8z"/>
<path d="M15915 2911 c-121 -32 -188 -130 -188 -276 0 -124 45 -209 138 -258
53 -28 174 -30 225 -3 92 48 140 135 140 255 0 125 -47 218 -131 261 -43 23
-138 33 -184 21z"/>
<path d="M1560 10535 c0 -17 32 -35 64 -35 19 0 37 -4 40 -8 3 -5 20 -9 38
-10 20 0 39 -9 50 -21 9 -12 23 -19 31 -15 8 3 32 -3 54 -14 21 -11 56 -23 77
-26 64 -10 84 -17 89 -30 3 -7 24 -16 47 -20 22 -3 43 -12 46 -19 2 -6 16 -13
31 -14 15 0 32 -7 37 -15 6 -8 22 -15 36 -15 13 -1 29 -8 35 -15 5 -8 21 -14
34 -15 13 -1 31 -9 40 -17 9 -8 28 -17 43 -21 15 -4 32 -13 39 -21 6 -8 17
-14 23 -14 6 0 32 -11 58 -25 26 -14 56 -25 66 -25 11 0 22 -8 24 -17 3 -10
23 -26 44 -37 22 -10 48 -23 59 -29 11 -6 36 -19 55 -29 19 -10 49 -27 65 -38
17 -11 37 -23 45 -27 18 -8 34 -21 60 -46 12 -13 25 -17 39 -12 25 8 27 19 6
37 -9 7 -22 19 -30 26 -7 6 -18 12 -23 12 -5 0 -20 8 -33 19 -13 10 -31 20
-39 22 -32 8 -120 65 -120 77 0 7 -4 11 -8 8 -5 -3 -26 3 -48 13 -21 10 -51
23 -66 29 -16 6 -28 16 -28 22 0 5 -8 10 -18 10 -10 0 -28 9 -40 20 -12 11
-27 20 -34 20 -7 0 -84 36 -173 79 -88 44 -178 83 -200 86 -22 4 -53 15 -70
23 -16 9 -32 17 -35 17 -3 0 -18 8 -35 17 -42 22 -151 58 -175 58 -11 0 -20 5
-20 11 0 5 -5 7 -10 4 -6 -4 -25 -2 -43 4 -45 14 -127 25 -127 16z"/>
<path d="M1510 10483 c-42 -13 -42 -13 -18 -33 14 -10 33 -17 44 -14 11 3 28
-3 39 -13 12 -12 30 -17 51 -15 22 3 38 -2 51 -15 10 -10 28 -17 40 -15 13 2
52 -11 87 -28 36 -18 68 -30 73 -27 4 3 24 -2 43 -10 19 -9 45 -17 58 -19 27
-3 54 -23 47 -34 -2 -4 6 -5 18 -3 12 2 31 -4 42 -14 11 -10 28 -17 38 -15 22
4 59 -26 50 -41 -3 -6 -1 -7 6 -3 21 13 71 -4 71 -24 0 -12 6 -17 18 -14 9 2
28 -2 42 -10 14 -8 40 -22 58 -30 17 -8 32 -22 32 -30 0 -9 6 -13 14 -10 17 6
136 -52 136 -67 0 -5 4 -8 9 -5 11 7 63 -33 56 -43 -2 -5 6 -6 18 -4 12 2 31
-4 42 -12 17 -14 18 -17 5 -26 -12 -8 -10 -9 7 -4 28 8 64 -11 57 -29 -4 -11
0 -13 15 -9 23 6 54 -14 45 -28 -2 -5 16 -7 41 -5 39 3 46 1 42 -13 -2 -9 2
-22 9 -29 10 -9 13 -7 16 10 3 24 -63 98 -88 98 -7 0 -19 9 -26 20 -7 11 -21
20 -30 20 -10 0 -28 10 -40 22 -12 12 -33 23 -47 24 -13 2 -29 10 -33 19 -5 8
-17 15 -27 15 -9 0 -26 9 -38 19 -11 10 -29 21 -39 23 -10 2 -23 13 -29 25 -6
15 -15 21 -27 17 -9 -3 -25 3 -35 13 -11 10 -28 19 -38 21 -11 2 -31 11 -45
21 -14 9 -40 23 -57 30 -18 8 -33 18 -33 23 0 6 -7 8 -15 5 -8 -4 -17 -1 -21
4 -3 6 -17 8 -31 4 -22 -5 -24 -3 -18 16 6 18 4 21 -9 16 -18 -7 -66 11 -66
25 0 5 -4 7 -9 4 -11 -7 -71 13 -71 25 0 4 -6 6 -13 3 -7 -2 -24 6 -38 18 -14
13 -33 22 -42 20 -10 -2 -33 3 -50 11 -18 9 -45 19 -60 23 -16 3 -31 12 -33
18 -3 7 -21 13 -41 13 -20 1 -42 7 -47 15 -6 8 -19 12 -28 10 -9 -2 -29 3 -45
11 -15 8 -44 16 -63 18 -19 2 -39 6 -45 10 -5 3 -17 4 -25 2z"/>
<path d="M388 8651 c-20 -20 -7 -51 22 -51 10 0 20 -6 23 -12 3 -10 7 -10 20
0 9 8 22 10 28 6 7 -4 41 -7 75 -6 51 2 65 -1 73 -16 6 -9 11 -11 11 -4 0 12
61 17 73 6 7 -7 69 -14 133 -13 24 0 48 -7 57 -15 8 -8 16 -14 18 -12 2 2 22
6 44 9 23 4 34 3 26 -2 -21 -14 3 -21 37 -12 20 6 32 6 34 -1 4 -10 52 -22
138 -34 19 -3 44 -9 55 -14 11 -5 37 -11 58 -15 20 -3 37 -9 37 -13 0 -4 12
-8 28 -8 36 -2 113 -24 131 -38 7 -5 28 -9 47 -7 19 1 34 -2 34 -7 0 -6 13
-13 29 -17 15 -3 37 -14 47 -23 11 -10 27 -16 36 -14 23 5 58 -15 58 -33 0 -8
5 -15 11 -15 5 0 7 5 4 10 -10 16 25 11 64 -9 87 -45 106 -51 109 -35 2 9 10
13 18 10 9 -3 12 -1 9 4 -3 6 -12 10 -19 10 -15 0 -56 42 -56 58 0 15 -17 16
-22 1 -6 -17 -58 8 -59 28 0 11 -3 13 -6 6 -7 -18 -24 -16 -53 7 -14 11 -33
20 -42 20 -9 0 -29 5 -45 11 -15 6 -29 10 -31 10 -1 -1 -18 6 -38 14 -20 8
-49 16 -65 17 -17 1 -37 10 -46 20 -13 14 -18 16 -25 6 -5 -9 -10 -10 -15 -2
-5 6 -36 16 -70 24 -41 8 -63 18 -66 29 -4 14 -5 14 -6 -1 0 -10 -3 -18 -4
-18 -11 0 -68 33 -73 42 -4 7 -9 7 -13 0 -4 -6 -28 -5 -70 4 -36 7 -69 10 -74
7 -4 -3 -11 5 -14 17 -4 13 -8 17 -13 10 -11 -18 -168 -1 -173 19 -4 13 -5 13
-6 -2 -1 -15 -11 -17 -68 -16 -87 1 -113 7 -114 28 0 14 -1 14 -7 0 -6 -14
-15 -14 -87 -2 -44 7 -81 17 -83 21 -1 4 -21 6 -45 5 -25 -2 -46 3 -52 11 -8
10 -13 10 -27 -3z"/>
<path d="M361 8549 c-27 -26 -23 -43 12 -47 15 -2 27 -10 27 -18 0 -8 5 -14
11 -14 5 0 7 5 4 10 -12 20 5 29 38 19 45 -13 107 -20 218 -23 53 -2 102 -6
109 -11 7 -4 29 -9 49 -10 42 -3 93 -12 171 -29 41 -10 55 -17 54 -30 -2 -19
12 -21 19 -3 3 9 16 12 36 9 23 -3 31 -10 32 -26 0 -21 0 -21 9 0 6 15 16 20
40 18 18 -1 36 -7 39 -13 4 -5 26 -11 49 -12 31 -2 41 -7 37 -16 -2 -8 0 -11
5 -8 6 4 24 3 41 0 24 -5 30 -11 26 -26 -7 -25 1 -24 24 4 10 12 18 17 19 11
0 -12 51 -37 79 -39 16 -2 75 -19 119 -37 15 -5 22 -14 18 -23 -6 -17 5 -20
20 -5 7 7 19 8 37 1 29 -11 35 -26 15 -34 -8 -3 -7 -6 4 -6 9 -1 20 3 23 9 9
14 77 -21 71 -37 -3 -7 -1 -13 3 -13 5 0 11 5 13 12 3 9 15 7 44 -7 21 -10 45
-20 51 -21 17 -3 26 13 12 22 -7 4 -8 9 -1 13 6 4 -4 20 -24 39 -19 18 -33 29
-32 25 2 -4 -1 -9 -7 -10 -10 -1 -21 3 -107 41 -22 10 -38 24 -38 34 0 14 -2
15 -10 2 -8 -12 -14 -12 -47 5 -21 10 -43 19 -49 21 -35 6 -53 17 -57 32 -4
16 -5 16 -6 0 -1 -21 -5 -22 -29 -9 -25 14 -56 24 -65 22 -4 0 -17 4 -28 10
-11 5 -30 11 -42 13 -47 5 -77 19 -77 35 0 13 -2 13 -9 2 -8 -12 -19 -12 -78
2 -37 9 -94 22 -125 29 -40 8 -58 17 -58 28 0 12 -2 12 -9 2 -6 -10 -19 -11
-46 -6 -41 7 -67 11 -102 13 -12 0 -24 9 -26 19 -4 13 -5 13 -6 2 -1 -21 -71
-15 -88 8 -12 14 -13 14 -13 0 0 -13 -7 -15 -32 -11 -18 2 -38 11 -44 19 -9
11 -13 12 -17 2 -4 -11 -27 -14 -81 -9 -4 1 -6 8 -2 16 3 8 1 15 -4 15 -6 0
-10 -7 -10 -15 0 -13 -7 -15 -37 -9 -21 4 -41 11 -44 17 -4 5 -9 5 -14 -2 -7
-13 -76 -4 -86 10 -3 5 -15 0 -28 -12z"/>
</g>
</svg>
